<?xml version="1.0" encoding="utf-8"?>
<!-- Generator: Adobe Illustrator 16.0.4, SVG Export Plug-In . SVG Version: 6.00 Build 0)  -->
<!DOCTYPE svg PUBLIC "-//W3C//DTD SVG 1.1//EN" "http://www.w3.org/Graphics/SVG/1.1/DTD/svg11.dtd">
<svg version="1.1" id="Layer_1" xmlns="http://www.w3.org/2000/svg" xmlns:xlink="http://www.w3.org/1999/xlink" x="0px" y="0px"
	 width="567.729px" height="100px" viewBox="0 0 567.729 100" style="enable-background:new 0 0 567.729 100;" xml:space="preserve"
	>
<style type="text/css">
<![CDATA[
	.st0{fill:#4D4D5E;}
	.st1{opacity:0.6;}
]]>
</style>
<g class="st1">
	<path class="st0" d="M167.156,44.616c-1.342,0-2.377,0.475-3.102,1.424s-1.088,2.304-1.088,4.062c0,1.76,0.363,3.116,1.088,4.071
		c0.725,0.954,1.76,1.432,3.102,1.432c1.344,0,2.375-0.478,3.094-1.432c0.721-0.955,1.08-2.312,1.08-4.071
		c0-1.759-0.359-3.113-1.08-4.062C169.531,45.09,168.5,44.616,167.156,44.616z"/>
	<path class="st0" d="M290.158,39.234h-4.473v6.993h4.473c1.133,0,2.014-0.285,2.643-0.854c0.627-0.569,0.941-1.472,0.941-2.707
		s-0.314-2.116-0.941-2.643C292.172,39.497,291.291,39.234,290.158,39.234z"/>
	<path class="st0" d="M431.254,45.728c-0.666-0.559-1.439-0.838-2.32-0.838c-1.344,0-2.328,0.507-2.957,1.523
		c-0.629,1.015-0.943,2.274-0.943,3.778c0,1.622,0.32,2.919,0.959,3.892c0.641,0.973,1.609,1.458,2.908,1.458
		c1.301,0,2.289-0.483,2.965-1.45c0.678-0.967,1.016-2.218,1.016-3.754C432.881,48.188,432.338,46.651,431.254,45.728z"/>
	<polygon class="st0" points="108.652,49.885 114.736,49.885 111.734,40.539 	"/>
	<path class="st0" d="M227.393,51.077l-1.047,0.193c-0.979,0.172-1.684,0.381-2.109,0.628c-0.725,0.419-1.086,1.068-1.086,1.949
		c0,0.785,0.221,1.352,0.664,1.7c0.441,0.35,0.979,0.524,1.611,0.524c1.002,0,1.928-0.291,2.773-0.871
		c0.844-0.58,1.283-1.638,1.316-3.174V50.32c-0.295,0.183-0.592,0.33-0.891,0.443C228.326,50.875,227.914,50.98,227.393,51.077z"/>
	<path class="st0" d="M361.467,44.616c-1.344,0-2.377,0.475-3.102,1.424c-0.727,0.949-1.088,2.304-1.088,4.062
		c0,1.76,0.361,3.116,1.088,4.071c0.725,0.954,1.758,1.432,3.102,1.432c1.342,0,2.373-0.478,3.094-1.432
		c0.719-0.955,1.078-2.312,1.078-4.071c0-1.759-0.359-3.113-1.078-4.062C363.84,45.09,362.809,44.616,361.467,44.616z"/>
	<path class="st0" d="M330.32,44.616c-1.344,0-2.377,0.475-3.102,1.424c-0.727,0.949-1.088,2.304-1.088,4.062
		c0,1.76,0.361,3.116,1.088,4.071c0.725,0.954,1.758,1.432,3.102,1.432c1.342,0,2.373-0.478,3.094-1.432
		c0.719-0.955,1.078-2.312,1.078-4.071c0-1.759-0.359-3.113-1.078-4.062C332.693,45.09,331.662,44.616,330.32,44.616z"/>
	<path class="st0" d="M189.264,45.728c-0.666-0.559-1.439-0.838-2.32-0.838c-1.344,0-2.328,0.507-2.957,1.523
		c-0.629,1.015-0.943,2.274-0.943,3.778c0,1.622,0.32,2.919,0.959,3.892c0.641,0.973,1.609,1.458,2.908,1.458
		c1.301,0,2.289-0.483,2.965-1.45c0.678-0.967,1.016-2.218,1.016-3.754C190.891,48.188,190.348,46.651,189.264,45.728z"/>
	<path class="st0" d="M390.555,51.077l-1.047,0.193c-0.979,0.172-1.684,0.381-2.109,0.628c-0.725,0.419-1.086,1.068-1.086,1.949
		c0,0.785,0.221,1.352,0.664,1.7c0.441,0.35,0.979,0.524,1.611,0.524c1.002,0,1.928-0.291,2.773-0.871
		c0.844-0.58,1.283-1.638,1.316-3.174V50.32c-0.295,0.183-0.592,0.33-0.891,0.443C391.488,50.875,391.076,50.98,390.555,51.077z"/>
	<polygon class="st0" points="62.811,49.885 68.895,49.885 65.893,40.539 	"/>
	<path class="st0" d="M209.422,45.728c-0.666-0.559-1.439-0.838-2.32-0.838c-1.344,0-2.328,0.507-2.957,1.523
		c-0.629,1.015-0.943,2.274-0.943,3.778c0,1.622,0.32,2.919,0.959,3.892c0.641,0.973,1.609,1.458,2.908,1.458
		c1.301,0,2.289-0.483,2.965-1.45c0.678-0.967,1.016-2.218,1.016-3.754C211.049,48.188,210.506,46.651,209.422,45.728z"/>
	<path class="st0" d="M527.74,44.616c-1.344,0-2.377,0.475-3.102,1.424c-0.727,0.949-1.088,2.304-1.088,4.062
		c0,1.76,0.361,3.116,1.088,4.071c0.725,0.954,1.758,1.432,3.102,1.432c1.342,0,2.373-0.478,3.094-1.432
		c0.719-0.955,1.078-2.312,1.078-4.071c0-1.759-0.359-3.113-1.078-4.062C530.113,45.09,529.082,44.616,527.74,44.616z"/>
	<path class="st0" d="M260.775,45.728c-0.666-0.559-1.439-0.838-2.32-0.838c-1.344,0-2.328,0.507-2.957,1.523
		c-0.629,1.015-0.943,2.274-0.943,3.778c0,1.622,0.32,2.919,0.959,3.892c0.641,0.973,1.609,1.458,2.908,1.458
		c1.301,0,2.289-0.483,2.965-1.45c0.678-0.967,1.016-2.218,1.016-3.754C262.402,48.188,261.859,46.651,260.775,45.728z"/>
	<path class="st0" d="M0,0v100h567.729V0H0z M51.689,58.86h-4.963l-9.668-16.852V58.86h-4.625V35.109h5.203l9.428,16.561V35.109
		h4.625V58.86z M71.775,58.86l-1.568-4.883h-8.746l-1.609,4.883H54.66l8.479-23.751h5.615l8.402,23.751H71.775z M96.191,57.321
		c-1.678,1.435-4.047,2.151-7.109,2.151c-3.127,0-5.586-0.706-7.377-2.119c-1.793-1.412-2.688-3.354-2.688-5.825h4.736
		c0.154,1.085,0.455,1.896,0.906,2.433c0.822,0.978,2.23,1.467,4.227,1.467c1.195,0,2.168-0.129,2.912-0.387
		c1.416-0.494,2.123-1.413,2.123-2.756c0-0.784-0.348-1.391-1.039-1.821c-0.693-0.419-1.793-0.79-3.299-1.112l-2.57-0.564
		c-2.527-0.559-4.264-1.166-5.209-1.821c-1.602-1.096-2.4-2.809-2.4-5.14c0-2.127,0.783-3.894,2.348-5.301
		c1.566-1.407,3.867-2.111,6.9-2.111c2.533,0,4.695,0.664,6.484,1.99c1.789,1.327,2.727,3.252,2.814,5.777h-4.77
		c-0.09-1.429-0.729-2.444-1.918-3.045c-0.793-0.397-1.777-0.596-2.955-0.596c-1.312,0-2.357,0.258-3.141,0.773
		c-0.781,0.516-1.172,1.235-1.172,2.159c0,0.849,0.385,1.482,1.156,1.901c0.496,0.279,1.547,0.607,3.156,0.983l4.168,0.983
		c1.826,0.43,3.195,1.004,4.107,1.724c1.416,1.117,2.123,2.734,2.123,4.85C98.707,54.084,97.869,55.887,96.191,57.321z
		 M117.617,58.86l-1.568-4.883h-8.746l-1.609,4.883h-5.191l8.479-23.751h5.615l8.402,23.751H117.617z M154.91,58.86h-3.287
		l-0.5-2.965c-0.955,1.123-1.814,1.914-2.578,2.374c-1.311,0.802-2.922,1.203-4.834,1.203c-3.146,0-5.725-1.09-7.734-3.269
		c-2.094-2.19-3.143-5.186-3.143-8.986c0-3.843,1.059-6.924,3.176-9.243c2.115-2.319,4.914-3.478,8.395-3.478
		c3.018,0,5.443,0.766,7.275,2.296c1.832,1.531,2.881,3.44,3.15,5.729h-4.883c-0.377-1.622-1.295-2.755-2.756-3.4
		c-0.816-0.354-1.725-0.532-2.723-0.532c-1.912,0-3.482,0.721-4.713,2.163c-1.23,1.442-1.846,3.61-1.846,6.505
		c0,2.917,0.666,4.98,1.998,6.192c1.332,1.211,2.848,1.816,4.545,1.816c1.664,0,3.029-0.477,4.092-1.433
		c1.064-0.956,1.719-2.207,1.967-3.755h-5.496v-3.964h9.895V58.86z M173.924,56.711c-1.482,1.83-3.732,2.744-6.75,2.744
		c-3.02,0-5.27-0.914-6.752-2.744s-2.225-4.033-2.225-6.609c0-2.533,0.742-4.728,2.225-6.584c1.482-1.856,3.732-2.785,6.752-2.785
		c3.018,0,5.268,0.929,6.75,2.785c1.482,1.857,2.225,4.052,2.225,6.584C176.148,52.678,175.406,54.881,173.924,56.711z
		 M195.418,58.86h-4.463v-2.434c-0.654,1.043-1.402,1.8-2.24,2.272s-1.879,0.709-3.125,0.709c-2.053,0-3.779-0.83-5.18-2.489
		c-1.402-1.66-2.104-3.789-2.104-6.389c0-2.997,0.689-5.355,2.07-7.074s3.225-2.578,5.535-2.578c1.062,0,2.008,0.233,2.836,0.701
		c0.826,0.467,1.498,1.114,2.014,1.941v-8.379h4.656V58.86z M215.576,58.86h-4.463v-2.434c-0.654,1.043-1.402,1.8-2.24,2.272
		s-1.879,0.709-3.125,0.709c-2.053,0-3.779-0.83-5.18-2.489c-1.402-1.66-2.104-3.789-2.104-6.389c0-2.997,0.689-5.355,2.07-7.074
		s3.225-2.578,5.535-2.578c1.062,0,2.008,0.233,2.836,0.701c0.826,0.467,1.498,1.114,2.014,1.941v-8.379h4.656V58.86z
		 M235.074,58.86h-4.994c-0.141-0.354-0.236-0.688-0.291-0.999c-0.053-0.312-0.096-0.666-0.129-1.063
		c-0.637,0.688-1.371,1.273-2.203,1.756c-0.994,0.57-2.119,0.854-3.371,0.854c-1.6,0-2.92-0.454-3.963-1.361
		s-1.564-2.194-1.564-3.859c0-2.159,0.838-3.722,2.516-4.689c0.92-0.526,2.273-0.902,4.059-1.128l1.574-0.193
		c0.855-0.107,1.467-0.242,1.834-0.403c0.66-0.279,0.99-0.714,0.99-1.305c0-0.72-0.252-1.216-0.76-1.491
		c-0.506-0.273-1.248-0.411-2.229-0.411c-1.1,0-1.879,0.269-2.336,0.806c-0.326,0.397-0.545,0.935-0.654,1.611h-4.43
		c0.096-1.536,0.527-2.798,1.295-3.787c1.219-1.547,3.311-2.32,6.279-2.32c1.93,0,3.645,0.381,5.145,1.144s2.25,2.202,2.25,4.318
		v8.057c0,0.559,0.01,1.234,0.031,2.029c0.033,0.602,0.125,1.01,0.275,1.225s0.375,0.393,0.676,0.532V58.86z M248.256,45.615
		c-0.291-0.032-0.549-0.054-0.773-0.064c-0.227-0.011-0.41-0.016-0.549-0.016c-1.848,0-3.088,0.602-3.723,1.805
		c-0.354,0.677-0.531,1.719-0.531,3.126v8.395h-4.625V41.296h4.383v3.062c0.709-1.171,1.326-1.971,1.854-2.401
		c0.859-0.72,1.977-1.08,3.352-1.08c0.086,0,0.158,0.003,0.217,0.008c0.061,0.006,0.191,0.014,0.396,0.024V45.615z M266.93,58.86
		h-4.463v-2.434c-0.654,1.043-1.402,1.8-2.24,2.272s-1.879,0.709-3.125,0.709c-2.053,0-3.779-0.83-5.18-2.489
		c-1.402-1.66-2.104-3.789-2.104-6.389c0-2.997,0.689-5.355,2.07-7.074s3.225-2.578,5.535-2.578c1.062,0,2.008,0.233,2.836,0.701
		c0.826,0.467,1.498,1.114,2.014,1.941v-8.379h4.656V58.86z M296.588,48.58c-1.391,1.16-3.375,1.74-5.957,1.74h-4.945v8.54h-4.93
		V35.109h10.197c2.352,0,4.227,0.612,5.623,1.837c1.398,1.225,2.098,3.121,2.098,5.688C298.674,45.438,297.979,47.419,296.588,48.58
		z M318.121,58.86h-4.689V48.165c0-0.946-0.158-1.71-0.479-2.291c-0.416-0.817-1.205-1.226-2.367-1.226
		c-1.205,0-2.119,0.406-2.744,1.218c-0.623,0.812-0.936,1.97-0.936,3.476v9.518h-4.592v-23.67h4.592v8.379
		c0.664-1.021,1.432-1.732,2.303-2.135c0.871-0.402,1.789-0.604,2.752-0.604c1.08,0,2.061,0.188,2.943,0.564
		c0.883,0.376,1.607,0.952,2.174,1.726c0.482,0.656,0.775,1.331,0.883,2.024s0.16,1.825,0.16,3.395V58.86z M337.088,56.711
		c-1.482,1.83-3.734,2.744-6.752,2.744c-3.02,0-5.27-0.914-6.752-2.744s-2.223-4.033-2.223-6.609c0-2.533,0.74-4.728,2.223-6.584
		c1.482-1.856,3.732-2.785,6.752-2.785c3.018,0,5.27,0.929,6.752,2.785c1.482,1.857,2.223,4.052,2.223,6.584
		C339.311,52.678,338.57,54.881,337.088,56.711z M350.639,44.729h-2.852v9.282c0,0.719,0.092,1.168,0.273,1.345
		c0.184,0.178,0.742,0.267,1.676,0.267c0.141,0,0.287-0.003,0.443-0.009c0.156-0.005,0.309-0.013,0.459-0.024v3.433l-2.176,0.081
		c-2.17,0.074-3.652-0.301-4.447-1.129c-0.516-0.525-0.773-1.337-0.773-2.433V44.729h-2.449v-3.271h2.449v-4.898h4.545v4.898h2.852
		V44.729z M368.234,56.711c-1.482,1.83-3.734,2.744-6.752,2.744c-3.02,0-5.27-0.914-6.752-2.744s-2.223-4.033-2.223-6.609
		c0-2.533,0.74-4.728,2.223-6.584c1.482-1.856,3.732-2.785,6.752-2.785c3.018,0,5.27,0.929,6.752,2.785
		c1.482,1.857,2.223,4.052,2.223,6.584C370.457,52.678,369.717,54.881,368.234,56.711z M398.236,58.86h-4.994
		c-0.141-0.354-0.236-0.688-0.291-0.999c-0.053-0.312-0.096-0.666-0.129-1.063c-0.637,0.688-1.371,1.273-2.203,1.756
		c-0.994,0.57-2.119,0.854-3.371,0.854c-1.6,0-2.92-0.454-3.963-1.361s-1.564-2.194-1.564-3.859c0-2.159,0.838-3.722,2.516-4.689
		c0.92-0.526,2.273-0.902,4.059-1.128l1.574-0.193c0.855-0.107,1.467-0.242,1.834-0.403c0.66-0.279,0.99-0.714,0.99-1.305
		c0-0.72-0.252-1.216-0.76-1.491c-0.506-0.273-1.248-0.411-2.229-0.411c-1.1,0-1.879,0.269-2.336,0.806
		c-0.326,0.397-0.545,0.935-0.654,1.611h-4.43c0.096-1.536,0.527-2.798,1.295-3.787c1.219-1.547,3.311-2.32,6.279-2.32
		c1.93,0,3.645,0.381,5.145,1.144s2.25,2.202,2.25,4.318v8.057c0,0.559,0.01,1.234,0.031,2.029c0.033,0.602,0.125,1.01,0.275,1.225
		s0.375,0.393,0.676,0.532V58.86z M417.154,58.86h-4.705V48.177c0-0.924-0.123-1.633-0.367-2.127
		c-0.449-0.902-1.303-1.354-2.561-1.354c-1.545,0-2.607,0.661-3.182,1.982c-0.299,0.698-0.449,1.59-0.449,2.675v9.507h-4.592V41.329
		h4.447v2.562c0.588-0.902,1.145-1.552,1.668-1.95c0.941-0.709,2.135-1.063,3.578-1.063c1.809,0,3.287,0.476,4.438,1.426
		c1.15,0.951,1.725,2.527,1.725,4.729V58.86z M437.408,58.86h-4.463v-2.434c-0.654,1.043-1.402,1.8-2.24,2.272
		s-1.879,0.709-3.125,0.709c-2.053,0-3.779-0.83-5.18-2.489c-1.402-1.66-2.104-3.789-2.104-6.389c0-2.997,0.689-5.355,2.07-7.074
		s3.225-2.578,5.535-2.578c1.062,0,2.008,0.233,2.836,0.701c0.826,0.467,1.498,1.114,2.014,1.941v-8.379h4.656V58.86z
		 M462.078,58.86h-4.689l-8.031-23.751h5.301l5.156,18.03l5.205-18.03h5.156L462.078,58.86z M476.902,58.86h-4.658V41.296h4.658
		V58.86z M476.902,39.202h-4.658v-4.238h4.658V39.202z M497.334,58.86h-4.463v-2.434c-0.656,1.043-1.402,1.8-2.24,2.272
		s-1.881,0.709-3.125,0.709c-2.053,0-3.779-0.83-5.182-2.489c-1.402-1.66-2.102-3.789-2.102-6.389c0-2.997,0.689-5.355,2.07-7.074
		c1.379-1.719,3.225-2.578,5.535-2.578c1.062,0,2.008,0.233,2.836,0.701c0.826,0.467,1.498,1.114,2.014,1.941v-8.379h4.656V58.86z
		 M517.537,51.367h-12.791c0.07,1.762,0.684,2.997,1.836,3.706c0.701,0.441,1.545,0.661,2.533,0.661
		c1.045,0,1.895-0.269,2.549-0.806c0.357-0.29,0.672-0.693,0.945-1.209h4.688c-0.123,1.043-0.689,2.101-1.701,3.175
		c-1.574,1.708-3.775,2.562-6.607,2.562c-2.338,0-4.4-0.72-6.188-2.16c-1.787-1.441-2.68-3.785-2.68-7.032
		c0-3.042,0.807-5.375,2.42-6.999c1.613-1.624,3.707-2.436,6.279-2.436c1.529,0,2.906,0.274,4.131,0.823
		c1.227,0.549,2.238,1.415,3.035,2.598c0.721,1.043,1.186,2.254,1.4,3.631C517.51,48.688,517.561,49.85,517.537,51.367z
		 M534.508,56.711c-1.482,1.83-3.734,2.744-6.752,2.744c-3.02,0-5.27-0.914-6.752-2.744s-2.223-4.033-2.223-6.609
		c0-2.533,0.74-4.728,2.223-6.584c1.482-1.856,3.732-2.785,6.752-2.785c3.018,0,5.27,0.929,6.752,2.785
		c1.482,1.857,2.223,4.052,2.223,6.584C536.73,52.678,535.99,54.881,534.508,56.711z"/>
	<path class="st0" d="M491.18,45.728c-0.668-0.559-1.441-0.838-2.32-0.838c-1.344,0-2.33,0.507-2.957,1.523
		c-0.629,1.015-0.943,2.274-0.943,3.778c0,1.622,0.32,2.919,0.959,3.892s1.607,1.458,2.908,1.458c1.299,0,2.289-0.483,2.965-1.45
		c0.678-0.967,1.016-2.218,1.016-3.754C492.807,48.188,492.264,46.651,491.18,45.728z"/>
	<path class="st0" d="M508.822,44.616c-1.178,0-2.092,0.334-2.74,1.003s-1.057,1.575-1.225,2.719h7.912
		c-0.084-1.219-0.49-2.144-1.223-2.775C510.814,44.932,509.906,44.616,508.822,44.616z"/>
</g>
</svg>
