<?xml version="1.0" encoding="utf-8"?>
<!-- Generator: Adobe Illustrator 16.0.4, SVG Export Plug-In . SVG Version: 6.00 Build 0)  -->
<!DOCTYPE svg PUBLIC "-//W3C//DTD SVG 1.1//EN" "http://www.w3.org/Graphics/SVG/1.1/DTD/svg11.dtd">
<svg version="1.1" xmlns="http://www.w3.org/2000/svg" xmlns:xlink="http://www.w3.org/1999/xlink" x="0px" y="0px" width="107px"
	 height="107px" viewBox="0 0 107 107" style="enable-background:new 0 0 107 107;" xml:space="preserve">
<style type="text/css">
<![CDATA[
	.st0{fill:none;stroke:#FFFFFF;stroke-width:0.647;}
	.st1{fill:#EE3E42;}
	.st2{fill:#FFFFFF;}
	.st3{fill:#0066B2;}
]]>
</style>
<g id="guides">
</g>
<g id="Layer_1">
</g>
<g id="logo">
	<g>
		<path class="st3" d="M94.5,53.498C94.5,75.989,75.998,94.5,53.521,94.5c-22.482,0-40.98-18.511-40.98-41.002
			c0-22.489,18.498-40.998,40.98-40.998C75.998,12.5,94.5,31.009,94.5,53.498"/>
		<path class="st0" d="M94.5,53.498C94.5,75.989,75.998,94.5,53.521,94.5c-22.482,0-40.98-18.511-40.98-41.002
			c0-22.489,18.498-40.998,40.98-40.998C75.998,12.5,94.5,31.009,94.5,53.498z"/>
		<path class="st2" d="M54.086,16.225c0,0.183-0.148,0.333-0.334,0.333c-0.182,0-0.334-0.15-0.334-0.333
			c0-0.185,0.152-0.333,0.334-0.333C53.938,15.892,54.086,16.04,54.086,16.225"/>
		<path class="st2" d="M56.398,21.285c0,0.228-0.189,0.411-0.412,0.411c-0.229,0-0.412-0.183-0.412-0.411
			c0-0.227,0.184-0.413,0.412-0.413C56.209,20.873,56.398,21.059,56.398,21.285"/>
		<path class="st2" d="M62.402,29.559c0,0.223-0.188,0.409-0.406,0.409c-0.23,0-0.416-0.186-0.416-0.409
			c0-0.227,0.186-0.414,0.416-0.414C62.215,29.145,62.402,29.332,62.402,29.559"/>
		<path class="st2" d="M52.746,24.135c0,0.185-0.146,0.339-0.33,0.339c-0.182,0-0.332-0.154-0.332-0.339
			c0-0.182,0.15-0.333,0.332-0.333C52.6,23.803,52.746,23.953,52.746,24.135"/>
		<path class="st2" d="M56.344,26.039c0,0.184-0.146,0.333-0.33,0.333s-0.332-0.15-0.332-0.333c0-0.182,0.148-0.333,0.332-0.333
			S56.344,25.857,56.344,26.039"/>
		<path class="st2" d="M51.67,20.719c0,0.225-0.188,0.412-0.41,0.412c-0.227,0-0.412-0.187-0.412-0.412
			c0-0.225,0.186-0.41,0.412-0.41C51.482,20.309,51.67,20.494,51.67,20.719"/>
		<path class="st2" d="M46.229,24.032c0,0.184-0.146,0.334-0.332,0.334c-0.184,0-0.336-0.15-0.336-0.334
			c0-0.183,0.152-0.333,0.336-0.333C46.082,23.699,46.229,23.849,46.229,24.032"/>
		<path class="st2" d="M47.205,24.703c0,0.183-0.152,0.333-0.334,0.333c-0.186,0-0.332-0.15-0.332-0.333s0.146-0.335,0.332-0.335
			C47.053,24.368,47.205,24.52,47.205,24.703"/>
		<path class="st2" d="M48.178,25.369c0,0.184-0.15,0.335-0.334,0.335s-0.33-0.151-0.33-0.335c0-0.182,0.146-0.333,0.33-0.333
			S48.178,25.187,48.178,25.369"/>
		<path class="st2" d="M46.689,26.655c0,0.183-0.15,0.333-0.33,0.333c-0.186,0-0.338-0.15-0.338-0.333
			c0-0.183,0.152-0.333,0.338-0.333C46.539,26.322,46.689,26.472,46.689,26.655"/>
		<path class="st2" d="M38.938,32.102c0,0.184-0.152,0.333-0.336,0.333s-0.332-0.149-0.332-0.333c0-0.183,0.148-0.334,0.332-0.334
			S38.938,31.918,38.938,32.102"/>
		<path class="st2" d="M40.375,33.846c0,0.184-0.15,0.333-0.334,0.333s-0.336-0.15-0.336-0.333c0-0.183,0.152-0.334,0.336-0.334
			S40.375,33.663,40.375,33.846"/>
		<path class="st2" d="M39.244,62.054c0,0.183-0.15,0.334-0.334,0.334c-0.182,0-0.336-0.151-0.336-0.334
			c0-0.185,0.154-0.334,0.336-0.334C39.094,61.72,39.244,61.869,39.244,62.054"/>
		<path class="st2" d="M39.447,69.836c0,0.226-0.186,0.413-0.41,0.413c-0.223,0-0.408-0.187-0.408-0.413
			c0-0.225,0.186-0.408,0.408-0.408C39.262,69.428,39.447,69.612,39.447,69.836"/>
		<path class="st2" d="M35.037,73.82c0,0.182-0.158,0.334-0.342,0.334c-0.176,0-0.328-0.152-0.328-0.334
			c0-0.186,0.152-0.334,0.328-0.334C34.879,73.486,35.037,73.634,35.037,73.82"/>
		<path class="st2" d="M29.742,75.437c0,0.225-0.184,0.411-0.408,0.411c-0.229,0-0.412-0.186-0.412-0.411
			c0-0.226,0.184-0.41,0.412-0.41C29.559,75.027,29.742,75.211,29.742,75.437"/>
		<path class="st2" d="M28.666,71.841c0,0.226-0.186,0.41-0.41,0.41c-0.229,0-0.41-0.184-0.41-0.41c0-0.225,0.182-0.411,0.41-0.411
			C28.48,71.43,28.666,71.616,28.666,71.841"/>
		<path class="st2" d="M28.049,74.128c0,0.182-0.15,0.333-0.334,0.333s-0.332-0.151-0.332-0.333c0-0.184,0.148-0.334,0.332-0.334
			S28.049,73.944,28.049,74.128"/>
		<path class="st2" d="M24.098,72.227c0,0.182-0.154,0.334-0.338,0.334s-0.334-0.152-0.334-0.334c0-0.184,0.15-0.335,0.334-0.335
			S24.098,72.043,24.098,72.227"/>
		<path class="st2" d="M37.908,78.649c0,0.183-0.15,0.333-0.33,0.333c-0.182,0-0.336-0.15-0.336-0.333
			c0-0.183,0.154-0.334,0.336-0.334C37.758,78.314,37.908,78.466,37.908,78.649"/>
		<path class="st2" d="M42.066,75.59c0,0.227-0.182,0.412-0.412,0.412c-0.221,0-0.406-0.186-0.406-0.412
			c0-0.226,0.186-0.41,0.406-0.41C41.885,75.18,42.066,75.365,42.066,75.59"/>
		<path class="st2" d="M42.529,79.522c0,0.183-0.15,0.334-0.332,0.334c-0.186,0-0.336-0.151-0.336-0.334
			c0-0.183,0.15-0.333,0.336-0.333C42.379,79.189,42.529,79.339,42.529,79.522"/>
		<path class="st2" d="M59.633,75.77c0,0.187-0.152,0.336-0.334,0.336s-0.334-0.149-0.334-0.336c0-0.183,0.152-0.333,0.334-0.333
			S59.633,75.586,59.633,75.77"/>
		<path class="st2" d="M51.67,78.597c0,0.183-0.154,0.333-0.334,0.333c-0.184,0-0.334-0.15-0.334-0.333
			c0-0.184,0.15-0.333,0.334-0.333C51.516,78.264,51.67,78.413,51.67,78.597"/>
		<path class="st2" d="M73.084,82.656c0,0.182-0.146,0.333-0.334,0.333c-0.184,0-0.334-0.15-0.334-0.333
			c0-0.184,0.15-0.334,0.334-0.334C72.938,82.322,73.084,82.472,73.084,82.656"/>
		<path class="st2" d="M74.834,66.857c0,0.225-0.189,0.412-0.414,0.412c-0.227,0-0.414-0.187-0.414-0.412
			c0-0.225,0.188-0.411,0.414-0.411C74.645,66.447,74.834,66.632,74.834,66.857"/>
		<path class="st2" d="M71.545,69.092c0,0.183-0.148,0.336-0.33,0.336c-0.186,0-0.338-0.153-0.338-0.336
			c0-0.183,0.152-0.334,0.338-0.334C71.396,68.758,71.545,68.91,71.545,69.092"/>
		<path class="st2" d="M74.779,69.736c0,0.224-0.184,0.409-0.412,0.409c-0.223,0-0.406-0.185-0.406-0.409
			c0-0.227,0.184-0.412,0.406-0.412C74.596,69.324,74.779,69.509,74.779,69.736"/>
		<path class="st2" d="M71.545,73.718c0,0.181-0.148,0.333-0.33,0.333c-0.186,0-0.338-0.152-0.338-0.333
			c0-0.184,0.152-0.332,0.338-0.332C71.396,73.386,71.545,73.534,71.545,73.718"/>
		<path class="st2" d="M79.912,64.623c0,0.181-0.146,0.333-0.332,0.333c-0.184,0-0.336-0.152-0.336-0.333
			c0-0.184,0.152-0.333,0.336-0.333C79.766,64.29,79.912,64.439,79.912,64.623"/>
		<path class="st2" d="M80.738,66.651c0,0.225-0.186,0.414-0.414,0.414c-0.223,0-0.408-0.189-0.408-0.414
			c0-0.224,0.186-0.41,0.408-0.41C80.553,66.241,80.738,66.428,80.738,66.651"/>
		<path class="st2" d="M86.488,69.067c0,0.227-0.184,0.409-0.414,0.409c-0.223,0-0.406-0.183-0.406-0.409
			c0-0.226,0.184-0.412,0.406-0.412C86.305,68.655,86.488,68.841,86.488,69.067"/>
		<path class="st2" d="M80.635,73.357c0,0.183-0.152,0.334-0.334,0.334c-0.184,0-0.336-0.151-0.336-0.334
			c0-0.183,0.152-0.334,0.336-0.334C80.482,73.023,80.635,73.175,80.635,73.357"/>
		<path class="st2" d="M84.33,69.863c0,0.184-0.152,0.334-0.33,0.334c-0.186,0-0.334-0.151-0.334-0.334
			c0-0.185,0.148-0.333,0.334-0.333C84.178,69.53,84.33,69.678,84.33,69.863"/>
		<path class="st2" d="M83.666,75.257c0,0.183-0.152,0.333-0.332,0.333c-0.188,0-0.338-0.15-0.338-0.333s0.15-0.334,0.338-0.334
			C83.514,74.923,83.666,75.074,83.666,75.257"/>
		<path class="st2" d="M61.281,20.334c0.053-0.21,0.223-0.374,0.432-0.42l0.119-0.879l0.172,0.887
			c0.207,0.058,0.365,0.228,0.416,0.437l0.887,0.127l-0.895,0.159c-0.057,0.204-0.227,0.362-0.43,0.412l-0.15,0.904l-0.148-0.912
			c-0.201-0.058-0.361-0.218-0.41-0.423l-0.859-0.14L61.281,20.334z"/>
		<path class="st2" d="M38.25,83.359c0.059-0.209,0.229-0.373,0.443-0.421l0.117-0.878l0.174,0.889
			c0.205,0.055,0.361,0.227,0.406,0.434l0.893,0.129l-0.898,0.157c-0.059,0.203-0.219,0.363-0.422,0.413l-0.152,0.905l-0.15-0.911
			c-0.203-0.061-0.361-0.222-0.412-0.427l-0.852-0.138L38.25,83.359z"/>
		<path class="st2" d="M80.596,75.233c0.057-0.208,0.229-0.373,0.439-0.42l0.113-0.879l0.172,0.887
			c0.209,0.059,0.365,0.229,0.416,0.439l0.887,0.127l-0.898,0.157c-0.057,0.203-0.223,0.362-0.424,0.413l-0.152,0.905l-0.154-0.913
			c-0.197-0.059-0.352-0.22-0.404-0.423l-0.859-0.139L80.596,75.233z"/>
		<path class="st2" d="M83.951,66.172c0.053-0.212,0.225-0.372,0.434-0.422l0.121-0.878l0.168,0.888
			c0.209,0.059,0.365,0.227,0.41,0.44l0.895,0.124l-0.9,0.157c-0.061,0.202-0.221,0.362-0.422,0.413l-0.15,0.906l-0.158-0.912
			c-0.197-0.057-0.355-0.22-0.402-0.423l-0.859-0.14L83.951,66.172z"/>
		<path class="st2" d="M42.363,32.701c0.055-0.21,0.225-0.374,0.434-0.419l0.115-0.88l0.178,0.886
			c0.209,0.06,0.363,0.227,0.41,0.439l0.893,0.126l-0.896,0.16c-0.061,0.202-0.223,0.36-0.434,0.411l-0.15,0.904l-0.148-0.914
			c-0.197-0.057-0.357-0.218-0.404-0.421l-0.861-0.14L42.363,32.701z"/>
		<path class="st2" d="M80.941,55.408l-2.119-5.373l-1.553,5.373H80.941z M75.682,46.107h7.605l5.248,13.232l1.75,1.759H80.75
			l1.752-1.759l-0.621-1.614h-5.262l-0.545,1.845l1.25,1.528H72.35l1.752-1.759l3.377-11.701L75.682,46.107z"/>
		<path class="st1" d="M75.471,38.704c-2.17,0.964-4.389,1.893-6.648,2.788C47.799,49.847,22.27,56.05,7.639,65.664l1.061,0.369
			c16.039-9.775,44.398-11.23,67.605-21.858c12.527-5.734,23.553-14.136,30.334-27.96C100.08,25.634,88.68,32.838,75.471,38.704z"/>
		<path class="st2" d="M46.631,55.408l-2.117-5.373l-1.555,5.373H46.631z M41.646,46.107h7.326l5.248,13.232l1.758,1.759h-9.539
			l1.75-1.759l-0.625-1.614h-5.26L41.76,59.57l1.256,1.528h-4.975l1.746-1.759l3.381-11.701L41.646,46.107z"/>
		<polygon class="st2" points="31.709,55.441 31.709,47.638 30.182,46.107 35.256,46.107 33.732,47.638 33.732,59.339 35.48,61.096 
			28.826,61.096 23.092,51.389 23.092,59.339 24.566,61.096 19.266,61.096 21.018,59.339 21.018,47.638 19.498,46.107 
			26.127,46.107 		"/>
		<path class="st2" d="M70.078,49.95l-0.158-4.667l-1.566,1.084c-2.215-0.773-4.787-0.745-6.592,0.11
			c-1.684,0.797-3.5,2.479-3.273,4.866c0.215,2.388,2.068,3.314,3.734,4.068c2.148,0.973,4.482,1.305,4.449,2.589
			c-0.023,0.818-1.381,1.406-2.436,1.369c-0.963-0.028-4.092-0.264-5.729-2.209l0.311,4.912l1.744-1.283
			c2.125,0.751,4.699,1.065,7.086,0.29c2.363-0.772,4.848-2.753,3.471-6.217c-0.596-1.493-2.232-2.412-3.207-2.81
			c-0.893-0.368-3.619-1.441-4.381-1.834c-0.895-0.466-0.795-1.938,1.346-2.236C66.818,47.711,69.502,49.266,70.078,49.95"/>
		<path class="st2" d="M38.871,52.047c-0.35-0.589-0.695-1.195-1.039-1.815c-7.826-14.098-6.701-28.482,7.471-22.216
			c12.029,5.32,23.52,20.244,28.139,30.838c2.143,4.912,7.883,24.186-10.604,16.375l-0.033-0.113
			c17.459,7.193,14.441-11.032,5.092-25.008c-5.287-7.908-12.182-14.496-16.533-17.674c-14.479-10.586-23.314-4.11-13.146,16.647
			c0.461,0.939,0.938,1.834,1.434,2.693L38.871,52.047z"/>
		<path class="st1" d="M18.965,88.675l-0.078,1.411C51.109,59.365,97.9,44.024,106.639,16.212
			C92.135,44.819,48.346,58.679,18.965,88.675"/>
		<g>
			<path class="st2" d="M39.654,51.783c-0.002-0.002-0.004-0.006-0.004-0.009l-0.779,0.272c0,0.002,0.002,0.004,0.004,0.005
				C39.135,51.962,39.393,51.873,39.654,51.783z"/>
			<path class="st2" d="M49.045,64.62c-2.236-2.894-4.895-5.911-7.4-9.642c-0.289,0.07-0.574,0.14-0.859,0.209
				c2.408,3.784,4.807,6.927,7.293,9.924c0,0,4.723,7.706,6.674,5.958C56.48,69.521,51.568,67.885,49.045,64.62z"/>
		</g>
	</g>
</g>
</svg>
