<?xml version="1.0" encoding="utf-8"?>
<!-- Generator: Adobe Illustrator 16.0.4, SVG Export Plug-In . SVG Version: 6.00 Build 0)  -->
<!DOCTYPE svg PUBLIC "-//W3C//DTD SVG 1.1//EN" "http://www.w3.org/Graphics/SVG/1.1/DTD/svg11.dtd">
<svg version="1.1" xmlns="http://www.w3.org/2000/svg" xmlns:xlink="http://www.w3.org/1999/xlink" x="0px" y="0px" width="99px"
	 height="82.646px" viewBox="0 0 99 82.646" style="enable-background:new 0 0 99 82.646;" xml:space="preserve">
<style type="text/css">
<![CDATA[
	.st0{display:inline;fill:#E5E5E7;}
	.st1{display:inline;fill:#4D4D5E;}
	.st2{clip-path:url(#SVGID_2_);fill:url(#SVGID_3_);}
	.st3{display:inline;fill:none;stroke:#231F20;stroke-miterlimit:10;}
	.st4{fill:none;stroke:#FFFFFF;stroke-width:0.647;}
	.st5{display:inline;fill:#EE3E42;}
	.st6{display:inline;fill:#EF3E42;}
	.st7{display:inline;fill:none;stroke:#FCD9D7;stroke-miterlimit:10;}
	.st8{fill:#EE3E42;}
	.st9{display:inline;fill:none;stroke:#FBCCE8;stroke-miterlimit:10;}
	.st10{display:inline;fill:#FFFFFF;}
	.st11{display:inline;fill:none;stroke:#9999A3;stroke-linecap:round;stroke-linejoin:round;stroke-miterlimit:10;}
	.st12{fill:#FFFFFF;}
	.st13{display:inline;}
	.st14{display:inline;fill:#0066B2;}
	.st15{display:inline;fill:none;}
	.st16{fill:#0066B2;}
	.st17{display:inline;fill:#A5C498;}
	.st18{display:none;}
	.st19{display:inline;fill:none;stroke:#FFFFFF;stroke-width:0.647;}
	.st20{display:inline;fill:none;stroke:#E5E5E7;stroke-miterlimit:10;}
	.st21{display:inline;fill:#E1EBDD;}
]]>
</style>
<g id="guides" class="st18">
	<line class="st9" x1="-924.975" y1="0.323" x2="159.525" y2="0.323"/>
	<line class="st9" x1="-924.975" y1="82.323" x2="159.525" y2="82.323"/>
	<line class="st9" x1="-924.975" y1="142.323" x2="159.525" y2="142.323"/>
	<line class="st9" x1="-924.975" y1="708.323" x2="159.525" y2="708.323"/>
	<line class="st9" x1="-864.975" y1="-59.677" x2="-864.975" y2="768.823"/>
	<line class="st9" x1="-782.975" y1="-59.677" x2="-782.975" y2="768.823"/>
	<line class="st9" x1="99.025" y1="-59.677" x2="99.025" y2="768.823"/>
	<rect x="-894.975" y="-29.677" class="st7" width="1024" height="768"/>
	<line class="st9" x1="-667.975" y1="-59.677" x2="-667.975" y2="768.823"/>
	<line class="st9" x1="-470.975" y1="-59.677" x2="-470.975" y2="768.823"/>
	<line class="st9" x1="-76.975" y1="-59.677" x2="-76.975" y2="768.823"/>
	<line class="st9" x1="-273.975" y1="-59.677" x2="-273.975" y2="768.823"/>
	<line class="st9" x1="-682.975" y1="-59.677" x2="-682.975" y2="768.823"/>
	<line class="st9" x1="-485.975" y1="-59.677" x2="-485.975" y2="768.823"/>
	<line class="st9" x1="-91.975" y1="-59.677" x2="-91.975" y2="768.823"/>
	<line class="st9" x1="-288.975" y1="-59.677" x2="-288.975" y2="768.823"/>
</g>
<g id="Layer_1" class="st18">
	<rect x="-894.975" y="-29.677" class="st1" width="112" height="768.5"/>
	<path class="st14" d="M-14.486,1704.275c0,78.039-64.229,142.268-142.257,142.268c-78.05,0-142.268-64.229-142.268-142.268
		c0-78.034,64.218-142.257,142.268-142.257C-78.715,1562.019-14.486,1626.241-14.486,1704.275"/>
	<path class="st19" d="M-14.486,1704.275c0,78.039-64.229,142.268-142.257,142.268c-78.05,0-142.268-64.229-142.268-142.268
		c0-78.034,64.218-142.257,142.268-142.257C-78.715,1562.019-14.486,1626.241-14.486,1704.275z"/>
	<path class="st10" d="M-154.784,1574.943c0,0.636-0.521,1.157-1.157,1.157s-1.167-0.521-1.167-1.157
		c0-0.642,0.531-1.157,1.167-1.157S-154.784,1574.302-154.784,1574.943"/>
	<path class="st10" d="M-146.758,1592.501c0,0.787-0.657,1.423-1.438,1.423c-0.782,0-1.428-0.636-1.428-1.423
		s0.646-1.434,1.428-1.434C-147.415,1591.067-146.758,1591.714-146.758,1592.501"/>
	<path class="st10" d="M-125.911,1621.207c0,0.776-0.646,1.417-1.407,1.417c-0.803,0-1.449-0.641-1.449-1.417
		c0-0.787,0.646-1.434,1.449-1.434C-126.558,1619.773-125.911,1620.42-125.911,1621.207"/>
	<path class="st10" d="M-159.433,1602.393c0,0.642-0.511,1.173-1.146,1.173c-0.637,0-1.157-0.531-1.157-1.173
		c0-0.636,0.521-1.157,1.157-1.157C-159.943,1601.235-159.433,1601.757-159.433,1602.393"/>
	<path class="st10" d="M-146.946,1608.996c0,0.636-0.51,1.157-1.146,1.157c-0.636,0-1.156-0.521-1.156-1.157
		s0.521-1.157,1.156-1.157C-147.456,1607.839-146.946,1608.36-146.946,1608.996"/>
	<path class="st10" d="M-163.175,1590.536c0,0.782-0.646,1.428-1.418,1.428c-0.792,0-1.428-0.646-1.428-1.428
		c0-0.781,0.636-1.423,1.428-1.423C-163.821,1589.113-163.175,1589.755-163.175,1590.536"/>
	<path class="st10" d="M-182.062,1602.033c0,0.636-0.511,1.157-1.157,1.157c-0.636,0-1.167-0.521-1.167-1.157
		s0.531-1.157,1.167-1.157C-182.572,1600.876-182.062,1601.397-182.062,1602.033"/>
	<path class="st10" d="M-178.675,1604.357c0,0.636-0.521,1.157-1.156,1.157s-1.157-0.521-1.157-1.157s0.521-1.162,1.157-1.162
		S-178.675,1603.722-178.675,1604.357"/>
	<path class="st10" d="M-175.297,1606.672c0,0.636-0.521,1.162-1.157,1.162s-1.146-0.526-1.146-1.162
		c0-0.631,0.511-1.157,1.146-1.157S-175.297,1606.041-175.297,1606.672"/>
	<path class="st10" d="M-180.457,1611.133c0,0.636-0.531,1.157-1.157,1.157c-0.635,0-1.167-0.521-1.167-1.157
		s0.532-1.157,1.167-1.157C-180.988,1609.976-180.457,1610.497-180.457,1611.133"/>
	<path class="st10" d="M-207.38,1630.03c0,0.636-0.521,1.156-1.157,1.156s-1.157-0.521-1.157-1.156s0.521-1.157,1.157-1.157
		S-207.38,1629.395-207.38,1630.03"/>
	<path class="st10" d="M-202.388,1636.086c0,0.636-0.521,1.157-1.156,1.157c-0.637,0-1.168-0.521-1.168-1.157
		s0.531-1.157,1.168-1.157C-202.908,1634.929-202.388,1635.45-202.388,1636.086"/>
	<path class="st10" d="M-206.307,1733.961c0,0.636-0.521,1.157-1.167,1.157c-0.626,0-1.157-0.521-1.157-1.157
		c0-0.642,0.531-1.157,1.157-1.157C-206.827,1732.804-206.307,1733.319-206.307,1733.961"/>
	<path class="st10" d="M-205.598,1760.968c0,0.781-0.646,1.428-1.428,1.428c-0.771,0-1.418-0.646-1.418-1.428
		c0-0.782,0.646-1.418,1.418-1.418C-206.244,1759.55-205.598,1760.186-205.598,1760.968"/>
	<path class="st10" d="M-220.92,1774.789c0,0.63-0.542,1.157-1.178,1.157c-0.615,0-1.146-0.527-1.146-1.157
		c0-0.646,0.531-1.162,1.146-1.162C-221.462,1773.627-220.92,1774.143-220.92,1774.789"/>
	<path class="st10" d="M-239.296,1780.396c0,0.782-0.636,1.428-1.418,1.428c-0.792,0-1.428-0.646-1.428-1.428
		s0.636-1.423,1.428-1.423C-239.932,1778.974-239.296,1779.614-239.296,1780.396"/>
	<path class="st10" d="M-243.038,1767.92c0,0.782-0.636,1.423-1.418,1.423c-0.792,0-1.428-0.641-1.428-1.423
		s0.636-1.428,1.428-1.428C-243.674,1766.492-243.038,1767.138-243.038,1767.92"/>
	<path class="st10" d="M-245.175,1775.853c0,0.635-0.521,1.156-1.157,1.156s-1.157-0.521-1.157-1.156
		c0-0.637,0.521-1.157,1.157-1.157S-245.175,1775.216-245.175,1775.853"/>
	<path class="st10" d="M-258.892,1769.259c0,0.631-0.532,1.162-1.178,1.162c-0.637,0-1.157-0.531-1.157-1.162
		c0-0.635,0.521-1.162,1.157-1.162C-259.424,1768.097-258.892,1768.624-258.892,1769.259"/>
	<path class="st10" d="M-210.944,1791.544c0,0.631-0.521,1.152-1.146,1.152c-0.637,0-1.168-0.521-1.168-1.152
		c0-0.641,0.531-1.162,1.168-1.162C-211.466,1790.382-210.944,1790.903-210.944,1791.544"/>
	<path class="st10" d="M-196.509,1780.929c0,0.786-0.636,1.433-1.428,1.433c-0.771,0-1.418-0.646-1.418-1.433
		c0-0.782,0.646-1.424,1.418-1.424C-197.145,1779.505-196.509,1780.146-196.509,1780.929"/>
	<path class="st10" d="M-194.903,1794.572c0,0.636-0.521,1.157-1.157,1.157s-1.167-0.521-1.167-1.157s0.531-1.157,1.167-1.157
		S-194.903,1793.937-194.903,1794.572"/>
	<path class="st10" d="M-135.532,1781.554c0,0.646-0.521,1.167-1.157,1.167s-1.157-0.521-1.157-1.167
		c0-0.636,0.521-1.157,1.157-1.157S-135.532,1780.918-135.532,1781.554"/>
	<path class="st10" d="M-163.175,1791.362c0,0.636-0.531,1.156-1.157,1.156c-0.636,0-1.157-0.521-1.157-1.156
		c0-0.637,0.521-1.157,1.157-1.157C-163.706,1790.205-163.175,1790.726-163.175,1791.362"/>
	<path class="st10" d="M-88.836,1805.444c0,0.635-0.511,1.156-1.157,1.156c-0.636,0-1.156-0.521-1.156-1.156
		c0-0.637,0.521-1.157,1.156-1.157C-89.347,1804.287-88.836,1804.808-88.836,1805.444"/>
	<path class="st10" d="M-82.759,1750.628c0,0.781-0.657,1.428-1.438,1.428c-0.782,0-1.429-0.646-1.429-1.428
		c0-0.782,0.646-1.423,1.429-1.423C-83.416,1749.205-82.759,1749.846-82.759,1750.628"/>
	<path class="st10" d="M-94.173,1758.383c0,0.636-0.521,1.167-1.156,1.167c-0.637,0-1.168-0.531-1.168-1.167
		s0.531-1.162,1.168-1.162C-94.694,1757.221-94.173,1757.747-94.173,1758.383"/>
	<path class="st10" d="M-82.946,1760.613c0,0.776-0.637,1.423-1.429,1.423c-0.771,0-1.417-0.646-1.417-1.423
		c0-0.787,0.646-1.428,1.417-1.428C-83.583,1759.186-82.946,1759.826-82.946,1760.613"/>
	<path class="st10" d="M-94.173,1774.429c0,0.631-0.521,1.157-1.156,1.157c-0.637,0-1.168-0.526-1.168-1.157
		c0-0.635,0.531-1.151,1.168-1.151C-94.694,1773.277-94.173,1773.794-94.173,1774.429"/>
	<path class="st10" d="M-65.123,1742.873c0,0.63-0.511,1.157-1.157,1.157c-0.636,0-1.156-0.527-1.156-1.157
		c0-0.636,0.521-1.157,1.156-1.157C-65.634,1741.716-65.123,1742.237-65.123,1742.873"/>
	<path class="st10" d="M-62.267,1749.913c0,0.777-0.637,1.434-1.428,1.434c-0.771,0-1.418-0.656-1.418-1.434
		c0-0.775,0.646-1.422,1.418-1.422C-62.903,1748.491-62.267,1749.138-62.267,1749.913"/>
	<path class="st10" d="M-42.296,1758.294c0,0.787-0.646,1.423-1.438,1.423c-0.771,0-1.407-0.636-1.407-1.423
		c0-0.781,0.636-1.428,1.407-1.428C-42.942,1756.866-42.296,1757.513-42.296,1758.294"/>
	<path class="st10" d="M-62.621,1773.184c0,0.631-0.532,1.157-1.157,1.157c-0.636,0-1.168-0.526-1.168-1.157
		c0-0.636,0.532-1.162,1.168-1.162C-63.153,1772.021-62.621,1772.548-62.621,1773.184"/>
	<path class="st10" d="M-49.79,1761.056c0,0.637-0.531,1.162-1.146,1.162c-0.646,0-1.157-0.525-1.157-1.162
		c0-0.641,0.511-1.156,1.157-1.156C-50.321,1759.899-49.79,1760.415-49.79,1761.056"/>
	<path class="st10" d="M-52.094,1779.771c0,0.636-0.532,1.157-1.157,1.157c-0.646,0-1.167-0.521-1.167-1.157
		s0.521-1.157,1.167-1.157C-52.626,1778.614-52.094,1779.136-52.094,1779.771"/>
	<path class="st10" d="M-129.81,1589.202c0.188-0.729,0.771-1.298,1.501-1.459l0.417-3.055l0.604,3.08
		c0.708,0.203,1.261,0.793,1.438,1.517l3.074,0.443l-3.105,0.547c-0.198,0.709-0.782,1.257-1.491,1.434l-0.521,3.138l-0.521-3.164
		c-0.698-0.203-1.251-0.761-1.418-1.47l-2.98-0.484L-129.81,1589.202z"/>
	<path class="st10" d="M-209.757,1807.883c0.198-0.725,0.793-1.292,1.532-1.459l0.407-3.049l0.604,3.085
		c0.709,0.193,1.262,0.787,1.418,1.506l3.096,0.448l-3.116,0.548c-0.208,0.703-0.761,1.256-1.47,1.433l-0.531,3.138l-0.521-3.158
		c-0.709-0.209-1.251-0.771-1.428-1.48l-2.961-0.479L-209.757,1807.883z"/>
	<path class="st10" d="M-62.757,1779.688c0.198-0.724,0.792-1.292,1.532-1.454l0.386-3.054l0.604,3.08
		c0.72,0.203,1.261,0.792,1.438,1.521l3.085,0.438l-3.127,0.547c-0.188,0.703-0.771,1.256-1.47,1.434l-0.531,3.137l-0.521-3.168
		c-0.698-0.198-1.229-0.762-1.417-1.465l-2.981-0.484L-62.757,1779.688z"/>
	<path class="st10" d="M-51.104,1748.251c0.177-0.734,0.771-1.292,1.501-1.465l0.417-3.049l0.594,3.08
		c0.72,0.204,1.262,0.787,1.418,1.527l3.106,0.433l-3.127,0.548c-0.198,0.698-0.762,1.256-1.471,1.428l-0.521,3.143l-0.542-3.164
		c-0.688-0.197-1.24-0.761-1.396-1.469l-2.981-0.485L-51.104,1748.251z"/>
	<path class="st10" d="M-195.487,1632.109c0.198-0.729,0.782-1.298,1.512-1.454l0.406-3.054l0.615,3.075
		c0.719,0.208,1.262,0.787,1.418,1.521l3.096,0.438l-3.106,0.553c-0.209,0.703-0.771,1.251-1.501,1.428l-0.521,3.138l-0.521-3.169
		c-0.688-0.198-1.24-0.756-1.406-1.459l-2.981-0.49L-195.487,1632.109z"/>
	<path class="st10" d="M-61.548,1710.899l-7.358-18.643l-5.39,18.643H-61.548z M-79.81,1678.624h26.402l18.22,45.914l6.077,6.104
		h-33.104l6.077-6.104l-2.158-5.598h-18.271l-1.887,6.4l4.346,5.301h-17.271l6.076-6.104l11.727-40.599L-79.81,1678.624z"/>
	<path class="st5" d="M-80.539,1652.94c-7.536,3.346-15.249,6.566-23.087,9.673c-72.984,28.987-161.613,50.517-212.406,83.871
		l3.68,1.276c55.681-33.917,154.139-38.962,234.701-75.84c43.485-19.897,81.771-49.052,105.307-97.02
		C4.891,1607.589-34.687,1632.589-80.539,1652.94z"/>
	<rect x="115.862" y="1473.014" class="st17" width="445.377" height="449.744"/>
	<path class="st17" d="M484.514,1704.275c0,78.039-64.229,142.268-142.257,142.268c-78.05,0-142.268-64.229-142.268-142.268
		c0-78.034,64.218-142.257,142.268-142.257C420.285,1562.019,484.514,1626.241,484.514,1704.275"/>
	<path class="st19" d="M484.514,1704.275c0,78.039-64.229,142.268-142.257,142.268c-78.05,0-142.268-64.229-142.268-142.268
		c0-78.034,64.218-142.257,142.268-142.257C420.285,1562.019,484.514,1626.241,484.514,1704.275z"/>
	<path class="st10" d="M344.216,1574.943c0,0.636-0.521,1.157-1.157,1.157s-1.167-0.521-1.167-1.157
		c0-0.642,0.531-1.157,1.167-1.157S344.216,1574.302,344.216,1574.943"/>
	<path class="st10" d="M352.242,1592.501c0,0.787-0.657,1.423-1.438,1.423c-0.782,0-1.428-0.636-1.428-1.423
		s0.646-1.434,1.428-1.434C351.585,1591.067,352.242,1591.714,352.242,1592.501"/>
	<path class="st10" d="M373.089,1621.207c0,0.776-0.646,1.417-1.407,1.417c-0.803,0-1.449-0.641-1.449-1.417
		c0-0.787,0.646-1.434,1.449-1.434C372.442,1619.773,373.089,1620.42,373.089,1621.207"/>
	<path class="st10" d="M339.567,1602.393c0,0.642-0.511,1.173-1.146,1.173c-0.637,0-1.157-0.531-1.157-1.173
		c0-0.636,0.521-1.157,1.157-1.157C339.057,1601.235,339.567,1601.757,339.567,1602.393"/>
	<path class="st10" d="M352.054,1608.996c0,0.636-0.51,1.157-1.146,1.157c-0.636,0-1.156-0.521-1.156-1.157s0.521-1.157,1.156-1.157
		C351.544,1607.839,352.054,1608.36,352.054,1608.996"/>
	<path class="st10" d="M335.825,1590.536c0,0.782-0.646,1.428-1.418,1.428c-0.792,0-1.428-0.646-1.428-1.428
		c0-0.781,0.636-1.423,1.428-1.423C335.179,1589.113,335.825,1589.755,335.825,1590.536"/>
	<path class="st10" d="M316.938,1602.033c0,0.636-0.511,1.157-1.157,1.157c-0.636,0-1.167-0.521-1.167-1.157
		s0.531-1.157,1.167-1.157C316.428,1600.876,316.938,1601.397,316.938,1602.033"/>
	<path class="st10" d="M320.325,1604.357c0,0.636-0.521,1.157-1.156,1.157s-1.157-0.521-1.157-1.157s0.521-1.162,1.157-1.162
		S320.325,1603.722,320.325,1604.357"/>
	<path class="st10" d="M323.703,1606.672c0,0.636-0.521,1.162-1.157,1.162s-1.146-0.526-1.146-1.162
		c0-0.631,0.511-1.157,1.146-1.157S323.703,1606.041,323.703,1606.672"/>
	<path class="st10" d="M318.543,1611.133c0,0.636-0.531,1.157-1.157,1.157c-0.635,0-1.167-0.521-1.167-1.157
		s0.532-1.157,1.167-1.157C318.012,1609.976,318.543,1610.497,318.543,1611.133"/>
	<path class="st10" d="M291.62,1630.03c0,0.636-0.521,1.156-1.157,1.156s-1.157-0.521-1.157-1.156s0.521-1.157,1.157-1.157
		S291.62,1629.395,291.62,1630.03"/>
	<path class="st10" d="M296.612,1636.086c0,0.636-0.521,1.157-1.156,1.157c-0.637,0-1.168-0.521-1.168-1.157
		s0.531-1.157,1.168-1.157C296.092,1634.929,296.612,1635.45,296.612,1636.086"/>
	<path class="st10" d="M292.693,1733.961c0,0.636-0.521,1.157-1.167,1.157c-0.626,0-1.157-0.521-1.157-1.157
		c0-0.642,0.531-1.157,1.157-1.157C292.173,1732.804,292.693,1733.319,292.693,1733.961"/>
	<path class="st10" d="M293.402,1760.968c0,0.781-0.646,1.428-1.428,1.428c-0.771,0-1.418-0.646-1.418-1.428
		c0-0.782,0.646-1.418,1.418-1.418C292.756,1759.55,293.402,1760.186,293.402,1760.968"/>
	<path class="st10" d="M278.08,1774.789c0,0.63-0.542,1.157-1.178,1.157c-0.615,0-1.146-0.527-1.146-1.157
		c0-0.646,0.531-1.162,1.146-1.162C277.538,1773.627,278.08,1774.143,278.08,1774.789"/>
	<path class="st10" d="M259.704,1780.396c0,0.782-0.636,1.428-1.418,1.428c-0.792,0-1.428-0.646-1.428-1.428
		s0.636-1.423,1.428-1.423C259.068,1778.974,259.704,1779.614,259.704,1780.396"/>
	<path class="st10" d="M255.962,1767.92c0,0.782-0.636,1.423-1.418,1.423c-0.792,0-1.428-0.641-1.428-1.423s0.636-1.428,1.428-1.428
		C255.326,1766.492,255.962,1767.138,255.962,1767.92"/>
	<path class="st10" d="M253.825,1775.853c0,0.635-0.521,1.156-1.157,1.156s-1.157-0.521-1.157-1.156
		c0-0.637,0.521-1.157,1.157-1.157S253.825,1775.216,253.825,1775.853"/>
	<path class="st10" d="M240.108,1769.259c0,0.631-0.532,1.162-1.178,1.162c-0.637,0-1.157-0.531-1.157-1.162
		c0-0.635,0.521-1.162,1.157-1.162C239.576,1768.097,240.108,1768.624,240.108,1769.259"/>
	<path class="st10" d="M288.056,1791.544c0,0.631-0.521,1.152-1.146,1.152c-0.637,0-1.168-0.521-1.168-1.152
		c0-0.641,0.531-1.162,1.168-1.162C287.534,1790.382,288.056,1790.903,288.056,1791.544"/>
	<path class="st10" d="M302.491,1780.929c0,0.786-0.636,1.433-1.428,1.433c-0.771,0-1.418-0.646-1.418-1.433
		c0-0.782,0.646-1.424,1.418-1.424C301.855,1779.505,302.491,1780.146,302.491,1780.929"/>
	<path class="st10" d="M304.097,1794.572c0,0.636-0.521,1.157-1.157,1.157s-1.167-0.521-1.167-1.157s0.531-1.157,1.167-1.157
		S304.097,1793.937,304.097,1794.572"/>
	<path class="st10" d="M363.468,1781.554c0,0.646-0.521,1.167-1.157,1.167s-1.157-0.521-1.157-1.167
		c0-0.636,0.521-1.157,1.157-1.157S363.468,1780.918,363.468,1781.554"/>
	<path class="st10" d="M335.825,1791.362c0,0.636-0.531,1.156-1.157,1.156c-0.636,0-1.157-0.521-1.157-1.156
		c0-0.637,0.521-1.157,1.157-1.157C335.294,1790.205,335.825,1790.726,335.825,1791.362"/>
	<path class="st10" d="M410.164,1805.444c0,0.635-0.511,1.156-1.157,1.156c-0.636,0-1.156-0.521-1.156-1.156
		c0-0.637,0.521-1.157,1.156-1.157C409.653,1804.287,410.164,1804.808,410.164,1805.444"/>
	<path class="st10" d="M416.241,1750.628c0,0.781-0.657,1.428-1.438,1.428c-0.782,0-1.429-0.646-1.429-1.428
		c0-0.782,0.646-1.423,1.429-1.423C415.584,1749.205,416.241,1749.846,416.241,1750.628"/>
	<path class="st10" d="M404.827,1758.383c0,0.636-0.521,1.167-1.156,1.167c-0.637,0-1.168-0.531-1.168-1.167
		s0.531-1.162,1.168-1.162C404.306,1757.221,404.827,1757.747,404.827,1758.383"/>
	<path class="st10" d="M416.054,1760.613c0,0.776-0.637,1.423-1.429,1.423c-0.771,0-1.417-0.646-1.417-1.423
		c0-0.787,0.646-1.428,1.417-1.428C415.417,1759.186,416.054,1759.826,416.054,1760.613"/>
	<path class="st10" d="M404.827,1774.429c0,0.631-0.521,1.157-1.156,1.157c-0.637,0-1.168-0.526-1.168-1.157
		c0-0.635,0.531-1.151,1.168-1.151C404.306,1773.277,404.827,1773.794,404.827,1774.429"/>
	<path class="st10" d="M433.877,1742.873c0,0.63-0.511,1.157-1.157,1.157c-0.636,0-1.156-0.527-1.156-1.157
		c0-0.636,0.521-1.157,1.156-1.157C433.366,1741.716,433.877,1742.237,433.877,1742.873"/>
	<path class="st10" d="M436.733,1749.913c0,0.777-0.637,1.434-1.428,1.434c-0.771,0-1.418-0.656-1.418-1.434
		c0-0.775,0.646-1.422,1.418-1.422C436.097,1748.491,436.733,1749.138,436.733,1749.913"/>
	<path class="st10" d="M456.704,1758.294c0,0.787-0.646,1.423-1.438,1.423c-0.771,0-1.407-0.636-1.407-1.423
		c0-0.781,0.636-1.428,1.407-1.428C456.058,1756.866,456.704,1757.513,456.704,1758.294"/>
	<path class="st10" d="M436.379,1773.184c0,0.631-0.532,1.157-1.157,1.157c-0.636,0-1.168-0.526-1.168-1.157
		c0-0.636,0.532-1.162,1.168-1.162C435.847,1772.021,436.379,1772.548,436.379,1773.184"/>
	<path class="st10" d="M449.21,1761.056c0,0.637-0.531,1.162-1.146,1.162c-0.646,0-1.157-0.525-1.157-1.162
		c0-0.641,0.511-1.156,1.157-1.156C448.679,1759.899,449.21,1760.415,449.21,1761.056"/>
	<path class="st10" d="M446.906,1779.771c0,0.636-0.532,1.157-1.157,1.157c-0.646,0-1.167-0.521-1.167-1.157
		s0.521-1.157,1.167-1.157C446.374,1778.614,446.906,1779.136,446.906,1779.771"/>
	<path class="st10" d="M369.19,1589.202c0.188-0.729,0.771-1.298,1.501-1.459l0.417-3.055l0.604,3.08
		c0.708,0.203,1.261,0.793,1.438,1.517l3.074,0.443l-3.105,0.547c-0.198,0.709-0.782,1.257-1.491,1.434l-0.521,3.138l-0.521-3.164
		c-0.698-0.203-1.251-0.761-1.418-1.47l-2.98-0.484L369.19,1589.202z"/>
	<path class="st10" d="M289.243,1807.883c0.198-0.725,0.793-1.292,1.532-1.459l0.407-3.049l0.604,3.085
		c0.709,0.193,1.262,0.787,1.418,1.506l3.096,0.448l-3.116,0.548c-0.208,0.703-0.761,1.256-1.47,1.433l-0.531,3.138l-0.521-3.158
		c-0.709-0.209-1.251-0.771-1.428-1.48l-2.961-0.479L289.243,1807.883z"/>
	<path class="st10" d="M436.243,1779.688c0.198-0.724,0.792-1.292,1.532-1.454l0.386-3.054l0.604,3.08
		c0.72,0.203,1.261,0.792,1.438,1.521l3.085,0.438l-3.127,0.547c-0.188,0.703-0.771,1.256-1.47,1.434l-0.531,3.137l-0.521-3.168
		c-0.698-0.198-1.229-0.762-1.417-1.465l-2.981-0.484L436.243,1779.688z"/>
	<path class="st10" d="M447.896,1748.251c0.177-0.734,0.771-1.292,1.501-1.465l0.417-3.049l0.594,3.08
		c0.72,0.204,1.262,0.787,1.418,1.527l3.106,0.433l-3.127,0.548c-0.198,0.698-0.762,1.256-1.471,1.428l-0.521,3.143l-0.542-3.164
		c-0.688-0.197-1.24-0.761-1.396-1.469l-2.981-0.485L447.896,1748.251z"/>
	<path class="st10" d="M303.513,1632.109c0.198-0.729,0.782-1.298,1.512-1.454l0.406-3.054l0.615,3.075
		c0.719,0.208,1.262,0.787,1.418,1.521l3.096,0.438l-3.106,0.553c-0.209,0.703-0.771,1.251-1.501,1.428l-0.521,3.138l-0.521-3.169
		c-0.688-0.198-1.24-0.756-1.406-1.459l-2.981-0.49L303.513,1632.109z"/>
	<path class="st10" d="M294.101,1698.292c10.496,18.366,22.744,31.807,32.614,44.57c8.756,11.33,25.819,17.006,19.815,22.384
		c-6.775,6.062-23.172-20.675-23.172-20.675c-10.902-13.148-21.336-27.09-31.968-45.336L294.101,1698.292z"/>
	<path class="st21" d="M421.349,1671.921c-80.562,36.878-179.021,41.923-234.701,75.84l-3.68-1.276
		c50.793-33.354,139.422-54.884,212.406-83.871c7.838-3.106,15.551-6.327,23.087-9.673"/>
	<path class="st10" d="M318.335,1710.899l-7.349-18.643l-5.399,18.643H318.335z M301.032,1678.624h25.433l18.22,45.914l6.098,6.104
		h-33.114l6.077-6.104l-2.169-5.598h-18.261l-1.887,6.4l4.356,5.301h-17.271l6.066-6.104l11.737-40.599L301.032,1678.624z"/>
	<path class="st10" d="M437.452,1710.899l-7.358-18.643l-5.39,18.643H437.452z M419.19,1678.624h26.402l18.22,45.914l6.077,6.104
		h-33.104l6.077-6.104l-2.158-5.598h-18.271l-1.887,6.4l4.346,5.301h-17.271l6.076-6.104l11.727-40.599L419.19,1678.624z"/>
	<polygon class="st10" points="266.531,1711.019 266.531,1683.939 261.236,1678.624 278.841,1678.624 273.557,1683.939 
		273.557,1724.538 279.633,1730.636 256.524,1730.636 236.616,1696.953 236.616,1724.538 241.734,1730.636 223.337,1730.636 
		229.414,1724.538 229.414,1683.939 224.14,1678.624 247.154,1678.624 	"/>
	<path class="st10" d="M399.741,1691.96l-0.553-16.192l-5.441,3.763c-7.692-2.684-16.625-2.585-22.889,0.386
		c-5.838,2.763-12.144,8.599-11.362,16.881c0.751,8.286,7.183,11.502,12.967,14.118c7.463,3.377,15.562,4.529,15.447,8.984
		c-0.083,2.836-4.794,4.879-8.453,4.748c-3.346-0.099-14.207-0.912-19.888-7.666l1.074,17.042l6.056-4.451
		c7.38,2.606,16.312,3.695,24.599,1.006c8.203-2.679,16.834-9.553,12.049-21.57c-2.063-5.181-7.754-8.37-11.132-9.751
		c-3.105-1.277-12.57-4.998-15.218-6.363c-3.096-1.616-2.752-6.724,4.68-7.756C388.421,1684.194,397.739,1689.589,399.741,1691.96"
		/>
	<rect x="115.862" y="1473.014" class="st15" width="445.377" height="449.744"/>
	<g class="st13">
		<defs>
			<path id="SVGID_1_" d="M222.295,1826.332l-0.271,4.894c111.863-106.594,274.3-159.825,304.632-256.329
				C476.3,1674.162,324.286,1722.25,222.295,1826.332"/>
		</defs>
		<clipPath id="SVGID_2_">
			<use xlink:href="#SVGID_1_"  style="overflow:visible;"/>
		</clipPath>
		
			<linearGradient id="SVGID_3_" gradientUnits="userSpaceOnUse" x1="-850.5415" y1="2053.8281" x2="-845.2046" y2="2053.8281" gradientTransform="matrix(57.082 0 0 -57.082 48772.6094 118939.6016)">
			<stop  offset="0" style="stop-color:#E1EBDD"/>
			<stop  offset="0.6" style="stop-color:#E1EBDD"/>
			<stop  offset="0.9045" style="stop-color:#A5C498"/>
			<stop  offset="1" style="stop-color:#A5C498"/>
		</linearGradient>
		<rect x="222.023" y="1574.901" class="st2" width="304.632" height="256.324"/>
	</g>
	<path class="st10" d="M291.391,1699.235c-1.209-2.043-2.407-4.143-3.606-6.295c-27.174-48.917-23.265-98.829,25.943-77.086
		c41.756,18.46,81.646,70.242,97.688,107.006c7.432,17.042,27.361,83.918-36.815,56.817l-0.114-0.392
		c60.611,24.959,50.136-38.279,17.678-86.773c-18.355-27.439-42.298-50.298-57.401-61.326
		c-50.261-36.731-80.937-14.264-45.644,57.762c1.605,3.257,3.263,6.363,4.982,9.344L291.391,1699.235z"/>
	<path class="st21" d="M418.461,1652.94c45.853-20.352,85.43-45.352,108.194-78.039c-23.536,47.968-61.821,77.122-105.307,97.02"/>
	<rect x="115.862" y="1473.014" class="st15" width="445.377" height="449.744"/>
	<path class="st10" d="M-180.665,1710.899l-7.349-18.643l-5.399,18.643H-180.665z M-197.968,1678.624h25.433l18.22,45.914
		l6.098,6.104h-33.114l6.077-6.104l-2.169-5.598h-18.261l-1.887,6.4l4.356,5.301h-17.271l6.066-6.104l11.737-40.599
		L-197.968,1678.624z"/>
	<polygon class="st10" points="-232.469,1711.019 -232.469,1683.939 -237.764,1678.624 -220.159,1678.624 -225.443,1683.939 
		-225.443,1724.538 -219.367,1730.636 -242.476,1730.636 -262.384,1696.953 -262.384,1724.538 -257.266,1730.636 -275.663,1730.636 
		-269.586,1724.538 -269.586,1683.939 -274.86,1678.624 -251.846,1678.624 	"/>
	<path class="st10" d="M-99.259,1691.96l-0.553-16.192l-5.441,3.763c-7.692-2.684-16.625-2.585-22.889,0.386
		c-5.838,2.763-12.144,8.599-11.362,16.881c0.751,8.286,7.183,11.502,12.967,14.118c7.463,3.377,15.562,4.529,15.447,8.984
		c-0.083,2.836-4.794,4.879-8.453,4.748c-3.346-0.099-14.207-0.912-19.888-7.666l1.074,17.042l6.056-4.451
		c7.38,2.606,16.312,3.695,24.599,1.006c8.203-2.679,16.834-9.553,12.049-21.57c-2.063-5.181-7.754-8.37-11.132-9.751
		c-3.105-1.277-12.57-4.998-15.218-6.363c-3.096-1.616-2.752-6.724,4.68-7.756C-110.579,1684.194-101.261,1689.589-99.259,1691.96"
		/>
	<path class="st10" d="M-207.609,1699.235c-1.209-2.043-2.407-4.143-3.606-6.295c-27.174-48.917-23.265-98.829,25.943-77.086
		c41.756,18.46,81.646,70.242,97.688,107.006c7.432,17.042,27.361,83.918-36.815,56.817l-0.114-0.392
		c60.611,24.959,50.136-38.279,17.678-86.773c-18.355-27.439-42.298-50.298-57.401-61.326
		c-50.261-36.731-80.937-14.264-45.644,57.762c1.605,3.257,3.263,6.363,4.982,9.344L-207.609,1699.235z"/>
	<path class="st5" d="M-276.705,1826.332l-0.271,4.894c111.863-106.594,274.3-159.825,304.632-256.329
		C-22.7,1674.162-174.714,1722.25-276.705,1826.332"/>
	<g class="st13">
		<path class="st12" d="M-204.882,1698.321c-0.006-0.01-0.012-0.02-0.018-0.029l-2.71,0.943c0.004,0.007,0.008,0.013,0.012,0.02
			C-206.692,1698.943-205.79,1698.632-204.882,1698.321z"/>
		<path class="st12" d="M-172.285,1742.862c-7.764-10.039-16.995-20.509-25.691-33.453c-0.997,0.242-1.993,0.483-2.987,0.725
			c8.368,13.131,16.698,24.037,25.322,34.438c0,0,16.396,26.736,23.172,20.675C-146.466,1759.868-163.529,1754.192-172.285,1742.862
			z"/>
	</g>
	<g class="st13">
		<path class="st16" d="M86.881,41.321c0,22.491-18.511,41.002-40.999,41.002c-22.494,0-41.001-18.511-41.001-41.002
			c0-22.489,18.507-40.998,41.001-40.998C68.37,0.323,86.881,18.832,86.881,41.321"/>
		<path class="st4" d="M86.881,41.321c0,22.491-18.511,41.002-40.999,41.002c-22.494,0-41.001-18.511-41.001-41.002
			c0-22.489,18.507-40.998,41.001-40.998C68.37,0.323,86.881,18.832,86.881,41.321z"/>
		<path class="st12" d="M46.446,4.048c0,0.183-0.149,0.333-0.335,0.333c-0.182,0-0.334-0.15-0.334-0.333
			c0-0.185,0.152-0.333,0.334-0.333C46.297,3.715,46.446,3.863,46.446,4.048"/>
		<path class="st12" d="M48.76,9.108c0,0.228-0.189,0.411-0.413,0.411c-0.228,0-0.412-0.183-0.412-0.411
			c0-0.227,0.185-0.413,0.412-0.413C48.57,8.696,48.76,8.882,48.76,9.108"/>
		<path class="st12" d="M54.768,17.382c0,0.223-0.188,0.409-0.406,0.409c-0.231,0-0.418-0.186-0.418-0.409
			c0-0.227,0.187-0.414,0.418-0.414C54.58,16.968,54.768,17.155,54.768,17.382"/>
		<path class="st12" d="M45.106,11.958c0,0.185-0.147,0.339-0.331,0.339c-0.183,0-0.332-0.154-0.332-0.339
			c0-0.182,0.149-0.333,0.332-0.333C44.959,11.626,45.106,11.776,45.106,11.958"/>
		<path class="st12" d="M48.705,13.862c0,0.184-0.146,0.333-0.33,0.333s-0.333-0.15-0.333-0.333c0-0.182,0.149-0.333,0.333-0.333
			S48.705,13.68,48.705,13.862"/>
		<path class="st12" d="M44.028,8.542c0,0.225-0.187,0.412-0.41,0.412c-0.227,0-0.411-0.187-0.411-0.412
			c0-0.225,0.185-0.41,0.411-0.41C43.842,8.132,44.028,8.317,44.028,8.542"/>
		<path class="st12" d="M38.584,11.855c0,0.184-0.146,0.334-0.331,0.334c-0.184,0-0.337-0.15-0.337-0.334
			c0-0.183,0.153-0.333,0.337-0.333C38.438,11.522,38.584,11.672,38.584,11.855"/>
		<path class="st12" d="M39.562,12.526c0,0.183-0.151,0.333-0.333,0.333c-0.186,0-0.334-0.15-0.334-0.333s0.148-0.335,0.334-0.335
			C39.41,12.191,39.562,12.343,39.562,12.526"/>
		<path class="st12" d="M40.535,13.192c0,0.184-0.151,0.335-0.335,0.335c-0.183,0-0.33-0.151-0.33-0.335
			c0-0.182,0.147-0.333,0.33-0.333C40.384,12.859,40.535,13.01,40.535,13.192"/>
		<path class="st12" d="M39.047,14.479c0,0.183-0.152,0.333-0.332,0.333c-0.185,0-0.337-0.15-0.337-0.333
			c0-0.183,0.152-0.333,0.337-0.333C38.895,14.145,39.047,14.295,39.047,14.479"/>
		<path class="st12" d="M31.29,19.925c0,0.184-0.153,0.333-0.336,0.333c-0.184,0-0.332-0.149-0.332-0.333
			c0-0.183,0.148-0.334,0.332-0.334C31.137,19.591,31.29,19.742,31.29,19.925"/>
		<path class="st12" d="M32.728,21.669c0,0.184-0.15,0.333-0.333,0.333c-0.185,0-0.336-0.15-0.336-0.333
			c0-0.183,0.151-0.334,0.336-0.334C32.577,21.335,32.728,21.486,32.728,21.669"/>
		<path class="st12" d="M31.598,49.877c0,0.183-0.15,0.334-0.335,0.334c-0.182,0-0.336-0.151-0.336-0.334
			c0-0.185,0.154-0.334,0.336-0.334C31.447,49.543,31.598,49.692,31.598,49.877"/>
		<path class="st12" d="M31.801,57.66c0,0.226-0.186,0.413-0.41,0.413c-0.224,0-0.409-0.187-0.409-0.413
			c0-0.225,0.186-0.408,0.409-0.408C31.615,57.251,31.801,57.435,31.801,57.66"/>
		<path class="st12" d="M27.387,61.644c0,0.182-0.157,0.334-0.341,0.334c-0.176,0-0.329-0.152-0.329-0.334
			c0-0.186,0.153-0.334,0.329-0.334C27.229,61.309,27.387,61.458,27.387,61.644"/>
		<path class="st12" d="M22.091,63.26c0,0.225-0.185,0.411-0.409,0.411c-0.229,0-0.412-0.186-0.412-0.411
			c0-0.226,0.184-0.41,0.412-0.41C21.906,62.85,22.091,63.035,22.091,63.26"/>
		<path class="st12" d="M21.013,59.664c0,0.226-0.185,0.41-0.41,0.41c-0.228,0-0.41-0.184-0.41-0.41c0-0.225,0.183-0.411,0.41-0.411
			C20.828,59.253,21.013,59.439,21.013,59.664"/>
		<path class="st12" d="M20.396,61.951c0,0.182-0.151,0.333-0.334,0.333c-0.185,0-0.334-0.151-0.334-0.333
			c0-0.184,0.149-0.334,0.334-0.334C20.245,61.617,20.396,61.768,20.396,61.951"/>
		<path class="st12" d="M16.443,60.05c0,0.182-0.154,0.334-0.339,0.334s-0.334-0.152-0.334-0.334c0-0.184,0.149-0.335,0.334-0.335
			S16.443,59.867,16.443,60.05"/>
		<path class="st12" d="M30.261,66.472c0,0.183-0.151,0.333-0.331,0.333c-0.182,0-0.336-0.15-0.336-0.333
			c0-0.183,0.154-0.334,0.336-0.334C30.109,66.138,30.261,66.289,30.261,66.472"/>
		<path class="st12" d="M34.421,63.414c0,0.227-0.183,0.412-0.412,0.412c-0.221,0-0.407-0.186-0.407-0.412
			c0-0.226,0.187-0.41,0.407-0.41C34.238,63.003,34.421,63.188,34.421,63.414"/>
		<path class="st12" d="M34.883,67.346c0,0.183-0.149,0.334-0.332,0.334c-0.185,0-0.336-0.151-0.336-0.334
			c0-0.183,0.151-0.333,0.336-0.333C34.733,67.012,34.883,67.163,34.883,67.346"/>
		<path class="st12" d="M51.995,63.593c0,0.187-0.151,0.336-0.333,0.336c-0.183,0-0.335-0.149-0.335-0.336
			c0-0.183,0.152-0.333,0.335-0.333C51.844,63.26,51.995,63.41,51.995,63.593"/>
		<path class="st12" d="M44.028,66.42c0,0.183-0.153,0.333-0.333,0.333c-0.185,0-0.334-0.15-0.334-0.333
			c0-0.184,0.149-0.333,0.334-0.333C43.875,66.087,44.028,66.236,44.028,66.42"/>
		<path class="st12" d="M65.453,70.479c0,0.182-0.146,0.333-0.333,0.333c-0.185,0-0.334-0.15-0.334-0.333
			c0-0.184,0.149-0.334,0.334-0.334C65.308,70.146,65.453,70.295,65.453,70.479"/>
		<path class="st12" d="M67.205,54.681c0,0.225-0.19,0.412-0.415,0.412c-0.226,0-0.413-0.187-0.413-0.412
			c0-0.225,0.188-0.411,0.413-0.411C67.015,54.27,67.205,54.456,67.205,54.681"/>
		<path class="st12" d="M63.914,56.916c0,0.183-0.148,0.336-0.331,0.336c-0.185,0-0.337-0.153-0.337-0.336
			c0-0.183,0.152-0.334,0.337-0.334C63.766,56.581,63.914,56.733,63.914,56.916"/>
		<path class="st12" d="M67.149,57.559c0,0.224-0.184,0.409-0.412,0.409c-0.222,0-0.405-0.185-0.405-0.409
			c0-0.227,0.184-0.412,0.405-0.412C66.966,57.147,67.149,57.332,67.149,57.559"/>
		<path class="st12" d="M63.914,61.541c0,0.181-0.148,0.333-0.331,0.333c-0.185,0-0.337-0.152-0.337-0.333
			c0-0.184,0.152-0.332,0.337-0.332C63.766,61.209,63.914,61.357,63.914,61.541"/>
		<path class="st12" d="M72.286,52.446c0,0.181-0.146,0.333-0.332,0.333c-0.184,0-0.336-0.152-0.336-0.333
			c0-0.184,0.152-0.333,0.336-0.333C72.14,52.113,72.286,52.262,72.286,52.446"/>
		<path class="st12" d="M73.111,54.475c0,0.225-0.186,0.414-0.414,0.414c-0.222,0-0.407-0.189-0.407-0.414
			c0-0.224,0.186-0.41,0.407-0.41C72.926,54.064,73.111,54.251,73.111,54.475"/>
		<path class="st12" d="M78.865,56.89c0,0.227-0.185,0.409-0.414,0.409c-0.224,0-0.406-0.183-0.406-0.409
			c0-0.226,0.183-0.412,0.406-0.412C78.681,56.479,78.865,56.665,78.865,56.89"/>
		<path class="st12" d="M73.008,61.181c0,0.183-0.152,0.334-0.333,0.334c-0.184,0-0.336-0.151-0.336-0.334
			c0-0.183,0.152-0.334,0.336-0.334C72.855,60.847,73.008,60.998,73.008,61.181"/>
		<path class="st12" d="M76.706,57.686c0,0.184-0.153,0.334-0.33,0.334c-0.187,0-0.334-0.151-0.334-0.334
			c0-0.185,0.147-0.333,0.334-0.333C76.553,57.353,76.706,57.501,76.706,57.686"/>
		<path class="st12" d="M76.042,63.08c0,0.183-0.153,0.333-0.333,0.333c-0.188,0-0.337-0.15-0.337-0.333s0.149-0.334,0.337-0.334
			C75.889,62.746,76.042,62.897,76.042,63.08"/>
		<path class="st12" d="M53.645,8.158c0.053-0.21,0.223-0.374,0.433-0.42l0.12-0.879l0.172,0.887
			c0.206,0.058,0.364,0.228,0.416,0.437l0.887,0.127l-0.896,0.159C54.72,8.671,54.55,8.83,54.348,8.88l-0.15,0.904l-0.149-0.912
			c-0.202-0.058-0.362-0.218-0.41-0.423l-0.859-0.14L53.645,8.158z"/>
		<path class="st12" d="M30.603,71.182c0.059-0.209,0.229-0.373,0.443-0.421l0.116-0.878l0.176,0.889
			c0.204,0.055,0.361,0.227,0.406,0.434l0.893,0.129l-0.898,0.157c-0.059,0.203-0.219,0.363-0.423,0.413l-0.153,0.905l-0.15-0.911
			c-0.202-0.061-0.361-0.222-0.411-0.427l-0.853-0.138L30.603,71.182z"/>
		<path class="st12" d="M72.969,63.056c0.058-0.208,0.229-0.373,0.441-0.42l0.112-0.879l0.173,0.887
			c0.208,0.059,0.364,0.229,0.416,0.439l0.887,0.127L74.1,63.367c-0.057,0.203-0.224,0.362-0.425,0.413l-0.152,0.905l-0.153-0.913
			c-0.199-0.059-0.353-0.22-0.405-0.423l-0.86-0.139L72.969,63.056z"/>
		<path class="st12" d="M76.327,53.996c0.052-0.212,0.224-0.372,0.433-0.422l0.121-0.878l0.17,0.888
			c0.208,0.059,0.364,0.227,0.409,0.44l0.896,0.124l-0.901,0.157c-0.06,0.202-0.22,0.362-0.423,0.413l-0.15,0.906l-0.158-0.912
			c-0.197-0.057-0.354-0.22-0.401-0.423l-0.86-0.14L76.327,53.996z"/>
		<path class="st12" d="M34.717,20.524c0.056-0.21,0.226-0.374,0.435-0.419l0.116-0.88l0.178,0.886
			c0.208,0.06,0.362,0.227,0.409,0.439l0.893,0.126l-0.896,0.16c-0.061,0.202-0.222,0.36-0.433,0.411l-0.15,0.904l-0.149-0.914
			c-0.197-0.057-0.357-0.218-0.405-0.421l-0.86-0.14L34.717,20.524z"/>
		<path class="st12" d="M73.315,43.231l-2.12-5.373l-1.553,5.373H73.315z M68.054,33.93h7.608l5.251,13.232l1.751,1.759h-9.541
			l1.754-1.759l-0.621-1.614H68.99l-0.545,1.845l1.251,1.528H64.72l1.752-1.759l3.379-11.701L68.054,33.93z"/>
		<path class="st8" d="M67.843,26.527c-2.171,0.964-4.393,1.893-6.652,2.788C40.156,37.67,14.614,43.874-0.025,53.487l1.062,0.369
			c16.047-9.775,44.421-11.23,67.64-21.858c12.534-5.734,23.565-14.136,30.35-27.96C92.465,13.457,81.058,20.661,67.843,26.527z"/>
		<path class="st12" d="M38.987,43.231l-2.118-5.373l-1.555,5.373H38.987z M34.001,33.93h7.33l5.251,13.232l1.757,1.759h-9.544
			l1.752-1.759l-0.625-1.614h-5.263l-0.546,1.845l1.258,1.528h-4.978l1.746-1.759l3.384-11.701L34.001,33.93z"/>
		<polygon class="st12" points="24.059,43.265 24.059,35.461 22.53,33.93 27.606,33.93 26.082,35.461 26.082,47.162 27.832,48.919 
			21.174,48.919 15.436,39.212 15.436,47.162 16.911,48.919 11.607,48.919 13.36,47.162 13.36,35.461 11.841,33.93 18.473,33.93 		
			"/>
		<path class="st12" d="M62.447,37.773l-0.158-4.667l-1.567,1.084c-2.217-0.773-4.791-0.745-6.597,0.11
			c-1.684,0.797-3.5,2.479-3.274,4.866c0.215,2.388,2.069,3.314,3.736,4.068c2.15,0.973,4.485,1.305,4.451,2.589
			c-0.023,0.818-1.381,1.406-2.437,1.369c-0.963-0.028-4.094-0.264-5.731-2.209l0.311,4.912l1.745-1.283
			c2.126,0.751,4.702,1.065,7.09,0.29c2.365-0.772,4.851-2.753,3.472-6.217c-0.595-1.493-2.232-2.412-3.208-2.81
			c-0.894-0.368-3.621-1.441-4.384-1.834c-0.894-0.466-0.795-1.938,1.348-2.236C59.186,35.534,61.871,37.089,62.447,37.773"/>
		<path class="st12" d="M31.223,39.87c-0.349-0.589-0.694-1.195-1.038-1.815c-7.831-14.098-6.706-28.482,7.475-22.216
			c12.034,5.32,23.531,20.244,28.153,30.838c2.143,4.912,7.886,24.186-10.61,16.375L55.17,62.94
			c17.468,7.193,14.449-11.032,5.094-25.008c-5.29-7.908-12.188-14.496-16.542-17.674c-14.485-10.586-23.325-4.11-13.152,16.647
			c0.461,0.939,0.938,1.834,1.434,2.693L31.223,39.87z"/>
		<path class="st8" d="M11.308,76.499l-0.078,1.411C43.469,47.188,90.282,31.848,99.025,4.035
			C84.514,32.643,40.702,46.502,11.308,76.499"/>
		<g>
			<path class="st12" d="M32.007,39.606c-0.001-0.002-0.004-0.006-0.004-0.009l-0.78,0.272c0,0.002,0.003,0.004,0.004,0.005
				C31.487,39.785,31.746,39.696,32.007,39.606z"/>
			<path class="st12" d="M41.402,52.443c-2.236-2.894-4.897-5.911-7.404-9.642c-0.289,0.07-0.573,0.14-0.86,0.209
				c2.411,3.784,4.811,6.927,7.298,9.924c0,0,4.725,7.706,6.678,5.958C48.843,57.344,43.927,55.708,41.402,52.443z"/>
		</g>
	</g>
	<g class="st13">
		<path class="st16" d="M-782.976-631.657c0,22.491-18.511,41.002-40.999,41.002c-22.494,0-41.001-18.511-41.001-41.002
			c0-22.489,18.507-40.998,41.001-40.998C-801.486-672.655-782.976-654.146-782.976-631.657"/>
		<path class="st4" d="M-782.976-631.657c0,22.491-18.511,41.002-40.999,41.002c-22.494,0-41.001-18.511-41.001-41.002
			c0-22.489,18.507-40.998,41.001-40.998C-801.486-672.655-782.976-654.146-782.976-631.657z"/>
		<path class="st12" d="M-823.41-668.93c0,0.183-0.149,0.333-0.335,0.333c-0.182,0-0.334-0.15-0.334-0.333
			c0-0.185,0.152-0.333,0.334-0.333C-823.56-669.263-823.41-669.115-823.41-668.93"/>
		<path class="st12" d="M-821.097-663.87c0,0.228-0.189,0.411-0.413,0.411c-0.228,0-0.412-0.183-0.412-0.411
			c0-0.227,0.185-0.413,0.412-0.413C-821.286-664.282-821.097-664.096-821.097-663.87"/>
		<path class="st12" d="M-815.089-655.596c0,0.223-0.188,0.409-0.406,0.409c-0.231,0-0.418-0.186-0.418-0.409
			c0-0.227,0.187-0.414,0.418-0.414C-815.276-656.01-815.089-655.823-815.089-655.596"/>
		<path class="st12" d="M-824.75-661.02c0,0.185-0.147,0.339-0.331,0.339c-0.183,0-0.332-0.154-0.332-0.339
			c0-0.182,0.149-0.333,0.332-0.333C-824.897-661.352-824.75-661.202-824.75-661.02"/>
		<path class="st12" d="M-821.151-659.116c0,0.184-0.146,0.333-0.33,0.333s-0.333-0.15-0.333-0.333c0-0.182,0.149-0.333,0.333-0.333
			S-821.151-659.298-821.151-659.116"/>
		<path class="st12" d="M-825.828-664.436c0,0.225-0.187,0.412-0.41,0.412c-0.227,0-0.411-0.187-0.411-0.412
			c0-0.225,0.185-0.41,0.411-0.41C-826.015-664.846-825.828-664.661-825.828-664.436"/>
		<path class="st12" d="M-831.272-661.123c0,0.184-0.146,0.334-0.331,0.334c-0.184,0-0.337-0.15-0.337-0.334
			c0-0.183,0.153-0.333,0.337-0.333C-831.419-661.456-831.272-661.306-831.272-661.123"/>
		<path class="st12" d="M-830.295-660.452c0,0.183-0.151,0.333-0.333,0.333c-0.186,0-0.334-0.15-0.334-0.333
			s0.148-0.335,0.334-0.335C-830.446-660.787-830.295-660.635-830.295-660.452"/>
		<path class="st12" d="M-829.321-659.786c0,0.184-0.151,0.335-0.335,0.335c-0.183,0-0.33-0.151-0.33-0.335
			c0-0.182,0.147-0.333,0.33-0.333C-829.473-660.119-829.321-659.968-829.321-659.786"/>
		<path class="st12" d="M-830.81-658.5c0,0.183-0.152,0.333-0.332,0.333c-0.185,0-0.337-0.15-0.337-0.333
			c0-0.183,0.152-0.333,0.337-0.333C-830.962-658.833-830.81-658.683-830.81-658.5"/>
		<path class="st12" d="M-838.566-653.053c0,0.184-0.153,0.333-0.336,0.333c-0.184,0-0.332-0.149-0.332-0.333
			c0-0.183,0.148-0.334,0.332-0.334C-838.72-653.387-838.566-653.236-838.566-653.053"/>
		<path class="st12" d="M-837.129-651.309c0,0.184-0.15,0.333-0.333,0.333c-0.185,0-0.336-0.15-0.336-0.333
			c0-0.183,0.151-0.334,0.336-0.334C-837.279-651.643-837.129-651.492-837.129-651.309"/>
		<path class="st12" d="M-838.259-623.101c0,0.183-0.15,0.334-0.335,0.334c-0.182,0-0.336-0.151-0.336-0.334
			c0-0.185,0.154-0.334,0.336-0.334C-838.409-623.435-838.259-623.286-838.259-623.101"/>
		<path class="st12" d="M-838.056-615.318c0,0.226-0.186,0.413-0.41,0.413c-0.224,0-0.409-0.187-0.409-0.413
			c0-0.225,0.186-0.408,0.409-0.408C-838.241-615.727-838.056-615.543-838.056-615.318"/>
		<path class="st12" d="M-842.47-611.334c0,0.182-0.157,0.334-0.341,0.334c-0.176,0-0.329-0.152-0.329-0.334
			c0-0.186,0.153-0.334,0.329-0.334C-842.627-611.669-842.47-611.521-842.47-611.334"/>
		<path class="st12" d="M-847.766-609.718c0,0.225-0.185,0.411-0.409,0.411c-0.229,0-0.412-0.186-0.412-0.411
			c0-0.226,0.184-0.41,0.412-0.41C-847.95-610.128-847.766-609.943-847.766-609.718"/>
		<path class="st12" d="M-848.844-613.314c0,0.226-0.185,0.41-0.41,0.41c-0.228,0-0.41-0.184-0.41-0.41
			c0-0.225,0.183-0.411,0.41-0.411C-849.028-613.725-848.844-613.539-848.844-613.314"/>
		<path class="st12" d="M-849.46-611.027c0,0.182-0.151,0.333-0.334,0.333c-0.185,0-0.334-0.151-0.334-0.333
			c0-0.184,0.149-0.334,0.334-0.334C-849.611-611.361-849.46-611.21-849.46-611.027"/>
		<path class="st12" d="M-853.413-612.928c0,0.182-0.154,0.334-0.339,0.334s-0.334-0.152-0.334-0.334
			c0-0.184,0.149-0.335,0.334-0.335S-853.413-613.111-853.413-612.928"/>
		<path class="st12" d="M-839.596-606.506c0,0.183-0.151,0.333-0.331,0.333c-0.182,0-0.336-0.15-0.336-0.333
			c0-0.183,0.154-0.334,0.336-0.334C-839.747-606.84-839.596-606.689-839.596-606.506"/>
		<path class="st12" d="M-835.436-609.564c0,0.227-0.183,0.412-0.412,0.412c-0.221,0-0.407-0.186-0.407-0.412
			c0-0.226,0.187-0.41,0.407-0.41C-835.618-609.975-835.436-609.79-835.436-609.564"/>
		<path class="st12" d="M-834.974-605.632c0,0.183-0.149,0.334-0.332,0.334c-0.185,0-0.336-0.151-0.336-0.334
			c0-0.183,0.151-0.333,0.336-0.333C-835.123-605.966-834.974-605.815-834.974-605.632"/>
		<path class="st12" d="M-817.861-609.385c0,0.187-0.151,0.336-0.333,0.336c-0.183,0-0.335-0.149-0.335-0.336
			c0-0.183,0.152-0.333,0.335-0.333C-818.013-609.718-817.861-609.568-817.861-609.385"/>
		<path class="st12" d="M-825.828-606.558c0,0.183-0.153,0.333-0.333,0.333c-0.185,0-0.334-0.15-0.334-0.333
			c0-0.184,0.149-0.333,0.334-0.333C-825.981-606.891-825.828-606.742-825.828-606.558"/>
		<path class="st12" d="M-804.403-602.499c0,0.182-0.146,0.333-0.333,0.333c-0.185,0-0.334-0.15-0.334-0.333
			c0-0.184,0.149-0.334,0.334-0.334C-804.549-602.833-804.403-602.683-804.403-602.499"/>
		<path class="st12" d="M-802.651-618.297c0,0.225-0.19,0.412-0.415,0.412c-0.226,0-0.413-0.187-0.413-0.412
			c0-0.225,0.188-0.411,0.413-0.411C-802.842-618.708-802.651-618.522-802.651-618.297"/>
		<path class="st12" d="M-805.942-616.062c0,0.183-0.148,0.336-0.331,0.336c-0.185,0-0.337-0.153-0.337-0.336
			c0-0.183,0.152-0.334,0.337-0.334C-806.091-616.397-805.942-616.245-805.942-616.062"/>
		<path class="st12" d="M-802.707-615.419c0,0.224-0.184,0.409-0.412,0.409c-0.222,0-0.405-0.185-0.405-0.409
			c0-0.227,0.184-0.412,0.405-0.412C-802.891-615.831-802.707-615.646-802.707-615.419"/>
		<path class="st12" d="M-805.942-611.437c0,0.181-0.148,0.333-0.331,0.333c-0.185,0-0.337-0.152-0.337-0.333
			c0-0.184,0.152-0.332,0.337-0.332C-806.091-611.769-805.942-611.621-805.942-611.437"/>
		<path class="st12" d="M-797.57-620.532c0,0.181-0.146,0.333-0.332,0.333c-0.184,0-0.336-0.152-0.336-0.333
			c0-0.184,0.152-0.333,0.336-0.333C-797.717-620.865-797.57-620.716-797.57-620.532"/>
		<path class="st12" d="M-796.745-618.503c0,0.225-0.186,0.414-0.414,0.414c-0.222,0-0.407-0.189-0.407-0.414
			c0-0.224,0.186-0.41,0.407-0.41C-796.931-618.914-796.745-618.727-796.745-618.503"/>
		<path class="st12" d="M-790.991-616.088c0,0.227-0.185,0.409-0.414,0.409c-0.224,0-0.406-0.183-0.406-0.409
			c0-0.226,0.183-0.412,0.406-0.412C-791.176-616.5-790.991-616.313-790.991-616.088"/>
		<path class="st12" d="M-796.849-611.797c0,0.183-0.152,0.334-0.333,0.334c-0.184,0-0.336-0.151-0.336-0.334
			c0-0.183,0.152-0.334,0.336-0.334C-797.001-612.131-796.849-611.98-796.849-611.797"/>
		<path class="st12" d="M-793.15-615.292c0,0.184-0.153,0.334-0.33,0.334c-0.187,0-0.334-0.151-0.334-0.334
			c0-0.185,0.147-0.333,0.334-0.333C-793.304-615.625-793.15-615.477-793.15-615.292"/>
		<path class="st12" d="M-793.814-609.898c0,0.183-0.153,0.333-0.333,0.333c-0.188,0-0.337-0.15-0.337-0.333
			s0.149-0.334,0.337-0.334C-793.968-610.232-793.814-610.081-793.814-609.898"/>
		<path class="st12" d="M-816.212-664.82c0.053-0.21,0.223-0.374,0.433-0.42l0.12-0.879l0.172,0.887
			c0.206,0.058,0.364,0.228,0.416,0.437l0.887,0.127l-0.896,0.159c-0.057,0.204-0.227,0.362-0.429,0.412l-0.15,0.904l-0.149-0.912
			c-0.202-0.058-0.362-0.218-0.41-0.423l-0.859-0.14L-816.212-664.82z"/>
		<path class="st12" d="M-839.254-601.796c0.059-0.209,0.229-0.373,0.443-0.421l0.116-0.878l0.176,0.889
			c0.204,0.055,0.361,0.227,0.406,0.434l0.893,0.129l-0.898,0.157c-0.059,0.203-0.219,0.363-0.423,0.413l-0.153,0.905l-0.15-0.911
			c-0.202-0.061-0.361-0.222-0.411-0.427l-0.853-0.138L-839.254-601.796z"/>
		<path class="st12" d="M-796.888-609.922c0.058-0.208,0.229-0.373,0.441-0.42l0.112-0.879l0.173,0.887
			c0.208,0.059,0.364,0.229,0.416,0.439l0.887,0.127l-0.898,0.157c-0.057,0.203-0.224,0.362-0.425,0.413l-0.152,0.905l-0.153-0.913
			c-0.199-0.059-0.353-0.22-0.405-0.423l-0.86-0.139L-796.888-609.922z"/>
		<path class="st12" d="M-793.529-618.982c0.052-0.212,0.224-0.372,0.433-0.422l0.121-0.878l0.17,0.888
			c0.208,0.059,0.364,0.227,0.409,0.44l0.896,0.124l-0.901,0.157c-0.06,0.202-0.22,0.362-0.423,0.413l-0.15,0.906l-0.158-0.912
			c-0.197-0.057-0.354-0.22-0.401-0.423l-0.86-0.14L-793.529-618.982z"/>
		<path class="st12" d="M-835.14-652.454c0.056-0.21,0.226-0.374,0.435-0.419l0.116-0.88l0.178,0.886
			c0.208,0.06,0.362,0.227,0.409,0.439l0.893,0.126l-0.896,0.16c-0.061,0.202-0.222,0.36-0.433,0.411l-0.15,0.904l-0.149-0.914
			c-0.197-0.057-0.357-0.218-0.405-0.421l-0.86-0.14L-835.14-652.454z"/>
		<path class="st12" d="M-796.541-629.747l-2.12-5.373l-1.553,5.373H-796.541z M-801.803-639.048h7.608l5.251,13.232l1.751,1.759
			h-9.541l1.754-1.759l-0.621-1.614h-5.266l-0.545,1.845l1.251,1.528h-4.977l1.752-1.759l3.379-11.701L-801.803-639.048z"/>
		<path class="st8" d="M-802.014-646.451c-2.171,0.964-4.393,1.893-6.652,2.788c-21.034,8.354-46.576,14.558-61.216,24.171
			l1.062,0.369c16.047-9.775,44.421-11.23,67.64-21.858c12.534-5.734,23.565-14.136,30.35-27.96
			C-777.392-659.521-788.799-652.317-802.014-646.451z"/>
		<path class="st12" d="M-830.869-629.747l-2.118-5.373l-1.555,5.373H-830.869z M-835.855-639.048h7.33l5.251,13.232l1.757,1.759
			h-9.544l1.752-1.759l-0.625-1.614h-5.263l-0.546,1.845l1.258,1.528h-4.978l1.746-1.759l3.384-11.701L-835.855-639.048z"/>
		<polygon class="st12" points="-845.798,-629.713 -845.798,-637.517 -847.326,-639.048 -842.25,-639.048 -843.774,-637.517 
			-843.774,-625.816 -842.024,-624.059 -848.683,-624.059 -854.421,-633.766 -854.421,-625.816 -852.945,-624.059 
			-858.249,-624.059 -856.496,-625.816 -856.496,-637.517 -858.016,-639.048 -851.384,-639.048 		"/>
		<path class="st12" d="M-807.409-635.205l-0.158-4.667l-1.567,1.084c-2.217-0.773-4.791-0.745-6.597,0.11
			c-1.684,0.797-3.5,2.479-3.274,4.866c0.215,2.388,2.069,3.314,3.736,4.068c2.15,0.973,4.485,1.305,4.451,2.589
			c-0.023,0.818-1.381,1.406-2.437,1.369c-0.963-0.028-4.094-0.264-5.731-2.209l0.311,4.912l1.745-1.283
			c2.126,0.751,4.702,1.065,7.09,0.29c2.365-0.772,4.851-2.753,3.472-6.217c-0.595-1.493-2.232-2.412-3.208-2.81
			c-0.894-0.368-3.621-1.441-4.384-1.834c-0.894-0.466-0.795-1.938,1.348-2.236C-810.671-637.444-807.985-635.889-807.409-635.205"
			/>
		<path class="st12" d="M-838.634-633.108c-0.349-0.589-0.694-1.195-1.038-1.815c-7.831-14.098-6.706-28.482,7.475-22.216
			c12.034,5.32,23.531,20.244,28.153,30.838c2.143,4.912,7.886,24.186-10.61,16.375l-0.032-0.113
			c17.468,7.193,14.449-11.032,5.094-25.008c-5.29-7.908-12.188-14.496-16.542-17.674c-14.485-10.586-23.325-4.11-13.152,16.647
			c0.461,0.939,0.938,1.834,1.434,2.693L-838.634-633.108z"/>
		<path class="st8" d="M-858.549-596.479l-0.078,1.411c32.239-30.721,79.053-46.062,87.796-73.874
			C-785.343-640.335-829.154-626.476-858.549-596.479"/>
		<g>
			<path class="st12" d="M-837.85-633.372c-0.001-0.002-0.004-0.006-0.004-0.009l-0.78,0.272c0,0.002,0.003,0.004,0.004,0.005
				C-838.369-633.193-838.11-633.282-837.85-633.372z"/>
			<path class="st12" d="M-828.454-620.535c-2.236-2.894-4.897-5.911-7.404-9.642c-0.289,0.07-0.573,0.14-0.86,0.209
				c2.411,3.784,4.811,6.927,7.298,9.924c0,0,4.725,7.706,6.678,5.958C-821.014-615.634-825.93-617.27-828.454-620.535z"/>
		</g>
	</g>
	<text transform="matrix(1 0 0 1 -896.9209 -694.6548)" class="st13"><tspan x="0" y="0" style="fill:#4D4D5E; font-family:'Helvetica-Bold'; font-size:14;">82px = S</tspan><tspan x="57.203" y="0" style="fill:#4D4D5E; font-family:'Helvetica-Light'; font-size:14;">(phere height)</tspan></text>
	<text transform="matrix(1 0 0 1 -762.9756 -628.0522)" class="st13"><tspan x="0" y="0" style="fill:#4D4D5E; font-family:'Helvetica-Bold'; font-size:14;">15px = N</tspan><tspan x="57.976" y="0" style="fill:#4D4D5E; font-family:'Helvetica-Light'; font-size:14;">(ASA height)</tspan></text>
	<text transform="matrix(1 0 0 1 -1031.8516 -628.0522)" class="st13"><tspan x="0" y="0" style="fill:#4D4D5E; font-family:'Helvetica-Bold'; font-size:14;">10px = T</tspan><tspan x="56.417" y="0" style="fill:#4D4D5E; font-family:'Helvetica-Light'; font-size:14;">(ype height)</tspan></text>
	<polyline class="st11" points="-864.976,-633.766 -894.976,-633.766 -894.976,-624.059 -864.976,-624.059 	"/>
	<polyline class="st11" points="-782.975,-657.655 -782.975,-687.655 -864.975,-687.655 -864.975,-657.655 	"/>
	<polyline class="st11" points="-782.976,-639.052 -767.976,-639.052 -767.976,-624.052 -782.976,-624.052 	"/>
	<line class="st20" x1="-682.975" y1="127.323" x2="-682.975" y2="723.823"/>
	<line class="st20" x1="130.525" y1="142.323" x2="-698.475" y2="142.323"/>
	<line class="st20" x1="130.525" y1="708.323" x2="-698.475" y2="708.323"/>
	<line class="st20" x1="114.025" y1="127.323" x2="114.025" y2="723.823"/>
	<text transform="matrix(1 0 0 1 -151.8574 37.106)" class="st13"><tspan x="0" y="0" style="fill:#4D4D5E; font-family:'Helvetica'; font-size:10;">National Aeronautics and</tspan><tspan x="17.246" y="20" style="fill:#4D4D5E; font-family:'Helvetica'; font-size:10;">Space Administration</tspan></text>
	<line class="st1" x1="-25.119" y1="0.323" x2="-25.119" y2="82.323"/>
	<text transform="matrix(1 0 0 1 -563.3491 -624.0591)" class="st1" style="font-family:'Helvetica'; font-size:14;">p Helvetica 14px</text>
	<text transform="matrix(1 0 0 1 -563.3491 -664.9331)" class="st1" style="font-family:'Helvetica'; font-size:19;">h4 Helvetica 19px</text>
	<text transform="matrix(1 0 0 1 -563.3491 -705.6187)" class="st1" style="font-family:'Helvetica'; font-size:25;">h3 Helvetica 25px</text>
	<text transform="matrix(1 0 0 1 -563.3491 -745.9258)" class="st1" style="font-family:'Helvetica'; font-size:33;">h2 Helvetica 33px</text>
	<text transform="matrix(1 0 0 1 -563.3491 -785.667)" class="st1" style="font-family:'Helvetica'; font-size:44;">h1 Helvetica 44px</text>
	<text transform="matrix(1 0 0 1 -667.9746 56.6318)" class="st1" style="font-family:'Helvetica'; font-size:44;">Goddard Space Flight Center</text>
	<polyline class="st3" points="-782.975,-74.677 -782.975,-104.677 -864.975,-104.677 -864.975,-74.677 	"/>
	<text transform="matrix(1 0 0 1 -894.7373 -114.6768)" class="st1" style="font-family:'Helvetica'; font-size:19;">Icons width 82px</text>
	<polyline class="st3" points="-681.261,-148.827 -681.261,-178.827 -894.975,-178.827 -894.975,-148.827 	"/>
	<text transform="matrix(1 0 0 1 -870.4956 -188.8271)" class="st1" style="font-family:'Helvetica'; font-size:19;">Sidebar width 20vw</text>
	<rect x="-470.975" y="157.323" class="st15" width="379" height="174.35"/>
	<text transform="matrix(1 0 0 1 -470.9746 167.3892)" class="st13"><tspan x="0" y="0" style="font-family:'Helvetica'; font-size:14;">For those who have seen the Earth from space, and for the </tspan><tspan x="0" y="16.8" style="font-family:'Helvetica'; font-size:14;">hundreds and perhaps thousands more who will, the experi</tspan><tspan x="366.557" y="16.8" style="font-family:'Helvetica'; font-size:14;">-</tspan><tspan x="0" y="33.6" style="font-family:'Helvetica'; font-size:14;">ence most certainly changes your perspective. The things </tspan><tspan x="0" y="50.4" style="font-family:'Helvetica'; font-size:14;">that we share in our world are far more valuable than those </tspan><tspan x="0" y="67.2" style="font-family:'Helvetica'; font-size:14;">which divide us.</tspan><tspan x="0" y="100.8" style="font-family:'Helvetica'; font-size:14;">The Earth was small, light blue, and so touchingly alone, our </tspan><tspan x="0" y="117.6" style="font-family:'Helvetica'; font-size:14;">home that must be defended like a holy relic. The Earth was </tspan><tspan x="0" y="134.4" style="font-family:'Helvetica'; font-size:14;">absolutely round. I believe I never knew what the word round </tspan><tspan x="0" y="151.2" style="font-family:'Helvetica'; font-size:14;">meant until I saw Earth from space.</tspan></text>
	<rect x="-470.975" y="369.673" class="st15" width="379" height="104.35"/>
	<text transform="matrix(1 0 0 1 -470.9746 379.7388)" class="st13"><tspan x="0" y="0" style="font-family:'Helvetica'; font-size:14;">Failure is not an option.</tspan><tspan x="0" y="33.6" style="font-family:'Helvetica'; font-size:14;">The Earth was small, light blue, and so touchingly alone, our </tspan><tspan x="0" y="50.4" style="font-family:'Helvetica'; font-size:14;">home that must be defended like a holy relic. The Earth was </tspan><tspan x="0" y="67.2" style="font-family:'Helvetica'; font-size:14;">absolutely round. I believe I never knew what the word round </tspan><tspan x="0" y="84" style="font-family:'Helvetica'; font-size:14;">meant until I saw Earth from space.</tspan></text>
	<rect x="-470.975" y="529.673" class="st15" width="379" height="104.35"/>
	<text transform="matrix(1 0 0 1 -470.9746 539.7388)" class="st13"><tspan x="0" y="0" style="font-family:'Helvetica'; font-size:14;">Failure is not an option.</tspan><tspan x="0" y="33.6" style="font-family:'Helvetica'; font-size:14;">The Earth was small, light blue, and so touchingly alone, our </tspan><tspan x="0" y="50.4" style="font-family:'Helvetica'; font-size:14;">home that must be defended like a holy relic. The Earth was </tspan><tspan x="0" y="67.2" style="font-family:'Helvetica'; font-size:14;">absolutely round. I believe I never knew what the word round </tspan><tspan x="0" y="84" style="font-family:'Helvetica'; font-size:14;">meant until I saw Earth from space.</tspan></text>
	<rect x="-667.975" y="157.323" class="st0" width="182" height="197.35"/>
	<rect x="-667.975" y="550.673" class="st6" width="182" height="52.175"/>
	<rect x="-76.975" y="369.673" class="st0" width="176" height="145"/>
	<g class="st13">
		<text transform="matrix(1 0 0 1 -631.4336 582.3486)" class="st12" style="font-family:'Helvetica-Bold'; font-size:14;">Begin the Exam.</text>
	</g>
</g>
<g id="logo">
	<g>
		<path class="st16" d="M86.861,41.321c0,22.491-18.501,41.002-40.978,41.002c-22.482,0-40.98-18.511-40.98-41.002
			c0-22.489,18.498-40.998,40.98-40.998C68.36,0.323,86.861,18.832,86.861,41.321"/>
		<path class="st4" d="M86.861,41.321c0,22.491-18.501,41.002-40.978,41.002c-22.482,0-40.98-18.511-40.98-41.002
			c0-22.489,18.498-40.998,40.98-40.998C68.36,0.323,86.861,18.832,86.861,41.321z"/>
		<path class="st12" d="M46.448,4.048c0,0.183-0.149,0.333-0.335,0.333c-0.182,0-0.334-0.15-0.334-0.333
			c0-0.185,0.152-0.333,0.334-0.333C46.299,3.715,46.448,3.863,46.448,4.048"/>
		<path class="st12" d="M48.76,9.108c0,0.228-0.188,0.411-0.412,0.411c-0.228,0-0.412-0.183-0.412-0.411
			c0-0.227,0.185-0.413,0.412-0.413C48.571,8.696,48.76,8.882,48.76,9.108"/>
		<path class="st12" d="M54.765,17.382c0,0.223-0.188,0.409-0.406,0.409c-0.23,0-0.417-0.186-0.417-0.409
			c0-0.227,0.187-0.414,0.417-0.414C54.577,16.968,54.765,17.155,54.765,17.382"/>
		<path class="st12" d="M45.108,11.958c0,0.185-0.147,0.339-0.331,0.339c-0.182,0-0.331-0.154-0.331-0.339
			c0-0.182,0.149-0.333,0.331-0.333C44.961,11.626,45.108,11.776,45.108,11.958"/>
		<path class="st12" d="M48.705,13.862c0,0.184-0.146,0.333-0.329,0.333s-0.333-0.15-0.333-0.333c0-0.182,0.149-0.333,0.333-0.333
			S48.705,13.68,48.705,13.862"/>
		<path class="st12" d="M44.031,8.542c0,0.225-0.187,0.412-0.41,0.412c-0.227,0-0.411-0.187-0.411-0.412
			c0-0.225,0.185-0.41,0.411-0.41C43.845,8.132,44.031,8.317,44.031,8.542"/>
		<path class="st12" d="M38.59,11.855c0,0.184-0.146,0.334-0.331,0.334c-0.184,0-0.337-0.15-0.337-0.334
			c0-0.183,0.153-0.333,0.337-0.333C38.443,11.522,38.59,11.672,38.59,11.855"/>
		<path class="st12" d="M39.566,12.526c0,0.183-0.151,0.333-0.333,0.333c-0.186,0-0.333-0.15-0.333-0.333s0.147-0.335,0.333-0.335
			C39.415,12.191,39.566,12.343,39.566,12.526"/>
		<path class="st12" d="M40.54,13.192c0,0.184-0.151,0.335-0.335,0.335c-0.183,0-0.33-0.151-0.33-0.335
			c0-0.182,0.147-0.333,0.33-0.333C40.389,12.859,40.54,13.01,40.54,13.192"/>
		<path class="st12" d="M39.052,14.479c0,0.183-0.151,0.333-0.331,0.333c-0.185,0-0.337-0.15-0.337-0.333
			c0-0.183,0.152-0.333,0.337-0.333C38.9,14.145,39.052,14.295,39.052,14.479"/>
		<path class="st12" d="M31.3,19.925c0,0.184-0.153,0.333-0.336,0.333c-0.184,0-0.332-0.149-0.332-0.333
			c0-0.183,0.148-0.334,0.332-0.334C31.146,19.591,31.3,19.742,31.3,19.925"/>
		<path class="st12" d="M32.736,21.669c0,0.184-0.15,0.333-0.333,0.333c-0.185,0-0.336-0.15-0.336-0.333
			c0-0.183,0.151-0.334,0.336-0.334C32.586,21.335,32.736,21.486,32.736,21.669"/>
		<path class="st12" d="M31.606,49.877c0,0.183-0.15,0.334-0.334,0.334c-0.182,0-0.336-0.151-0.336-0.334
			c0-0.185,0.154-0.334,0.336-0.334C31.456,49.543,31.606,49.692,31.606,49.877"/>
		<path class="st12" d="M31.81,57.66c0,0.226-0.186,0.413-0.41,0.413c-0.223,0-0.408-0.187-0.408-0.413
			c0-0.225,0.186-0.408,0.408-0.408C31.624,57.251,31.81,57.435,31.81,57.66"/>
		<path class="st12" d="M27.398,61.644c0,0.182-0.157,0.334-0.341,0.334c-0.176,0-0.329-0.152-0.329-0.334
			c0-0.186,0.153-0.334,0.329-0.334C27.241,61.309,27.398,61.458,27.398,61.644"/>
		<path class="st12" d="M22.104,63.26c0,0.225-0.184,0.411-0.408,0.411c-0.229,0-0.412-0.186-0.412-0.411
			c0-0.226,0.184-0.41,0.412-0.41C21.921,62.85,22.104,63.035,22.104,63.26"/>
		<path class="st12" d="M21.027,59.664c0,0.226-0.185,0.41-0.41,0.41c-0.228,0-0.41-0.184-0.41-0.41c0-0.225,0.183-0.411,0.41-0.411
			C20.843,59.253,21.027,59.439,21.027,59.664"/>
		<path class="st12" d="M20.411,61.951c0,0.182-0.151,0.333-0.334,0.333c-0.184,0-0.333-0.151-0.333-0.333
			c0-0.184,0.149-0.334,0.333-0.334C20.26,61.617,20.411,61.768,20.411,61.951"/>
		<path class="st12" d="M16.46,60.05c0,0.182-0.154,0.334-0.338,0.334c-0.185,0-0.334-0.152-0.334-0.334
			c0-0.184,0.149-0.335,0.334-0.335C16.306,59.715,16.46,59.867,16.46,60.05"/>
		<path class="st12" d="M30.271,66.472c0,0.183-0.151,0.333-0.331,0.333c-0.182,0-0.336-0.15-0.336-0.333
			c0-0.183,0.154-0.334,0.336-0.334C30.119,66.138,30.271,66.289,30.271,66.472"/>
		<path class="st12" d="M34.429,63.414c0,0.227-0.183,0.412-0.412,0.412c-0.221,0-0.407-0.186-0.407-0.412
			c0-0.226,0.187-0.41,0.407-0.41C34.246,63.003,34.429,63.188,34.429,63.414"/>
		<path class="st12" d="M34.891,67.346c0,0.183-0.149,0.334-0.332,0.334c-0.185,0-0.336-0.151-0.336-0.334
			c0-0.183,0.151-0.333,0.336-0.333C34.741,67.012,34.891,67.163,34.891,67.346"/>
		<path class="st12" d="M51.994,63.593c0,0.187-0.151,0.336-0.333,0.336c-0.183,0-0.335-0.149-0.335-0.336
			c0-0.183,0.152-0.333,0.335-0.333C51.843,63.26,51.994,63.41,51.994,63.593"/>
		<path class="st12" d="M44.031,66.42c0,0.183-0.153,0.333-0.333,0.333c-0.185,0-0.334-0.15-0.334-0.333
			c0-0.184,0.149-0.333,0.334-0.333C43.878,66.087,44.031,66.236,44.031,66.42"/>
		<path class="st12" d="M65.445,70.479c0,0.182-0.146,0.333-0.333,0.333c-0.185,0-0.334-0.15-0.334-0.333
			c0-0.184,0.149-0.334,0.334-0.334C65.3,70.146,65.445,70.295,65.445,70.479"/>
		<path class="st12" d="M67.196,54.681c0,0.225-0.19,0.412-0.415,0.412c-0.226,0-0.413-0.187-0.413-0.412
			c0-0.225,0.188-0.411,0.413-0.411C67.006,54.27,67.196,54.456,67.196,54.681"/>
		<path class="st12" d="M63.906,56.916c0,0.183-0.147,0.336-0.33,0.336c-0.185,0-0.337-0.153-0.337-0.336
			c0-0.183,0.152-0.334,0.337-0.334C63.759,56.581,63.906,56.733,63.906,56.916"/>
		<path class="st12" d="M67.141,57.559c0,0.224-0.184,0.409-0.412,0.409c-0.222,0-0.405-0.185-0.405-0.409
			c0-0.227,0.184-0.412,0.405-0.412C66.957,57.147,67.141,57.332,67.141,57.559"/>
		<path class="st12" d="M63.906,61.541c0,0.181-0.147,0.333-0.33,0.333c-0.185,0-0.337-0.152-0.337-0.333
			c0-0.184,0.152-0.332,0.337-0.332C63.759,61.209,63.906,61.357,63.906,61.541"/>
		<path class="st12" d="M72.274,52.446c0,0.181-0.146,0.333-0.332,0.333c-0.184,0-0.336-0.152-0.336-0.333
			c0-0.184,0.152-0.333,0.336-0.333C72.128,52.113,72.274,52.262,72.274,52.446"/>
		<path class="st12" d="M73.1,54.475c0,0.225-0.186,0.414-0.414,0.414c-0.222,0-0.407-0.189-0.407-0.414
			c0-0.224,0.186-0.41,0.407-0.41C72.914,54.064,73.1,54.251,73.1,54.475"/>
		<path class="st12" d="M78.851,56.89c0,0.227-0.185,0.409-0.414,0.409c-0.224,0-0.406-0.183-0.406-0.409
			c0-0.226,0.183-0.412,0.406-0.412C78.666,56.479,78.851,56.665,78.851,56.89"/>
		<path class="st12" d="M72.996,61.181c0,0.183-0.152,0.334-0.333,0.334c-0.184,0-0.336-0.151-0.336-0.334
			c0-0.183,0.152-0.334,0.336-0.334C72.844,60.847,72.996,60.998,72.996,61.181"/>
		<path class="st12" d="M76.692,57.686c0,0.184-0.153,0.334-0.33,0.334c-0.187,0-0.334-0.151-0.334-0.334
			c0-0.185,0.147-0.333,0.334-0.333C76.539,57.353,76.692,57.501,76.692,57.686"/>
		<path class="st12" d="M76.028,63.08c0,0.183-0.153,0.333-0.333,0.333c-0.188,0-0.337-0.15-0.337-0.333s0.149-0.334,0.337-0.334
			C75.875,62.746,76.028,62.897,76.028,63.08"/>
		<path class="st12" d="M53.643,8.158c0.053-0.21,0.223-0.374,0.433-0.42l0.119-0.879l0.172,0.887
			c0.206,0.058,0.364,0.228,0.416,0.437l0.887,0.127l-0.896,0.159c-0.057,0.204-0.227,0.362-0.429,0.412l-0.15,0.904l-0.148-0.912
			c-0.202-0.058-0.362-0.218-0.41-0.423l-0.859-0.14L53.643,8.158z"/>
		<path class="st12" d="M30.612,71.182c0.059-0.209,0.229-0.373,0.443-0.421l0.116-0.878l0.175,0.889
			c0.204,0.055,0.361,0.227,0.406,0.434l0.893,0.129l-0.898,0.157c-0.059,0.203-0.219,0.363-0.422,0.413l-0.153,0.905l-0.15-0.911
			c-0.202-0.061-0.361-0.222-0.411-0.427l-0.853-0.138L30.612,71.182z"/>
		<path class="st12" d="M72.957,63.056c0.058-0.208,0.229-0.373,0.44-0.42l0.112-0.879l0.173,0.887
			c0.208,0.059,0.364,0.229,0.416,0.439l0.887,0.127l-0.898,0.157c-0.057,0.203-0.224,0.362-0.425,0.413l-0.152,0.905l-0.153-0.913
			c-0.198-0.059-0.352-0.22-0.404-0.423l-0.86-0.139L72.957,63.056z"/>
		<path class="st12" d="M76.313,53.996c0.052-0.212,0.224-0.372,0.433-0.422l0.121-0.878l0.169,0.888
			c0.208,0.059,0.364,0.227,0.409,0.44l0.896,0.124l-0.901,0.157c-0.06,0.202-0.22,0.362-0.422,0.413l-0.15,0.906l-0.158-0.912
			c-0.197-0.057-0.354-0.22-0.401-0.423l-0.86-0.14L76.313,53.996z"/>
		<path class="st12" d="M34.725,20.524c0.056-0.21,0.226-0.374,0.435-0.419l0.115-0.88l0.178,0.886
			c0.208,0.06,0.362,0.227,0.409,0.439l0.893,0.126l-0.896,0.16c-0.061,0.202-0.222,0.36-0.433,0.411l-0.15,0.904l-0.148-0.914
			c-0.197-0.057-0.357-0.218-0.405-0.421l-0.86-0.14L34.725,20.524z"/>
		<path class="st12" d="M73.304,43.231l-2.119-5.373l-1.553,5.373H73.304z M68.044,33.93h7.604l5.249,13.232l1.75,1.759h-9.536
			l1.753-1.759l-0.621-1.614H68.98l-0.545,1.845l1.25,1.528h-4.974l1.751-1.759l3.377-11.701L68.044,33.93z"/>
		<path class="st8" d="M67.833,26.527c-2.17,0.964-4.39,1.893-6.648,2.788C40.161,37.67,14.632,43.874,0,53.487l1.061,0.369
			C17.1,44.08,45.459,42.625,68.666,31.997C81.193,26.263,92.22,17.861,99,4.037C92.442,13.457,81.041,20.661,67.833,26.527z"/>
		<path class="st12" d="M38.993,43.231l-2.117-5.373l-1.555,5.373H38.993z M34.009,33.93h7.326l5.248,13.232l1.757,1.759h-9.539
			l1.751-1.759l-0.625-1.614h-5.26l-0.546,1.845l1.257,1.528h-4.975l1.745-1.759l3.382-11.701L34.009,33.93z"/>
		<polygon class="st12" points="24.071,43.265 24.071,35.461 22.544,33.93 27.618,33.93 26.094,35.461 26.094,47.162 27.843,48.919 
			21.188,48.919 15.453,39.212 15.453,47.162 16.928,48.919 11.627,48.919 13.379,47.162 13.379,35.461 11.86,33.93 18.488,33.93 		
			"/>
		<path class="st12" d="M62.44,37.773l-0.158-4.667l-1.566,1.084c-2.216-0.773-4.788-0.745-6.593,0.11
			c-1.684,0.797-3.499,2.479-3.273,4.866c0.215,2.388,2.068,3.314,3.734,4.068c2.149,0.973,4.483,1.305,4.449,2.589
			c-0.023,0.818-1.38,1.406-2.436,1.369c-0.962-0.028-4.092-0.264-5.729-2.209l0.311,4.912l1.744-1.283
			c2.125,0.751,4.7,1.065,7.086,0.29c2.364-0.772,4.849-2.753,3.471-6.217c-0.595-1.493-2.231-2.412-3.207-2.81
			c-0.893-0.368-3.619-1.441-4.381-1.834c-0.894-0.466-0.795-1.938,1.347-2.236C59.181,35.534,61.864,37.089,62.44,37.773"/>
		<path class="st12" d="M31.232,39.87c-0.349-0.589-0.694-1.195-1.038-1.815c-7.827-14.098-6.702-28.482,7.471-22.216
			c12.028,5.32,23.52,20.244,28.139,30.838c2.142,4.912,7.882,24.186-10.604,16.375l-0.032-0.113
			c17.459,7.193,14.441-11.032,5.091-25.008c-5.287-7.908-12.182-14.496-16.533-17.674c-14.478-10.586-23.313-4.11-13.146,16.647
			c0.461,0.939,0.938,1.834,1.433,2.693L31.232,39.87z"/>
		<path class="st8" d="M11.327,76.499l-0.078,1.411C43.472,47.188,90.262,31.848,99,4.035
			C84.496,32.643,40.707,46.502,11.327,76.499"/>
		<g>
			<path class="st12" d="M32.016,39.606c-0.001-0.002-0.004-0.006-0.004-0.009l-0.779,0.272c0,0.002,0.003,0.004,0.004,0.005
				C31.496,39.785,31.755,39.696,32.016,39.606z"/>
			<path class="st12" d="M41.406,52.443c-2.235-2.894-4.895-5.911-7.4-9.642c-0.289,0.07-0.573,0.14-0.859,0.209
				c2.409,3.784,4.808,6.927,7.294,9.924c0,0,4.722,7.706,6.674,5.958C48.843,57.344,43.93,55.708,41.406,52.443z"/>
		</g>
	</g>
</g>
</svg>
