<?xml version="1.0" encoding="utf-8"?>
<!-- Generator: Adobe Illustrator 16.0.4, SVG Export Plug-In . SVG Version: 6.00 Build 0)  -->
<!DOCTYPE svg PUBLIC "-//W3C//DTD SVG 1.1//EN" "http://www.w3.org/Graphics/SVG/1.1/DTD/svg11.dtd">
<svg version="1.1" xmlns="http://www.w3.org/2000/svg" xmlns:xlink="http://www.w3.org/1999/xlink" x="0px" y="0px" width="49.5px"
	 height="41.646px" viewBox="0 0 49.5 41.646" style="enable-background:new 0 0 49.5 41.646;" xml:space="preserve">
<style type="text/css">
<![CDATA[
	.st0{display:inline;fill:#E5E5E7;}
	.st1{display:inline;fill:#4D4D5E;}
	.st2{clip-path:url(#SVGID_2_);fill:url(#SVGID_3_);}
	.st3{display:inline;fill:none;stroke:#231F20;stroke-miterlimit:10;}
	.st4{fill:none;stroke:#FFFFFF;stroke-width:0.647;}
	.st5{display:inline;fill:#EE3E42;}
	.st6{display:inline;fill:#EF3E42;}
	.st7{display:inline;fill:none;stroke:#FCD9D7;stroke-miterlimit:10;}
	.st8{fill:#EE3E42;}
	.st9{display:inline;fill:none;stroke:#FBCCE8;stroke-miterlimit:10;}
	.st10{display:inline;fill:#FFFFFF;}
	.st11{display:inline;fill:none;stroke:#9999A3;stroke-linecap:round;stroke-linejoin:round;stroke-miterlimit:10;}
	.st12{fill:#FFFFFF;}
	.st13{display:inline;}
	.st14{display:inline;fill:#0066B2;}
	.st15{display:inline;fill:none;}
	.st16{fill:#0066B2;}
	.st17{display:inline;fill:#A5C498;}
	.st18{display:none;}
	.st19{display:inline;fill:none;stroke:#FFFFFF;stroke-width:0.647;}
	.st20{display:inline;fill:none;stroke:#E5E5E7;stroke-miterlimit:10;}
	.st21{display:inline;fill:#E1EBDD;}
]]>
</style>
<g id="guides" class="st18">
	<line class="st9" x1="-949.725" y1="-20.177" x2="134.775" y2="-20.177"/>
	<line class="st9" x1="-949.725" y1="61.823" x2="134.775" y2="61.823"/>
	<line class="st9" x1="-949.725" y1="121.823" x2="134.775" y2="121.823"/>
	<line class="st9" x1="-949.725" y1="687.823" x2="134.775" y2="687.823"/>
	<line class="st9" x1="-889.725" y1="-80.177" x2="-889.725" y2="748.323"/>
	<line class="st9" x1="-807.725" y1="-80.177" x2="-807.725" y2="748.323"/>
	<line class="st9" x1="74.275" y1="-80.177" x2="74.275" y2="748.323"/>
	<rect x="-919.725" y="-50.177" class="st7" width="1024" height="768"/>
	<line class="st9" x1="-692.725" y1="-80.177" x2="-692.725" y2="748.323"/>
	<line class="st9" x1="-495.725" y1="-80.177" x2="-495.725" y2="748.323"/>
	<line class="st9" x1="-101.725" y1="-80.177" x2="-101.725" y2="748.323"/>
	<line class="st9" x1="-298.725" y1="-80.177" x2="-298.725" y2="748.323"/>
	<line class="st9" x1="-707.725" y1="-80.177" x2="-707.725" y2="748.323"/>
	<line class="st9" x1="-510.725" y1="-80.177" x2="-510.725" y2="748.323"/>
	<line class="st9" x1="-116.725" y1="-80.177" x2="-116.725" y2="748.323"/>
	<line class="st9" x1="-313.725" y1="-80.177" x2="-313.725" y2="748.323"/>
</g>
<g id="Layer_1" class="st18">
	<rect x="-919.725" y="-50.177" class="st1" width="112" height="768.5"/>
	<path class="st14" d="M-39.236,1683.775c0,78.039-64.229,142.268-142.257,142.268c-78.05,0-142.268-64.229-142.268-142.268
		c0-78.034,64.218-142.257,142.268-142.257C-103.465,1541.519-39.236,1605.741-39.236,1683.775"/>
	<path class="st19" d="M-39.236,1683.775c0,78.039-64.229,142.268-142.257,142.268c-78.05,0-142.268-64.229-142.268-142.268
		c0-78.034,64.218-142.257,142.268-142.257C-103.465,1541.519-39.236,1605.741-39.236,1683.775z"/>
	<path class="st10" d="M-179.534,1554.443c0,0.636-0.521,1.157-1.157,1.157s-1.167-0.521-1.167-1.157
		c0-0.642,0.531-1.157,1.167-1.157S-179.534,1553.802-179.534,1554.443"/>
	<path class="st10" d="M-171.508,1572.001c0,0.787-0.657,1.423-1.438,1.423c-0.782,0-1.428-0.636-1.428-1.423
		s0.646-1.434,1.428-1.434C-172.165,1570.567-171.508,1571.214-171.508,1572.001"/>
	<path class="st10" d="M-150.661,1600.707c0,0.776-0.646,1.417-1.407,1.417c-0.803,0-1.449-0.641-1.449-1.417
		c0-0.787,0.646-1.434,1.449-1.434C-151.308,1599.273-150.661,1599.92-150.661,1600.707"/>
	<path class="st10" d="M-184.183,1581.893c0,0.642-0.511,1.173-1.146,1.173c-0.637,0-1.157-0.531-1.157-1.173
		c0-0.636,0.521-1.157,1.157-1.157C-184.693,1580.735-184.183,1581.257-184.183,1581.893"/>
	<path class="st10" d="M-171.696,1588.496c0,0.636-0.51,1.157-1.146,1.157c-0.636,0-1.156-0.521-1.156-1.157
		s0.521-1.157,1.156-1.157C-172.206,1587.339-171.696,1587.86-171.696,1588.496"/>
	<path class="st10" d="M-187.925,1570.036c0,0.782-0.646,1.428-1.418,1.428c-0.792,0-1.428-0.646-1.428-1.428
		c0-0.781,0.636-1.423,1.428-1.423C-188.571,1568.613-187.925,1569.255-187.925,1570.036"/>
	<path class="st10" d="M-206.812,1581.533c0,0.636-0.511,1.157-1.157,1.157c-0.636,0-1.167-0.521-1.167-1.157
		s0.531-1.157,1.167-1.157C-207.322,1580.376-206.812,1580.897-206.812,1581.533"/>
	<path class="st10" d="M-203.425,1583.857c0,0.636-0.521,1.157-1.156,1.157s-1.157-0.521-1.157-1.157s0.521-1.162,1.157-1.162
		S-203.425,1583.222-203.425,1583.857"/>
	<path class="st10" d="M-200.047,1586.172c0,0.636-0.521,1.162-1.157,1.162s-1.146-0.526-1.146-1.162
		c0-0.631,0.511-1.157,1.146-1.157S-200.047,1585.541-200.047,1586.172"/>
	<path class="st10" d="M-205.207,1590.633c0,0.636-0.531,1.157-1.157,1.157c-0.635,0-1.167-0.521-1.167-1.157
		s0.532-1.157,1.167-1.157C-205.738,1589.476-205.207,1589.997-205.207,1590.633"/>
	<path class="st10" d="M-232.13,1609.53c0,0.636-0.521,1.156-1.157,1.156s-1.157-0.521-1.157-1.156s0.521-1.157,1.157-1.157
		S-232.13,1608.895-232.13,1609.53"/>
	<path class="st10" d="M-227.138,1615.586c0,0.636-0.521,1.157-1.156,1.157c-0.637,0-1.168-0.521-1.168-1.157
		s0.531-1.157,1.168-1.157C-227.658,1614.429-227.138,1614.95-227.138,1615.586"/>
	<path class="st10" d="M-231.057,1713.461c0,0.636-0.521,1.157-1.167,1.157c-0.626,0-1.157-0.521-1.157-1.157
		c0-0.642,0.531-1.157,1.157-1.157C-231.577,1712.304-231.057,1712.819-231.057,1713.461"/>
	<path class="st10" d="M-230.348,1740.468c0,0.781-0.646,1.428-1.428,1.428c-0.771,0-1.418-0.646-1.418-1.428
		c0-0.782,0.646-1.418,1.418-1.418C-230.994,1739.05-230.348,1739.686-230.348,1740.468"/>
	<path class="st10" d="M-245.67,1754.289c0,0.63-0.542,1.157-1.178,1.157c-0.615,0-1.146-0.527-1.146-1.157
		c0-0.646,0.531-1.162,1.146-1.162C-246.212,1753.127-245.67,1753.643-245.67,1754.289"/>
	<path class="st10" d="M-264.046,1759.896c0,0.782-0.636,1.428-1.418,1.428c-0.792,0-1.428-0.646-1.428-1.428
		s0.636-1.423,1.428-1.423C-264.682,1758.474-264.046,1759.114-264.046,1759.896"/>
	<path class="st10" d="M-267.788,1747.42c0,0.782-0.636,1.423-1.418,1.423c-0.792,0-1.428-0.641-1.428-1.423
		s0.636-1.428,1.428-1.428C-268.424,1745.992-267.788,1746.638-267.788,1747.42"/>
	<path class="st10" d="M-269.925,1755.353c0,0.635-0.521,1.156-1.157,1.156s-1.157-0.521-1.157-1.156
		c0-0.637,0.521-1.157,1.157-1.157S-269.925,1754.716-269.925,1755.353"/>
	<path class="st10" d="M-283.642,1748.759c0,0.631-0.532,1.162-1.178,1.162c-0.637,0-1.157-0.531-1.157-1.162
		c0-0.635,0.521-1.162,1.157-1.162C-284.174,1747.597-283.642,1748.124-283.642,1748.759"/>
	<path class="st10" d="M-235.694,1771.044c0,0.631-0.521,1.152-1.146,1.152c-0.637,0-1.168-0.521-1.168-1.152
		c0-0.641,0.531-1.162,1.168-1.162C-236.216,1769.882-235.694,1770.403-235.694,1771.044"/>
	<path class="st10" d="M-221.259,1760.429c0,0.786-0.636,1.433-1.428,1.433c-0.771,0-1.418-0.646-1.418-1.433
		c0-0.782,0.646-1.424,1.418-1.424C-221.895,1759.005-221.259,1759.646-221.259,1760.429"/>
	<path class="st10" d="M-219.653,1774.072c0,0.636-0.521,1.157-1.157,1.157s-1.167-0.521-1.167-1.157s0.531-1.157,1.167-1.157
		S-219.653,1773.437-219.653,1774.072"/>
	<path class="st10" d="M-160.282,1761.054c0,0.646-0.521,1.167-1.157,1.167s-1.157-0.521-1.157-1.167
		c0-0.636,0.521-1.157,1.157-1.157S-160.282,1760.418-160.282,1761.054"/>
	<path class="st10" d="M-187.925,1770.862c0,0.636-0.531,1.156-1.157,1.156c-0.636,0-1.157-0.521-1.157-1.156
		c0-0.637,0.521-1.157,1.157-1.157C-188.456,1769.705-187.925,1770.226-187.925,1770.862"/>
	<path class="st10" d="M-113.586,1784.944c0,0.635-0.511,1.156-1.157,1.156c-0.636,0-1.156-0.521-1.156-1.156
		c0-0.637,0.521-1.157,1.156-1.157C-114.097,1783.787-113.586,1784.308-113.586,1784.944"/>
	<path class="st10" d="M-107.509,1730.128c0,0.781-0.657,1.428-1.438,1.428c-0.782,0-1.429-0.646-1.429-1.428
		c0-0.782,0.646-1.423,1.429-1.423C-108.166,1728.705-107.509,1729.346-107.509,1730.128"/>
	<path class="st10" d="M-118.923,1737.883c0,0.636-0.521,1.167-1.156,1.167c-0.637,0-1.168-0.531-1.168-1.167
		s0.531-1.162,1.168-1.162C-119.444,1736.721-118.923,1737.247-118.923,1737.883"/>
	<path class="st10" d="M-107.696,1740.113c0,0.776-0.637,1.423-1.429,1.423c-0.771,0-1.417-0.646-1.417-1.423
		c0-0.787,0.646-1.428,1.417-1.428C-108.333,1738.686-107.696,1739.326-107.696,1740.113"/>
	<path class="st10" d="M-118.923,1753.929c0,0.631-0.521,1.157-1.156,1.157c-0.637,0-1.168-0.526-1.168-1.157
		c0-0.635,0.531-1.151,1.168-1.151C-119.444,1752.777-118.923,1753.294-118.923,1753.929"/>
	<path class="st10" d="M-89.873,1722.373c0,0.63-0.511,1.157-1.157,1.157c-0.636,0-1.156-0.527-1.156-1.157
		c0-0.636,0.521-1.157,1.156-1.157C-90.384,1721.216-89.873,1721.737-89.873,1722.373"/>
	<path class="st10" d="M-87.017,1729.413c0,0.777-0.637,1.434-1.428,1.434c-0.771,0-1.418-0.656-1.418-1.434
		c0-0.775,0.646-1.422,1.418-1.422C-87.653,1727.991-87.017,1728.638-87.017,1729.413"/>
	<path class="st10" d="M-67.046,1737.794c0,0.787-0.646,1.423-1.438,1.423c-0.771,0-1.407-0.636-1.407-1.423
		c0-0.781,0.636-1.428,1.407-1.428C-67.692,1736.366-67.046,1737.013-67.046,1737.794"/>
	<path class="st10" d="M-87.371,1752.684c0,0.631-0.532,1.157-1.157,1.157c-0.636,0-1.168-0.526-1.168-1.157
		c0-0.636,0.532-1.162,1.168-1.162C-87.903,1751.521-87.371,1752.048-87.371,1752.684"/>
	<path class="st10" d="M-74.54,1740.556c0,0.637-0.531,1.162-1.146,1.162c-0.646,0-1.157-0.525-1.157-1.162
		c0-0.641,0.511-1.156,1.157-1.156C-75.071,1739.399-74.54,1739.915-74.54,1740.556"/>
	<path class="st10" d="M-76.844,1759.271c0,0.636-0.532,1.157-1.157,1.157c-0.646,0-1.167-0.521-1.167-1.157
		s0.521-1.157,1.167-1.157C-77.376,1758.114-76.844,1758.636-76.844,1759.271"/>
	<path class="st10" d="M-154.56,1568.702c0.188-0.729,0.771-1.298,1.501-1.459l0.417-3.055l0.604,3.08
		c0.708,0.203,1.261,0.793,1.438,1.517l3.074,0.443l-3.105,0.547c-0.198,0.709-0.782,1.257-1.491,1.434l-0.521,3.138l-0.521-3.164
		c-0.698-0.203-1.251-0.761-1.418-1.47l-2.98-0.484L-154.56,1568.702z"/>
	<path class="st10" d="M-234.507,1787.383c0.198-0.725,0.793-1.292,1.532-1.459l0.407-3.049l0.604,3.085
		c0.709,0.193,1.262,0.787,1.418,1.506l3.096,0.448l-3.116,0.548c-0.208,0.703-0.761,1.256-1.47,1.433l-0.531,3.138l-0.521-3.158
		c-0.709-0.209-1.251-0.771-1.428-1.48l-2.961-0.479L-234.507,1787.383z"/>
	<path class="st10" d="M-87.507,1759.188c0.198-0.724,0.792-1.292,1.532-1.454l0.386-3.054l0.604,3.08
		c0.72,0.203,1.261,0.792,1.438,1.521l3.085,0.438l-3.127,0.547c-0.188,0.703-0.771,1.256-1.47,1.434l-0.531,3.137l-0.521-3.168
		c-0.698-0.198-1.229-0.762-1.417-1.465l-2.981-0.484L-87.507,1759.188z"/>
	<path class="st10" d="M-75.854,1727.751c0.177-0.734,0.771-1.292,1.501-1.465l0.417-3.049l0.594,3.08
		c0.72,0.204,1.262,0.787,1.418,1.527l3.106,0.433l-3.127,0.548c-0.198,0.698-0.762,1.256-1.471,1.428l-0.521,3.143l-0.542-3.164
		c-0.688-0.197-1.24-0.761-1.396-1.469l-2.981-0.485L-75.854,1727.751z"/>
	<path class="st10" d="M-220.237,1611.609c0.198-0.729,0.782-1.298,1.512-1.454l0.406-3.054l0.615,3.075
		c0.719,0.208,1.262,0.787,1.418,1.521l3.096,0.438l-3.106,0.553c-0.209,0.703-0.771,1.251-1.501,1.428l-0.521,3.138l-0.521-3.169
		c-0.688-0.198-1.24-0.756-1.406-1.459l-2.981-0.49L-220.237,1611.609z"/>
	<path class="st10" d="M-86.298,1690.399l-7.358-18.643l-5.39,18.643H-86.298z M-104.56,1658.124h26.402l18.22,45.914l6.077,6.104
		h-33.104l6.077-6.104l-2.158-5.598h-18.271l-1.887,6.4l4.346,5.301h-17.271l6.076-6.104l11.727-40.599L-104.56,1658.124z"/>
	<path class="st5" d="M-105.289,1632.44c-7.536,3.346-15.249,6.566-23.087,9.673c-72.984,28.987-161.613,50.517-212.406,83.871
		l3.68,1.276c55.681-33.917,154.139-38.962,234.701-75.84c43.485-19.897,81.771-49.052,105.307-97.02
		C-19.859,1587.089-59.437,1612.089-105.289,1632.44z"/>
	<rect x="91.112" y="1452.514" class="st17" width="445.377" height="449.744"/>
	<path class="st17" d="M459.764,1683.775c0,78.039-64.229,142.268-142.257,142.268c-78.05,0-142.268-64.229-142.268-142.268
		c0-78.034,64.218-142.257,142.268-142.257C395.535,1541.519,459.764,1605.741,459.764,1683.775"/>
	<path class="st19" d="M459.764,1683.775c0,78.039-64.229,142.268-142.257,142.268c-78.05,0-142.268-64.229-142.268-142.268
		c0-78.034,64.218-142.257,142.268-142.257C395.535,1541.519,459.764,1605.741,459.764,1683.775z"/>
	<path class="st10" d="M319.466,1554.443c0,0.636-0.521,1.157-1.157,1.157s-1.167-0.521-1.167-1.157
		c0-0.642,0.531-1.157,1.167-1.157S319.466,1553.802,319.466,1554.443"/>
	<path class="st10" d="M327.492,1572.001c0,0.787-0.657,1.423-1.438,1.423c-0.782,0-1.428-0.636-1.428-1.423
		s0.646-1.434,1.428-1.434C326.835,1570.567,327.492,1571.214,327.492,1572.001"/>
	<path class="st10" d="M348.339,1600.707c0,0.776-0.646,1.417-1.407,1.417c-0.803,0-1.449-0.641-1.449-1.417
		c0-0.787,0.646-1.434,1.449-1.434C347.692,1599.273,348.339,1599.92,348.339,1600.707"/>
	<path class="st10" d="M314.817,1581.893c0,0.642-0.511,1.173-1.146,1.173c-0.637,0-1.157-0.531-1.157-1.173
		c0-0.636,0.521-1.157,1.157-1.157C314.307,1580.735,314.817,1581.257,314.817,1581.893"/>
	<path class="st10" d="M327.304,1588.496c0,0.636-0.51,1.157-1.146,1.157c-0.636,0-1.156-0.521-1.156-1.157s0.521-1.157,1.156-1.157
		C326.794,1587.339,327.304,1587.86,327.304,1588.496"/>
	<path class="st10" d="M311.075,1570.036c0,0.782-0.646,1.428-1.418,1.428c-0.792,0-1.428-0.646-1.428-1.428
		c0-0.781,0.636-1.423,1.428-1.423C310.429,1568.613,311.075,1569.255,311.075,1570.036"/>
	<path class="st10" d="M292.188,1581.533c0,0.636-0.511,1.157-1.157,1.157c-0.636,0-1.167-0.521-1.167-1.157
		s0.531-1.157,1.167-1.157C291.678,1580.376,292.188,1580.897,292.188,1581.533"/>
	<path class="st10" d="M295.575,1583.857c0,0.636-0.521,1.157-1.156,1.157s-1.157-0.521-1.157-1.157s0.521-1.162,1.157-1.162
		S295.575,1583.222,295.575,1583.857"/>
	<path class="st10" d="M298.953,1586.172c0,0.636-0.521,1.162-1.157,1.162s-1.146-0.526-1.146-1.162
		c0-0.631,0.511-1.157,1.146-1.157S298.953,1585.541,298.953,1586.172"/>
	<path class="st10" d="M293.793,1590.633c0,0.636-0.531,1.157-1.157,1.157c-0.635,0-1.167-0.521-1.167-1.157
		s0.532-1.157,1.167-1.157C293.262,1589.476,293.793,1589.997,293.793,1590.633"/>
	<path class="st10" d="M266.87,1609.53c0,0.636-0.521,1.156-1.157,1.156s-1.157-0.521-1.157-1.156s0.521-1.157,1.157-1.157
		S266.87,1608.895,266.87,1609.53"/>
	<path class="st10" d="M271.862,1615.586c0,0.636-0.521,1.157-1.156,1.157c-0.637,0-1.168-0.521-1.168-1.157
		s0.531-1.157,1.168-1.157C271.342,1614.429,271.862,1614.95,271.862,1615.586"/>
	<path class="st10" d="M267.943,1713.461c0,0.636-0.521,1.157-1.167,1.157c-0.626,0-1.157-0.521-1.157-1.157
		c0-0.642,0.531-1.157,1.157-1.157C267.423,1712.304,267.943,1712.819,267.943,1713.461"/>
	<path class="st10" d="M268.652,1740.468c0,0.781-0.646,1.428-1.428,1.428c-0.771,0-1.418-0.646-1.418-1.428
		c0-0.782,0.646-1.418,1.418-1.418C268.006,1739.05,268.652,1739.686,268.652,1740.468"/>
	<path class="st10" d="M253.33,1754.289c0,0.63-0.542,1.157-1.178,1.157c-0.615,0-1.146-0.527-1.146-1.157
		c0-0.646,0.531-1.162,1.146-1.162C252.788,1753.127,253.33,1753.643,253.33,1754.289"/>
	<path class="st10" d="M234.954,1759.896c0,0.782-0.636,1.428-1.418,1.428c-0.792,0-1.428-0.646-1.428-1.428
		s0.636-1.423,1.428-1.423C234.318,1758.474,234.954,1759.114,234.954,1759.896"/>
	<path class="st10" d="M231.212,1747.42c0,0.782-0.636,1.423-1.418,1.423c-0.792,0-1.428-0.641-1.428-1.423s0.636-1.428,1.428-1.428
		C230.576,1745.992,231.212,1746.638,231.212,1747.42"/>
	<path class="st10" d="M229.075,1755.353c0,0.635-0.521,1.156-1.157,1.156s-1.157-0.521-1.157-1.156
		c0-0.637,0.521-1.157,1.157-1.157S229.075,1754.716,229.075,1755.353"/>
	<path class="st10" d="M215.358,1748.759c0,0.631-0.532,1.162-1.178,1.162c-0.637,0-1.157-0.531-1.157-1.162
		c0-0.635,0.521-1.162,1.157-1.162C214.826,1747.597,215.358,1748.124,215.358,1748.759"/>
	<path class="st10" d="M263.306,1771.044c0,0.631-0.521,1.152-1.146,1.152c-0.637,0-1.168-0.521-1.168-1.152
		c0-0.641,0.531-1.162,1.168-1.162C262.784,1769.882,263.306,1770.403,263.306,1771.044"/>
	<path class="st10" d="M277.741,1760.429c0,0.786-0.636,1.433-1.428,1.433c-0.771,0-1.418-0.646-1.418-1.433
		c0-0.782,0.646-1.424,1.418-1.424C277.105,1759.005,277.741,1759.646,277.741,1760.429"/>
	<path class="st10" d="M279.347,1774.072c0,0.636-0.521,1.157-1.157,1.157s-1.167-0.521-1.167-1.157s0.531-1.157,1.167-1.157
		S279.347,1773.437,279.347,1774.072"/>
	<path class="st10" d="M338.718,1761.054c0,0.646-0.521,1.167-1.157,1.167s-1.157-0.521-1.157-1.167
		c0-0.636,0.521-1.157,1.157-1.157S338.718,1760.418,338.718,1761.054"/>
	<path class="st10" d="M311.075,1770.862c0,0.636-0.531,1.156-1.157,1.156c-0.636,0-1.157-0.521-1.157-1.156
		c0-0.637,0.521-1.157,1.157-1.157C310.544,1769.705,311.075,1770.226,311.075,1770.862"/>
	<path class="st10" d="M385.414,1784.944c0,0.635-0.511,1.156-1.157,1.156c-0.636,0-1.156-0.521-1.156-1.156
		c0-0.637,0.521-1.157,1.156-1.157C384.903,1783.787,385.414,1784.308,385.414,1784.944"/>
	<path class="st10" d="M391.491,1730.128c0,0.781-0.657,1.428-1.438,1.428c-0.782,0-1.429-0.646-1.429-1.428
		c0-0.782,0.646-1.423,1.429-1.423C390.834,1728.705,391.491,1729.346,391.491,1730.128"/>
	<path class="st10" d="M380.077,1737.883c0,0.636-0.521,1.167-1.156,1.167c-0.637,0-1.168-0.531-1.168-1.167
		s0.531-1.162,1.168-1.162C379.556,1736.721,380.077,1737.247,380.077,1737.883"/>
	<path class="st10" d="M391.304,1740.113c0,0.776-0.637,1.423-1.429,1.423c-0.771,0-1.417-0.646-1.417-1.423
		c0-0.787,0.646-1.428,1.417-1.428C390.667,1738.686,391.304,1739.326,391.304,1740.113"/>
	<path class="st10" d="M380.077,1753.929c0,0.631-0.521,1.157-1.156,1.157c-0.637,0-1.168-0.526-1.168-1.157
		c0-0.635,0.531-1.151,1.168-1.151C379.556,1752.777,380.077,1753.294,380.077,1753.929"/>
	<path class="st10" d="M409.127,1722.373c0,0.63-0.511,1.157-1.157,1.157c-0.636,0-1.156-0.527-1.156-1.157
		c0-0.636,0.521-1.157,1.156-1.157C408.616,1721.216,409.127,1721.737,409.127,1722.373"/>
	<path class="st10" d="M411.983,1729.413c0,0.777-0.637,1.434-1.428,1.434c-0.771,0-1.418-0.656-1.418-1.434
		c0-0.775,0.646-1.422,1.418-1.422C411.347,1727.991,411.983,1728.638,411.983,1729.413"/>
	<path class="st10" d="M431.954,1737.794c0,0.787-0.646,1.423-1.438,1.423c-0.771,0-1.407-0.636-1.407-1.423
		c0-0.781,0.636-1.428,1.407-1.428C431.308,1736.366,431.954,1737.013,431.954,1737.794"/>
	<path class="st10" d="M411.629,1752.684c0,0.631-0.532,1.157-1.157,1.157c-0.636,0-1.168-0.526-1.168-1.157
		c0-0.636,0.532-1.162,1.168-1.162C411.097,1751.521,411.629,1752.048,411.629,1752.684"/>
	<path class="st10" d="M424.46,1740.556c0,0.637-0.531,1.162-1.146,1.162c-0.646,0-1.157-0.525-1.157-1.162
		c0-0.641,0.511-1.156,1.157-1.156C423.929,1739.399,424.46,1739.915,424.46,1740.556"/>
	<path class="st10" d="M422.156,1759.271c0,0.636-0.532,1.157-1.157,1.157c-0.646,0-1.167-0.521-1.167-1.157
		s0.521-1.157,1.167-1.157C421.624,1758.114,422.156,1758.636,422.156,1759.271"/>
	<path class="st10" d="M344.44,1568.702c0.188-0.729,0.771-1.298,1.501-1.459l0.417-3.055l0.604,3.08
		c0.708,0.203,1.261,0.793,1.438,1.517l3.074,0.443l-3.105,0.547c-0.198,0.709-0.782,1.257-1.491,1.434l-0.521,3.138l-0.521-3.164
		c-0.698-0.203-1.251-0.761-1.418-1.47l-2.98-0.484L344.44,1568.702z"/>
	<path class="st10" d="M264.493,1787.383c0.198-0.725,0.793-1.292,1.532-1.459l0.407-3.049l0.604,3.085
		c0.709,0.193,1.262,0.787,1.418,1.506l3.096,0.448l-3.116,0.548c-0.208,0.703-0.761,1.256-1.47,1.433l-0.531,3.138l-0.521-3.158
		c-0.709-0.209-1.251-0.771-1.428-1.48l-2.961-0.479L264.493,1787.383z"/>
	<path class="st10" d="M411.493,1759.188c0.198-0.724,0.792-1.292,1.532-1.454l0.386-3.054l0.604,3.08
		c0.72,0.203,1.261,0.792,1.438,1.521l3.085,0.438l-3.127,0.547c-0.188,0.703-0.771,1.256-1.47,1.434l-0.531,3.137l-0.521-3.168
		c-0.698-0.198-1.229-0.762-1.417-1.465l-2.981-0.484L411.493,1759.188z"/>
	<path class="st10" d="M423.146,1727.751c0.177-0.734,0.771-1.292,1.501-1.465l0.417-3.049l0.594,3.08
		c0.72,0.204,1.262,0.787,1.418,1.527l3.106,0.433l-3.127,0.548c-0.198,0.698-0.762,1.256-1.471,1.428l-0.521,3.143l-0.542-3.164
		c-0.688-0.197-1.24-0.761-1.396-1.469l-2.981-0.485L423.146,1727.751z"/>
	<path class="st10" d="M278.763,1611.609c0.198-0.729,0.782-1.298,1.512-1.454l0.406-3.054l0.615,3.075
		c0.719,0.208,1.262,0.787,1.418,1.521l3.096,0.438l-3.106,0.553c-0.209,0.703-0.771,1.251-1.501,1.428l-0.521,3.138l-0.521-3.169
		c-0.688-0.198-1.24-0.756-1.406-1.459l-2.981-0.49L278.763,1611.609z"/>
	<path class="st10" d="M269.351,1677.792c10.496,18.366,22.744,31.807,32.614,44.57c8.756,11.33,25.819,17.006,19.815,22.384
		c-6.775,6.062-23.172-20.675-23.172-20.675c-10.902-13.148-21.336-27.09-31.968-45.336L269.351,1677.792z"/>
	<path class="st21" d="M396.599,1651.421c-80.562,36.878-179.021,41.923-234.701,75.84l-3.68-1.276
		c50.793-33.354,139.422-54.884,212.406-83.871c7.838-3.106,15.551-6.327,23.087-9.673"/>
	<path class="st10" d="M293.585,1690.399l-7.349-18.643l-5.399,18.643H293.585z M276.282,1658.124h25.433l18.22,45.914l6.098,6.104
		h-33.114l6.077-6.104l-2.169-5.598h-18.261l-1.887,6.4l4.356,5.301h-17.271l6.066-6.104l11.737-40.599L276.282,1658.124z"/>
	<path class="st10" d="M412.702,1690.399l-7.358-18.643l-5.39,18.643H412.702z M394.44,1658.124h26.402l18.22,45.914l6.077,6.104
		h-33.104l6.077-6.104l-2.158-5.598h-18.271l-1.887,6.4l4.346,5.301h-17.271l6.076-6.104l11.727-40.599L394.44,1658.124z"/>
	<polygon class="st10" points="241.781,1690.519 241.781,1663.439 236.486,1658.124 254.091,1658.124 248.807,1663.439 
		248.807,1704.038 254.883,1710.136 231.774,1710.136 211.866,1676.453 211.866,1704.038 216.984,1710.136 198.587,1710.136 
		204.664,1704.038 204.664,1663.439 199.39,1658.124 222.404,1658.124 	"/>
	<path class="st10" d="M374.991,1671.46l-0.553-16.192l-5.441,3.763c-7.692-2.684-16.625-2.585-22.889,0.386
		c-5.838,2.763-12.144,8.599-11.362,16.881c0.751,8.286,7.183,11.502,12.967,14.118c7.463,3.377,15.562,4.529,15.447,8.984
		c-0.083,2.836-4.794,4.879-8.453,4.748c-3.346-0.099-14.207-0.912-19.888-7.666l1.074,17.042l6.056-4.451
		c7.38,2.606,16.312,3.695,24.599,1.006c8.203-2.679,16.834-9.553,12.049-21.57c-2.063-5.181-7.754-8.37-11.132-9.751
		c-3.105-1.277-12.57-4.998-15.218-6.363c-3.096-1.616-2.752-6.724,4.68-7.756C363.671,1663.694,372.989,1669.089,374.991,1671.46"
		/>
	<rect x="91.112" y="1452.514" class="st15" width="445.377" height="449.744"/>
	<g class="st13">
		<defs>
			<path id="SVGID_1_" d="M197.545,1805.832l-0.271,4.894c111.863-106.594,274.3-159.825,304.632-256.329
				C451.55,1653.662,299.536,1701.75,197.545,1805.832"/>
		</defs>
		<clipPath id="SVGID_2_">
			<use xlink:href="#SVGID_1_"  style="overflow:visible;"/>
		</clipPath>
		
			<linearGradient id="SVGID_3_" gradientUnits="userSpaceOnUse" x1="-875.2915" y1="2033.3281" x2="-869.9546" y2="2033.3281" gradientTransform="matrix(57.082 0 0 -57.082 50160.6367 117748.9219)">
			<stop  offset="0" style="stop-color:#E1EBDD"/>
			<stop  offset="0.6" style="stop-color:#E1EBDD"/>
			<stop  offset="0.9045" style="stop-color:#A5C498"/>
			<stop  offset="1" style="stop-color:#A5C498"/>
		</linearGradient>
		<rect x="197.273" y="1554.401" class="st2" width="304.632" height="256.324"/>
	</g>
	<path class="st10" d="M266.641,1678.735c-1.209-2.043-2.407-4.143-3.606-6.295c-27.174-48.917-23.265-98.829,25.943-77.086
		c41.756,18.46,81.646,70.242,97.688,107.006c7.432,17.042,27.361,83.918-36.815,56.817l-0.114-0.392
		c60.611,24.959,50.136-38.279,17.678-86.773c-18.355-27.439-42.298-50.298-57.401-61.326
		c-50.261-36.731-80.937-14.264-45.644,57.762c1.605,3.257,3.263,6.363,4.982,9.344L266.641,1678.735z"/>
	<path class="st21" d="M393.711,1632.44c45.853-20.352,85.43-45.352,108.194-78.039c-23.536,47.968-61.821,77.122-105.307,97.02"/>
	<rect x="91.112" y="1452.514" class="st15" width="445.377" height="449.744"/>
	<path class="st10" d="M-205.415,1690.399l-7.349-18.643l-5.399,18.643H-205.415z M-222.718,1658.124h25.433l18.22,45.914
		l6.098,6.104h-33.114l6.077-6.104l-2.169-5.598h-18.261l-1.887,6.4l4.356,5.301h-17.271l6.066-6.104l11.737-40.599
		L-222.718,1658.124z"/>
	<polygon class="st10" points="-257.219,1690.519 -257.219,1663.439 -262.514,1658.124 -244.909,1658.124 -250.193,1663.439 
		-250.193,1704.038 -244.117,1710.136 -267.226,1710.136 -287.134,1676.453 -287.134,1704.038 -282.016,1710.136 -300.413,1710.136 
		-294.336,1704.038 -294.336,1663.439 -299.61,1658.124 -276.596,1658.124 	"/>
	<path class="st10" d="M-124.009,1671.46l-0.553-16.192l-5.441,3.763c-7.692-2.684-16.625-2.585-22.889,0.386
		c-5.838,2.763-12.144,8.599-11.362,16.881c0.751,8.286,7.183,11.502,12.967,14.118c7.463,3.377,15.562,4.529,15.447,8.984
		c-0.083,2.836-4.794,4.879-8.453,4.748c-3.346-0.099-14.207-0.912-19.888-7.666l1.074,17.042l6.056-4.451
		c7.38,2.606,16.312,3.695,24.599,1.006c8.203-2.679,16.834-9.553,12.049-21.57c-2.063-5.181-7.754-8.37-11.132-9.751
		c-3.105-1.277-12.57-4.998-15.218-6.363c-3.096-1.616-2.752-6.724,4.68-7.756C-135.329,1663.694-126.011,1669.089-124.009,1671.46"
		/>
	<path class="st10" d="M-232.359,1678.735c-1.209-2.043-2.407-4.143-3.606-6.295c-27.174-48.917-23.265-98.829,25.943-77.086
		c41.756,18.46,81.646,70.242,97.688,107.006c7.432,17.042,27.361,83.918-36.815,56.817l-0.114-0.392
		c60.611,24.959,50.136-38.279,17.678-86.773c-18.355-27.439-42.298-50.298-57.401-61.326
		c-50.261-36.731-80.937-14.264-45.644,57.762c1.605,3.257,3.263,6.363,4.982,9.344L-232.359,1678.735z"/>
	<path class="st5" d="M-301.455,1805.832l-0.271,4.894c111.863-106.594,274.3-159.825,304.632-256.329
		C-47.45,1653.662-199.464,1701.75-301.455,1805.832"/>
	<g class="st13">
		<path class="st12" d="M-229.632,1677.821c-0.006-0.01-0.012-0.02-0.018-0.029l-2.71,0.943c0.004,0.007,0.008,0.013,0.012,0.02
			C-231.442,1678.443-230.54,1678.132-229.632,1677.821z"/>
		<path class="st12" d="M-197.035,1722.362c-7.764-10.039-16.995-20.509-25.691-33.453c-0.997,0.242-1.993,0.483-2.987,0.725
			c8.368,13.131,16.698,24.037,25.322,34.438c0,0,16.396,26.736,23.172,20.675C-171.216,1739.368-188.279,1733.692-197.035,1722.362
			z"/>
	</g>
	<g class="st13">
		<path class="st16" d="M62.131,20.821c0,22.491-18.511,41.002-40.999,41.002c-22.494,0-41.001-18.511-41.001-41.002
			c0-22.489,18.507-40.998,41.001-40.998C43.62-20.177,62.131-1.668,62.131,20.821"/>
		<path class="st4" d="M62.131,20.821c0,22.491-18.511,41.002-40.999,41.002c-22.494,0-41.001-18.511-41.001-41.002
			c0-22.489,18.507-40.998,41.001-40.998C43.62-20.177,62.131-1.668,62.131,20.821z"/>
		<path class="st12" d="M21.696-16.452c0,0.183-0.149,0.333-0.335,0.333c-0.182,0-0.334-0.15-0.334-0.333
			c0-0.185,0.152-0.333,0.334-0.333C21.547-16.785,21.696-16.637,21.696-16.452"/>
		<path class="st12" d="M24.01-11.392c0,0.228-0.189,0.411-0.413,0.411c-0.228,0-0.412-0.183-0.412-0.411
			c0-0.227,0.185-0.413,0.412-0.413C23.82-11.804,24.01-11.618,24.01-11.392"/>
		<path class="st12" d="M30.018-3.118c0,0.223-0.188,0.409-0.406,0.409c-0.231,0-0.418-0.186-0.418-0.409
			c0-0.227,0.187-0.414,0.418-0.414C29.83-3.532,30.018-3.345,30.018-3.118"/>
		<path class="st12" d="M20.356-8.542c0,0.185-0.147,0.339-0.331,0.339c-0.183,0-0.332-0.154-0.332-0.339
			c0-0.182,0.149-0.333,0.332-0.333C20.209-8.874,20.356-8.724,20.356-8.542"/>
		<path class="st12" d="M23.955-6.638c0,0.184-0.146,0.333-0.33,0.333s-0.333-0.15-0.333-0.333c0-0.182,0.149-0.333,0.333-0.333
			S23.955-6.82,23.955-6.638"/>
		<path class="st12" d="M19.278-11.958c0,0.225-0.187,0.412-0.41,0.412c-0.227,0-0.411-0.187-0.411-0.412
			c0-0.225,0.185-0.41,0.411-0.41C19.092-12.368,19.278-12.183,19.278-11.958"/>
		<path class="st12" d="M13.834-8.645c0,0.184-0.146,0.334-0.331,0.334c-0.184,0-0.337-0.15-0.337-0.334
			c0-0.183,0.153-0.333,0.337-0.333C13.688-8.978,13.834-8.828,13.834-8.645"/>
		<path class="st12" d="M14.812-7.974c0,0.183-0.151,0.333-0.333,0.333c-0.186,0-0.334-0.15-0.334-0.333s0.148-0.335,0.334-0.335
			C14.66-8.309,14.812-8.157,14.812-7.974"/>
		<path class="st12" d="M15.785-7.308c0,0.184-0.151,0.335-0.335,0.335c-0.183,0-0.33-0.151-0.33-0.335
			c0-0.182,0.147-0.333,0.33-0.333C15.634-7.641,15.785-7.49,15.785-7.308"/>
		<path class="st12" d="M14.297-6.021c0,0.183-0.152,0.333-0.332,0.333c-0.185,0-0.337-0.15-0.337-0.333
			c0-0.183,0.152-0.333,0.337-0.333C14.145-6.355,14.297-6.205,14.297-6.021"/>
		<path class="st12" d="M6.54-0.575c0,0.184-0.153,0.333-0.336,0.333c-0.184,0-0.332-0.149-0.332-0.333
			c0-0.183,0.148-0.334,0.332-0.334C6.387-0.909,6.54-0.758,6.54-0.575"/>
		<path class="st12" d="M7.978,1.169c0,0.184-0.15,0.333-0.333,0.333c-0.185,0-0.336-0.15-0.336-0.333
			c0-0.183,0.151-0.334,0.336-0.334C7.827,0.835,7.978,0.986,7.978,1.169"/>
		<path class="st12" d="M6.848,29.377c0,0.183-0.15,0.334-0.335,0.334c-0.182,0-0.336-0.151-0.336-0.334
			c0-0.185,0.154-0.334,0.336-0.334C6.697,29.043,6.848,29.192,6.848,29.377"/>
		<path class="st12" d="M7.051,37.16c0,0.226-0.186,0.413-0.41,0.413c-0.224,0-0.409-0.187-0.409-0.413
			c0-0.225,0.186-0.408,0.409-0.408C6.865,36.751,7.051,36.935,7.051,37.16"/>
		<path class="st12" d="M2.637,41.144c0,0.182-0.157,0.334-0.341,0.334c-0.176,0-0.329-0.152-0.329-0.334
			c0-0.186,0.153-0.334,0.329-0.334C2.479,40.809,2.637,40.958,2.637,41.144"/>
		<path class="st12" d="M-2.659,42.76c0,0.225-0.185,0.411-0.409,0.411c-0.229,0-0.412-0.186-0.412-0.411
			c0-0.226,0.184-0.41,0.412-0.41C-2.844,42.35-2.659,42.535-2.659,42.76"/>
		<path class="st12" d="M-3.737,39.164c0,0.226-0.185,0.41-0.41,0.41c-0.228,0-0.41-0.184-0.41-0.41c0-0.225,0.183-0.411,0.41-0.411
			C-3.922,38.753-3.737,38.939-3.737,39.164"/>
		<path class="st12" d="M-4.354,41.451c0,0.182-0.151,0.333-0.334,0.333c-0.185,0-0.334-0.151-0.334-0.333
			c0-0.184,0.149-0.334,0.334-0.334C-4.505,41.117-4.354,41.268-4.354,41.451"/>
		<path class="st12" d="M-8.307,39.55c0,0.182-0.154,0.334-0.339,0.334s-0.334-0.152-0.334-0.334c0-0.184,0.149-0.335,0.334-0.335
			S-8.307,39.367-8.307,39.55"/>
		<path class="st12" d="M5.511,45.972c0,0.183-0.151,0.333-0.331,0.333c-0.182,0-0.336-0.15-0.336-0.333
			c0-0.183,0.154-0.334,0.336-0.334C5.359,45.638,5.511,45.789,5.511,45.972"/>
		<path class="st12" d="M9.671,42.914c0,0.227-0.183,0.412-0.412,0.412c-0.221,0-0.407-0.186-0.407-0.412
			c0-0.226,0.187-0.41,0.407-0.41C9.488,42.503,9.671,42.688,9.671,42.914"/>
		<path class="st12" d="M10.133,46.846c0,0.183-0.149,0.334-0.332,0.334c-0.185,0-0.336-0.151-0.336-0.334
			c0-0.183,0.151-0.333,0.336-0.333C9.983,46.512,10.133,46.663,10.133,46.846"/>
		<path class="st12" d="M27.245,43.093c0,0.187-0.151,0.336-0.333,0.336c-0.183,0-0.335-0.149-0.335-0.336
			c0-0.183,0.152-0.333,0.335-0.333C27.094,42.76,27.245,42.91,27.245,43.093"/>
		<path class="st12" d="M19.278,45.92c0,0.183-0.153,0.333-0.333,0.333c-0.185,0-0.334-0.15-0.334-0.333
			c0-0.184,0.149-0.333,0.334-0.333C19.125,45.587,19.278,45.736,19.278,45.92"/>
		<path class="st12" d="M40.703,49.979c0,0.182-0.146,0.333-0.333,0.333c-0.185,0-0.334-0.15-0.334-0.333
			c0-0.184,0.149-0.334,0.334-0.334C40.558,49.646,40.703,49.795,40.703,49.979"/>
		<path class="st12" d="M42.455,34.181c0,0.225-0.19,0.412-0.415,0.412c-0.226,0-0.413-0.187-0.413-0.412
			c0-0.225,0.188-0.411,0.413-0.411C42.265,33.77,42.455,33.956,42.455,34.181"/>
		<path class="st12" d="M39.164,36.416c0,0.183-0.148,0.336-0.331,0.336c-0.185,0-0.337-0.153-0.337-0.336
			c0-0.183,0.152-0.334,0.337-0.334C39.016,36.081,39.164,36.233,39.164,36.416"/>
		<path class="st12" d="M42.399,37.059c0,0.224-0.184,0.409-0.412,0.409c-0.222,0-0.405-0.185-0.405-0.409
			c0-0.227,0.184-0.412,0.405-0.412C42.216,36.647,42.399,36.832,42.399,37.059"/>
		<path class="st12" d="M39.164,41.041c0,0.181-0.148,0.333-0.331,0.333c-0.185,0-0.337-0.152-0.337-0.333
			c0-0.184,0.152-0.332,0.337-0.332C39.016,40.709,39.164,40.857,39.164,41.041"/>
		<path class="st12" d="M47.536,31.946c0,0.181-0.146,0.333-0.332,0.333c-0.184,0-0.336-0.152-0.336-0.333
			c0-0.184,0.152-0.333,0.336-0.333C47.39,31.613,47.536,31.762,47.536,31.946"/>
		<path class="st12" d="M48.361,33.975c0,0.225-0.186,0.414-0.414,0.414c-0.222,0-0.407-0.189-0.407-0.414
			c0-0.224,0.186-0.41,0.407-0.41C48.176,33.564,48.361,33.751,48.361,33.975"/>
		<path class="st12" d="M54.115,36.39c0,0.227-0.185,0.409-0.414,0.409c-0.224,0-0.406-0.183-0.406-0.409
			c0-0.226,0.183-0.412,0.406-0.412C53.931,35.979,54.115,36.165,54.115,36.39"/>
		<path class="st12" d="M48.258,40.681c0,0.183-0.152,0.334-0.333,0.334c-0.184,0-0.336-0.151-0.336-0.334
			c0-0.183,0.152-0.334,0.336-0.334C48.105,40.347,48.258,40.498,48.258,40.681"/>
		<path class="st12" d="M51.956,37.186c0,0.184-0.153,0.334-0.33,0.334c-0.187,0-0.334-0.151-0.334-0.334
			c0-0.185,0.147-0.333,0.334-0.333C51.803,36.853,51.956,37.001,51.956,37.186"/>
		<path class="st12" d="M51.292,42.58c0,0.183-0.153,0.333-0.333,0.333c-0.188,0-0.337-0.15-0.337-0.333s0.149-0.334,0.337-0.334
			C51.139,42.246,51.292,42.397,51.292,42.58"/>
		<path class="st12" d="M28.895-12.342c0.053-0.21,0.223-0.374,0.433-0.42l0.12-0.879l0.172,0.887
			c0.206,0.058,0.364,0.228,0.416,0.437l0.887,0.127l-0.896,0.159c-0.057,0.204-0.227,0.362-0.429,0.412l-0.15,0.904l-0.149-0.912
			c-0.202-0.058-0.362-0.218-0.41-0.423l-0.859-0.14L28.895-12.342z"/>
		<path class="st12" d="M5.853,50.682c0.059-0.209,0.229-0.373,0.443-0.421l0.116-0.878l0.176,0.889
			c0.204,0.055,0.361,0.227,0.406,0.434l0.893,0.129l-0.898,0.157c-0.059,0.203-0.219,0.363-0.423,0.413l-0.153,0.905L6.262,51.4
			C6.06,51.339,5.9,51.178,5.851,50.973l-0.853-0.138L5.853,50.682z"/>
		<path class="st12" d="M48.219,42.556c0.058-0.208,0.229-0.373,0.441-0.42l0.112-0.879l0.173,0.887
			c0.208,0.059,0.364,0.229,0.416,0.439l0.887,0.127l-0.898,0.157c-0.057,0.203-0.224,0.362-0.425,0.413l-0.152,0.905l-0.153-0.913
			c-0.199-0.059-0.353-0.22-0.405-0.423l-0.86-0.139L48.219,42.556z"/>
		<path class="st12" d="M51.577,33.496c0.052-0.212,0.224-0.372,0.433-0.422l0.121-0.878l0.17,0.888
			c0.208,0.059,0.364,0.227,0.409,0.44l0.896,0.124l-0.901,0.157c-0.06,0.202-0.22,0.362-0.423,0.413l-0.15,0.906l-0.158-0.912
			c-0.197-0.057-0.354-0.22-0.401-0.423l-0.86-0.14L51.577,33.496z"/>
		<path class="st12" d="M9.967,0.024c0.056-0.21,0.226-0.374,0.435-0.419l0.116-0.88l0.178,0.886
			c0.208,0.06,0.362,0.227,0.409,0.439l0.893,0.126l-0.896,0.16c-0.061,0.202-0.222,0.36-0.433,0.411l-0.15,0.904l-0.149-0.914
			c-0.197-0.057-0.357-0.218-0.405-0.421l-0.86-0.14L9.967,0.024z"/>
		<path class="st12" d="M48.565,22.731l-2.12-5.373l-1.553,5.373H48.565z M43.304,13.43h7.608l5.251,13.232l1.751,1.759h-9.541
			l1.754-1.759l-0.621-1.614H44.24l-0.545,1.845l1.251,1.528H39.97l1.752-1.759l3.379-11.701L43.304,13.43z"/>
		<path class="st8" d="M43.093,6.027C40.922,6.992,38.7,7.92,36.44,8.815C15.406,17.17-10.136,23.374-24.775,32.987l1.062,0.369
			c16.047-9.775,44.421-11.23,67.64-21.858c12.534-5.734,23.565-14.136,30.35-27.96C67.715-7.043,56.308,0.161,43.093,6.027z"/>
		<path class="st12" d="M14.237,22.731l-2.118-5.373l-1.555,5.373H14.237z M9.251,13.43h7.33l5.251,13.232l1.757,1.759h-9.544
			l1.752-1.759l-0.625-1.614H9.909l-0.546,1.845l1.258,1.528H5.644l1.746-1.759l3.384-11.701L9.251,13.43z"/>
		<polygon class="st12" points="-0.691,22.765 -0.691,14.961 -2.22,13.43 2.856,13.43 1.332,14.961 1.332,26.662 3.082,28.419 
			-3.576,28.419 -9.314,18.712 -9.314,26.662 -7.839,28.419 -13.143,28.419 -11.39,26.662 -11.39,14.961 -12.909,13.43 
			-6.277,13.43 		"/>
		<path class="st12" d="M37.697,17.273l-0.158-4.667l-1.567,1.084c-2.217-0.773-4.791-0.745-6.597,0.11
			c-1.684,0.797-3.5,2.479-3.274,4.866c0.215,2.388,2.069,3.314,3.736,4.068c2.15,0.973,4.485,1.305,4.451,2.589
			c-0.023,0.818-1.381,1.406-2.437,1.369c-0.963-0.028-4.094-0.264-5.731-2.209l0.311,4.912l1.745-1.283
			c2.126,0.751,4.702,1.065,7.09,0.29c2.365-0.772,4.851-2.753,3.472-6.217c-0.595-1.493-2.232-2.412-3.208-2.81
			c-0.894-0.368-3.621-1.441-4.384-1.834c-0.894-0.466-0.795-1.938,1.348-2.236C34.436,15.034,37.121,16.589,37.697,17.273"/>
		<path class="st12" d="M6.473,19.37c-0.349-0.589-0.694-1.195-1.038-1.815C-2.396,3.457-1.271-10.927,12.909-4.661
			c12.034,5.32,23.531,20.244,28.153,30.838c2.143,4.912,7.886,24.186-10.61,16.375L30.42,42.44
			c17.468,7.193,14.449-11.032,5.094-25.008C30.224,9.524,23.325,2.936,18.972-0.243C4.486-10.829-4.354-4.353,5.819,16.405
			c0.461,0.939,0.938,1.834,1.434,2.693L6.473,19.37z"/>
		<path class="st8" d="M-13.442,55.999l-0.078,1.411c32.239-30.721,79.053-46.062,87.796-73.874
			C59.764,12.143,15.952,26.002-13.442,55.999"/>
		<g>
			<path class="st12" d="M7.257,19.106c-0.001-0.002-0.004-0.006-0.004-0.009l-0.78,0.272c0,0.002,0.003,0.004,0.004,0.005
				C6.737,19.285,6.996,19.196,7.257,19.106z"/>
			<path class="st12" d="M16.652,31.943c-2.236-2.894-4.897-5.911-7.404-9.642c-0.289,0.07-0.573,0.14-0.86,0.209
				c2.411,3.784,4.811,6.927,7.298,9.924c0,0,4.725,7.706,6.678,5.958C24.093,36.844,19.177,35.208,16.652,31.943z"/>
		</g>
	</g>
	<g class="st13">
		<path class="st16" d="M-807.726-652.157c0,22.491-18.511,41.002-40.999,41.002c-22.494,0-41.001-18.511-41.001-41.002
			c0-22.489,18.507-40.998,41.001-40.998C-826.236-693.155-807.726-674.646-807.726-652.157"/>
		<path class="st4" d="M-807.726-652.157c0,22.491-18.511,41.002-40.999,41.002c-22.494,0-41.001-18.511-41.001-41.002
			c0-22.489,18.507-40.998,41.001-40.998C-826.236-693.155-807.726-674.646-807.726-652.157z"/>
		<path class="st12" d="M-848.16-689.43c0,0.183-0.149,0.333-0.335,0.333c-0.182,0-0.334-0.15-0.334-0.333
			c0-0.185,0.152-0.333,0.334-0.333C-848.31-689.763-848.16-689.615-848.16-689.43"/>
		<path class="st12" d="M-845.847-684.37c0,0.228-0.189,0.411-0.413,0.411c-0.228,0-0.412-0.183-0.412-0.411
			c0-0.227,0.185-0.413,0.412-0.413C-846.036-684.782-845.847-684.596-845.847-684.37"/>
		<path class="st12" d="M-839.839-676.096c0,0.223-0.188,0.409-0.406,0.409c-0.231,0-0.418-0.186-0.418-0.409
			c0-0.227,0.187-0.414,0.418-0.414C-840.026-676.51-839.839-676.323-839.839-676.096"/>
		<path class="st12" d="M-849.5-681.52c0,0.185-0.147,0.339-0.331,0.339c-0.183,0-0.332-0.154-0.332-0.339
			c0-0.182,0.149-0.333,0.332-0.333C-849.647-681.852-849.5-681.702-849.5-681.52"/>
		<path class="st12" d="M-845.901-679.616c0,0.184-0.146,0.333-0.33,0.333s-0.333-0.15-0.333-0.333c0-0.182,0.149-0.333,0.333-0.333
			S-845.901-679.798-845.901-679.616"/>
		<path class="st12" d="M-850.578-684.936c0,0.225-0.187,0.412-0.41,0.412c-0.227,0-0.411-0.187-0.411-0.412
			c0-0.225,0.185-0.41,0.411-0.41C-850.765-685.346-850.578-685.161-850.578-684.936"/>
		<path class="st12" d="M-856.022-681.623c0,0.184-0.146,0.334-0.331,0.334c-0.184,0-0.337-0.15-0.337-0.334
			c0-0.183,0.153-0.333,0.337-0.333C-856.169-681.956-856.022-681.806-856.022-681.623"/>
		<path class="st12" d="M-855.045-680.952c0,0.183-0.151,0.333-0.333,0.333c-0.186,0-0.334-0.15-0.334-0.333
			s0.148-0.335,0.334-0.335C-855.196-681.287-855.045-681.135-855.045-680.952"/>
		<path class="st12" d="M-854.071-680.286c0,0.184-0.151,0.335-0.335,0.335c-0.183,0-0.33-0.151-0.33-0.335
			c0-0.182,0.147-0.333,0.33-0.333C-854.223-680.619-854.071-680.468-854.071-680.286"/>
		<path class="st12" d="M-855.56-679c0,0.183-0.152,0.333-0.332,0.333c-0.185,0-0.337-0.15-0.337-0.333
			c0-0.183,0.152-0.333,0.337-0.333C-855.712-679.333-855.56-679.183-855.56-679"/>
		<path class="st12" d="M-863.316-673.553c0,0.184-0.153,0.333-0.336,0.333c-0.184,0-0.332-0.149-0.332-0.333
			c0-0.183,0.148-0.334,0.332-0.334C-863.47-673.887-863.316-673.736-863.316-673.553"/>
		<path class="st12" d="M-861.879-671.809c0,0.184-0.15,0.333-0.333,0.333c-0.185,0-0.336-0.15-0.336-0.333
			c0-0.183,0.151-0.334,0.336-0.334C-862.029-672.143-861.879-671.992-861.879-671.809"/>
		<path class="st12" d="M-863.009-643.601c0,0.183-0.15,0.334-0.335,0.334c-0.182,0-0.336-0.151-0.336-0.334
			c0-0.185,0.154-0.334,0.336-0.334C-863.159-643.935-863.009-643.786-863.009-643.601"/>
		<path class="st12" d="M-862.806-635.818c0,0.226-0.186,0.413-0.41,0.413c-0.224,0-0.409-0.187-0.409-0.413
			c0-0.225,0.186-0.408,0.409-0.408C-862.991-636.227-862.806-636.043-862.806-635.818"/>
		<path class="st12" d="M-867.22-631.834c0,0.182-0.157,0.334-0.341,0.334c-0.176,0-0.329-0.152-0.329-0.334
			c0-0.186,0.153-0.334,0.329-0.334C-867.377-632.169-867.22-632.021-867.22-631.834"/>
		<path class="st12" d="M-872.516-630.218c0,0.225-0.185,0.411-0.409,0.411c-0.229,0-0.412-0.186-0.412-0.411
			c0-0.226,0.184-0.41,0.412-0.41C-872.7-630.628-872.516-630.443-872.516-630.218"/>
		<path class="st12" d="M-873.594-633.814c0,0.226-0.185,0.41-0.41,0.41c-0.228,0-0.41-0.184-0.41-0.41
			c0-0.225,0.183-0.411,0.41-0.411C-873.778-634.225-873.594-634.039-873.594-633.814"/>
		<path class="st12" d="M-874.21-631.527c0,0.182-0.151,0.333-0.334,0.333c-0.185,0-0.334-0.151-0.334-0.333
			c0-0.184,0.149-0.334,0.334-0.334C-874.361-631.861-874.21-631.71-874.21-631.527"/>
		<path class="st12" d="M-878.163-633.428c0,0.182-0.154,0.334-0.339,0.334s-0.334-0.152-0.334-0.334
			c0-0.184,0.149-0.335,0.334-0.335S-878.163-633.611-878.163-633.428"/>
		<path class="st12" d="M-864.346-627.006c0,0.183-0.151,0.333-0.331,0.333c-0.182,0-0.336-0.15-0.336-0.333
			c0-0.183,0.154-0.334,0.336-0.334C-864.497-627.34-864.346-627.189-864.346-627.006"/>
		<path class="st12" d="M-860.186-630.064c0,0.227-0.183,0.412-0.412,0.412c-0.221,0-0.407-0.186-0.407-0.412
			c0-0.226,0.187-0.41,0.407-0.41C-860.368-630.475-860.186-630.29-860.186-630.064"/>
		<path class="st12" d="M-859.724-626.132c0,0.183-0.149,0.334-0.332,0.334c-0.185,0-0.336-0.151-0.336-0.334
			c0-0.183,0.151-0.333,0.336-0.333C-859.873-626.466-859.724-626.315-859.724-626.132"/>
		<path class="st12" d="M-842.611-629.885c0,0.187-0.151,0.336-0.333,0.336c-0.183,0-0.335-0.149-0.335-0.336
			c0-0.183,0.152-0.333,0.335-0.333C-842.763-630.218-842.611-630.068-842.611-629.885"/>
		<path class="st12" d="M-850.578-627.058c0,0.183-0.153,0.333-0.333,0.333c-0.185,0-0.334-0.15-0.334-0.333
			c0-0.184,0.149-0.333,0.334-0.333C-850.731-627.391-850.578-627.242-850.578-627.058"/>
		<path class="st12" d="M-829.153-622.999c0,0.182-0.146,0.333-0.333,0.333c-0.185,0-0.334-0.15-0.334-0.333
			c0-0.184,0.149-0.334,0.334-0.334C-829.299-623.333-829.153-623.183-829.153-622.999"/>
		<path class="st12" d="M-827.401-638.797c0,0.225-0.19,0.412-0.415,0.412c-0.226,0-0.413-0.187-0.413-0.412
			c0-0.225,0.188-0.411,0.413-0.411C-827.592-639.208-827.401-639.022-827.401-638.797"/>
		<path class="st12" d="M-830.692-636.562c0,0.183-0.148,0.336-0.331,0.336c-0.185,0-0.337-0.153-0.337-0.336
			c0-0.183,0.152-0.334,0.337-0.334C-830.841-636.897-830.692-636.745-830.692-636.562"/>
		<path class="st12" d="M-827.457-635.919c0,0.224-0.184,0.409-0.412,0.409c-0.222,0-0.405-0.185-0.405-0.409
			c0-0.227,0.184-0.412,0.405-0.412C-827.641-636.331-827.457-636.146-827.457-635.919"/>
		<path class="st12" d="M-830.692-631.937c0,0.181-0.148,0.333-0.331,0.333c-0.185,0-0.337-0.152-0.337-0.333
			c0-0.184,0.152-0.332,0.337-0.332C-830.841-632.269-830.692-632.121-830.692-631.937"/>
		<path class="st12" d="M-822.32-641.032c0,0.181-0.146,0.333-0.332,0.333c-0.184,0-0.336-0.152-0.336-0.333
			c0-0.184,0.152-0.333,0.336-0.333C-822.467-641.365-822.32-641.216-822.32-641.032"/>
		<path class="st12" d="M-821.495-639.003c0,0.225-0.186,0.414-0.414,0.414c-0.222,0-0.407-0.189-0.407-0.414
			c0-0.224,0.186-0.41,0.407-0.41C-821.681-639.414-821.495-639.227-821.495-639.003"/>
		<path class="st12" d="M-815.741-636.588c0,0.227-0.185,0.409-0.414,0.409c-0.224,0-0.406-0.183-0.406-0.409
			c0-0.226,0.183-0.412,0.406-0.412C-815.926-637-815.741-636.813-815.741-636.588"/>
		<path class="st12" d="M-821.599-632.297c0,0.183-0.152,0.334-0.333,0.334c-0.184,0-0.336-0.151-0.336-0.334
			c0-0.183,0.152-0.334,0.336-0.334C-821.751-632.631-821.599-632.48-821.599-632.297"/>
		<path class="st12" d="M-817.9-635.792c0,0.184-0.153,0.334-0.33,0.334c-0.187,0-0.334-0.151-0.334-0.334
			c0-0.185,0.147-0.333,0.334-0.333C-818.054-636.125-817.9-635.977-817.9-635.792"/>
		<path class="st12" d="M-818.564-630.398c0,0.183-0.153,0.333-0.333,0.333c-0.188,0-0.337-0.15-0.337-0.333
			s0.149-0.334,0.337-0.334C-818.718-630.732-818.564-630.581-818.564-630.398"/>
		<path class="st12" d="M-840.962-685.32c0.053-0.21,0.223-0.374,0.433-0.42l0.12-0.879l0.172,0.887
			c0.206,0.058,0.364,0.228,0.416,0.437l0.887,0.127l-0.896,0.159c-0.057,0.204-0.227,0.362-0.429,0.412l-0.15,0.904l-0.149-0.912
			c-0.202-0.058-0.362-0.218-0.41-0.423l-0.859-0.14L-840.962-685.32z"/>
		<path class="st12" d="M-864.004-622.296c0.059-0.209,0.229-0.373,0.443-0.421l0.116-0.878l0.176,0.889
			c0.204,0.055,0.361,0.227,0.406,0.434l0.893,0.129l-0.898,0.157c-0.059,0.203-0.219,0.363-0.423,0.413l-0.153,0.905l-0.15-0.911
			c-0.202-0.061-0.361-0.222-0.411-0.427l-0.853-0.138L-864.004-622.296z"/>
		<path class="st12" d="M-821.638-630.422c0.058-0.208,0.229-0.373,0.441-0.42l0.112-0.879l0.173,0.887
			c0.208,0.059,0.364,0.229,0.416,0.439l0.887,0.127l-0.898,0.157c-0.057,0.203-0.224,0.362-0.425,0.413l-0.152,0.905l-0.153-0.913
			c-0.199-0.059-0.353-0.22-0.405-0.423l-0.86-0.139L-821.638-630.422z"/>
		<path class="st12" d="M-818.279-639.482c0.052-0.212,0.224-0.372,0.433-0.422l0.121-0.878l0.17,0.888
			c0.208,0.059,0.364,0.227,0.409,0.44l0.896,0.124l-0.901,0.157c-0.06,0.202-0.22,0.362-0.423,0.413l-0.15,0.906l-0.158-0.912
			c-0.197-0.057-0.354-0.22-0.401-0.423l-0.86-0.14L-818.279-639.482z"/>
		<path class="st12" d="M-859.89-672.954c0.056-0.21,0.226-0.374,0.435-0.419l0.116-0.88l0.178,0.886
			c0.208,0.06,0.362,0.227,0.409,0.439l0.893,0.126l-0.896,0.16c-0.061,0.202-0.222,0.36-0.433,0.411l-0.15,0.904l-0.149-0.914
			c-0.197-0.057-0.357-0.218-0.405-0.421l-0.86-0.14L-859.89-672.954z"/>
		<path class="st12" d="M-821.291-650.247l-2.12-5.373l-1.553,5.373H-821.291z M-826.553-659.548h7.608l5.251,13.232l1.751,1.759
			h-9.541l1.754-1.759l-0.621-1.614h-5.266l-0.545,1.845l1.251,1.528h-4.977l1.752-1.759l3.379-11.701L-826.553-659.548z"/>
		<path class="st8" d="M-826.764-666.951c-2.171,0.964-4.393,1.893-6.652,2.788c-21.034,8.354-46.576,14.558-61.216,24.171
			l1.062,0.369c16.047-9.775,44.421-11.23,67.64-21.858c12.534-5.734,23.565-14.136,30.35-27.96
			C-802.142-680.021-813.549-672.817-826.764-666.951z"/>
		<path class="st12" d="M-855.619-650.247l-2.118-5.373l-1.555,5.373H-855.619z M-860.605-659.548h7.33l5.251,13.232l1.757,1.759
			h-9.544l1.752-1.759l-0.625-1.614h-5.263l-0.546,1.845l1.258,1.528h-4.978l1.746-1.759l3.384-11.701L-860.605-659.548z"/>
		<polygon class="st12" points="-870.548,-650.213 -870.548,-658.017 -872.076,-659.548 -867,-659.548 -868.524,-658.017 
			-868.524,-646.316 -866.774,-644.559 -873.433,-644.559 -879.171,-654.266 -879.171,-646.316 -877.695,-644.559 
			-882.999,-644.559 -881.246,-646.316 -881.246,-658.017 -882.766,-659.548 -876.134,-659.548 		"/>
		<path class="st12" d="M-832.159-655.705l-0.158-4.667l-1.567,1.084c-2.217-0.773-4.791-0.745-6.597,0.11
			c-1.684,0.797-3.5,2.479-3.274,4.866c0.215,2.388,2.069,3.314,3.736,4.068c2.15,0.973,4.485,1.305,4.451,2.589
			c-0.023,0.818-1.381,1.406-2.437,1.369c-0.963-0.028-4.094-0.264-5.731-2.209l0.311,4.912l1.745-1.283
			c2.126,0.751,4.702,1.065,7.09,0.29c2.365-0.772,4.851-2.753,3.472-6.217c-0.595-1.493-2.232-2.412-3.208-2.81
			c-0.894-0.368-3.621-1.441-4.384-1.834c-0.894-0.466-0.795-1.938,1.348-2.236C-835.421-657.944-832.735-656.389-832.159-655.705"
			/>
		<path class="st12" d="M-863.384-653.608c-0.349-0.589-0.694-1.195-1.038-1.815c-7.831-14.098-6.706-28.482,7.475-22.216
			c12.034,5.32,23.531,20.244,28.153,30.838c2.143,4.912,7.886,24.186-10.61,16.375l-0.032-0.113
			c17.468,7.193,14.449-11.032,5.094-25.008c-5.29-7.908-12.188-14.496-16.542-17.674c-14.485-10.586-23.325-4.11-13.152,16.647
			c0.461,0.939,0.938,1.834,1.434,2.693L-863.384-653.608z"/>
		<path class="st8" d="M-883.299-616.979l-0.078,1.411c32.239-30.721,79.053-46.062,87.796-73.874
			C-810.093-660.835-853.904-646.976-883.299-616.979"/>
		<g>
			<path class="st12" d="M-862.6-653.872c-0.001-0.002-0.004-0.006-0.004-0.009l-0.78,0.272c0,0.002,0.003,0.004,0.004,0.005
				C-863.119-653.693-862.86-653.782-862.6-653.872z"/>
			<path class="st12" d="M-853.204-641.035c-2.236-2.894-4.897-5.911-7.404-9.642c-0.289,0.07-0.573,0.14-0.86,0.209
				c2.411,3.784,4.811,6.927,7.298,9.924c0,0,4.725,7.706,6.678,5.958C-845.764-636.134-850.68-637.77-853.204-641.035z"/>
		</g>
	</g>
	<text transform="matrix(1 0 0 1 -921.6709 -715.1548)" class="st13"><tspan x="0" y="0" style="fill:#4D4D5E; font-family:'Helvetica-Bold'; font-size:14;">82px = S</tspan><tspan x="57.203" y="0" style="fill:#4D4D5E; font-family:'Helvetica-Light'; font-size:14;">(phere height)</tspan></text>
	<text transform="matrix(1 0 0 1 -787.7256 -648.5522)" class="st13"><tspan x="0" y="0" style="fill:#4D4D5E; font-family:'Helvetica-Bold'; font-size:14;">15px = N</tspan><tspan x="57.976" y="0" style="fill:#4D4D5E; font-family:'Helvetica-Light'; font-size:14;">(ASA height)</tspan></text>
	<text transform="matrix(1 0 0 1 -1056.6016 -648.5522)" class="st13"><tspan x="0" y="0" style="fill:#4D4D5E; font-family:'Helvetica-Bold'; font-size:14;">10px = T</tspan><tspan x="56.417" y="0" style="fill:#4D4D5E; font-family:'Helvetica-Light'; font-size:14;">(ype height)</tspan></text>
	<polyline class="st11" points="-889.726,-654.266 -919.726,-654.266 -919.726,-644.559 -889.726,-644.559 	"/>
	<polyline class="st11" points="-807.725,-678.155 -807.725,-708.155 -889.725,-708.155 -889.725,-678.155 	"/>
	<polyline class="st11" points="-807.726,-659.552 -792.726,-659.552 -792.726,-644.552 -807.726,-644.552 	"/>
	<line class="st20" x1="-707.725" y1="106.823" x2="-707.725" y2="703.323"/>
	<line class="st20" x1="105.775" y1="121.823" x2="-723.225" y2="121.823"/>
	<line class="st20" x1="105.775" y1="687.823" x2="-723.225" y2="687.823"/>
	<line class="st20" x1="89.275" y1="106.823" x2="89.275" y2="703.323"/>
	<text transform="matrix(1 0 0 1 -176.6074 16.606)" class="st13"><tspan x="0" y="0" style="fill:#4D4D5E; font-family:'Helvetica'; font-size:10;">National Aeronautics and</tspan><tspan x="17.246" y="20" style="fill:#4D4D5E; font-family:'Helvetica'; font-size:10;">Space Administration</tspan></text>
	<line class="st1" x1="-49.869" y1="-20.177" x2="-49.869" y2="61.823"/>
	<text transform="matrix(1 0 0 1 -588.0991 -644.5591)" class="st1" style="font-family:'Helvetica'; font-size:14;">p Helvetica 14px</text>
	<text transform="matrix(1 0 0 1 -588.0991 -685.4331)" class="st1" style="font-family:'Helvetica'; font-size:19;">h4 Helvetica 19px</text>
	<text transform="matrix(1 0 0 1 -588.0991 -726.1187)" class="st1" style="font-family:'Helvetica'; font-size:25;">h3 Helvetica 25px</text>
	<text transform="matrix(1 0 0 1 -588.0991 -766.4258)" class="st1" style="font-family:'Helvetica'; font-size:33;">h2 Helvetica 33px</text>
	<text transform="matrix(1 0 0 1 -588.0991 -806.167)" class="st1" style="font-family:'Helvetica'; font-size:44;">h1 Helvetica 44px</text>
	<text transform="matrix(1 0 0 1 -692.7246 36.1318)" class="st1" style="font-family:'Helvetica'; font-size:44;">Goddard Space Flight Center</text>
	<polyline class="st3" points="-807.725,-95.177 -807.725,-125.177 -889.725,-125.177 -889.725,-95.177 	"/>
	<text transform="matrix(1 0 0 1 -919.4873 -135.1768)" class="st1" style="font-family:'Helvetica'; font-size:19;">Icons width 82px</text>
	<polyline class="st3" points="-706.011,-169.327 -706.011,-199.327 -919.725,-199.327 -919.725,-169.327 	"/>
	<text transform="matrix(1 0 0 1 -895.2456 -209.3271)" class="st1" style="font-family:'Helvetica'; font-size:19;">Sidebar width 20vw</text>
	<rect x="-495.725" y="136.823" class="st15" width="379" height="174.35"/>
	<text transform="matrix(1 0 0 1 -495.7246 146.8892)" class="st13"><tspan x="0" y="0" style="font-family:'Helvetica'; font-size:14;">For those who have seen the Earth from space, and for the </tspan><tspan x="0" y="16.8" style="font-family:'Helvetica'; font-size:14;">hundreds and perhaps thousands more who will, the experi</tspan><tspan x="366.557" y="16.8" style="font-family:'Helvetica'; font-size:14;">-</tspan><tspan x="0" y="33.6" style="font-family:'Helvetica'; font-size:14;">ence most certainly changes your perspective. The things </tspan><tspan x="0" y="50.4" style="font-family:'Helvetica'; font-size:14;">that we share in our world are far more valuable than those </tspan><tspan x="0" y="67.2" style="font-family:'Helvetica'; font-size:14;">which divide us.</tspan><tspan x="0" y="100.8" style="font-family:'Helvetica'; font-size:14;">The Earth was small, light blue, and so touchingly alone, our </tspan><tspan x="0" y="117.6" style="font-family:'Helvetica'; font-size:14;">home that must be defended like a holy relic. The Earth was </tspan><tspan x="0" y="134.4" style="font-family:'Helvetica'; font-size:14;">absolutely round. I believe I never knew what the word round </tspan><tspan x="0" y="151.2" style="font-family:'Helvetica'; font-size:14;">meant until I saw Earth from space.</tspan></text>
	<rect x="-495.725" y="349.173" class="st15" width="379" height="104.35"/>
	<text transform="matrix(1 0 0 1 -495.7246 359.2388)" class="st13"><tspan x="0" y="0" style="font-family:'Helvetica'; font-size:14;">Failure is not an option.</tspan><tspan x="0" y="33.6" style="font-family:'Helvetica'; font-size:14;">The Earth was small, light blue, and so touchingly alone, our </tspan><tspan x="0" y="50.4" style="font-family:'Helvetica'; font-size:14;">home that must be defended like a holy relic. The Earth was </tspan><tspan x="0" y="67.2" style="font-family:'Helvetica'; font-size:14;">absolutely round. I believe I never knew what the word round </tspan><tspan x="0" y="84" style="font-family:'Helvetica'; font-size:14;">meant until I saw Earth from space.</tspan></text>
	<rect x="-495.725" y="509.173" class="st15" width="379" height="104.35"/>
	<text transform="matrix(1 0 0 1 -495.7246 519.2388)" class="st13"><tspan x="0" y="0" style="font-family:'Helvetica'; font-size:14;">Failure is not an option.</tspan><tspan x="0" y="33.6" style="font-family:'Helvetica'; font-size:14;">The Earth was small, light blue, and so touchingly alone, our </tspan><tspan x="0" y="50.4" style="font-family:'Helvetica'; font-size:14;">home that must be defended like a holy relic. The Earth was </tspan><tspan x="0" y="67.2" style="font-family:'Helvetica'; font-size:14;">absolutely round. I believe I never knew what the word round </tspan><tspan x="0" y="84" style="font-family:'Helvetica'; font-size:14;">meant until I saw Earth from space.</tspan></text>
	<rect x="-692.725" y="136.823" class="st0" width="182" height="197.35"/>
	<rect x="-692.725" y="530.173" class="st6" width="182" height="52.175"/>
	<rect x="-101.725" y="349.173" class="st0" width="176" height="145"/>
	<g class="st13">
		<text transform="matrix(1 0 0 1 -656.1836 561.8486)" class="st12" style="font-family:'Helvetica-Bold'; font-size:14;">Begin the Exam.</text>
	</g>
</g>
<g id="logo">
	<g>
		<path class="st16" d="M43.431,20.822c0,11.246-9.25,20.501-20.488,20.501c-11.242,0-20.49-9.255-20.49-20.501
			c0-11.245,9.248-20.499,20.49-20.499C34.181,0.323,43.431,9.578,43.431,20.822"/>
		<path class="st4" d="M43.431,20.822c0,11.246-9.25,20.501-20.488,20.501c-11.242,0-20.49-9.255-20.49-20.501
			c0-11.245,9.248-20.499,20.49-20.499C34.181,0.323,43.431,9.578,43.431,20.822z"/>
		<path class="st12" d="M23.224,2.186c0,0.092-0.074,0.167-0.167,0.167c-0.091,0-0.167-0.075-0.167-0.167
			c0-0.092,0.076-0.166,0.167-0.166C23.149,2.02,23.224,2.093,23.224,2.186"/>
		<path class="st12" d="M24.38,4.716c0,0.114-0.094,0.205-0.206,0.205c-0.114,0-0.206-0.091-0.206-0.205
			c0-0.113,0.092-0.206,0.206-0.206C24.286,4.51,24.38,4.603,24.38,4.716"/>
		<path class="st12" d="M27.382,8.853c0,0.111-0.094,0.204-0.203,0.204c-0.115,0-0.208-0.093-0.208-0.204
			c0-0.113,0.093-0.207,0.208-0.207C27.288,8.646,27.382,8.739,27.382,8.853"/>
		<path class="st12" d="M22.554,6.141c0,0.093-0.073,0.17-0.165,0.17c-0.091,0-0.165-0.077-0.165-0.17
			c0-0.091,0.074-0.166,0.165-0.166C22.48,5.975,22.554,6.05,22.554,6.141"/>
		<path class="st12" d="M24.353,7.093c0,0.092-0.072,0.167-0.164,0.167s-0.167-0.075-0.167-0.167c0-0.091,0.075-0.167,0.167-0.167
			S24.353,7.002,24.353,7.093"/>
		<path class="st12" d="M22.016,4.433c0,0.112-0.093,0.206-0.205,0.206c-0.113,0-0.206-0.094-0.206-0.206s0.093-0.205,0.206-0.205
			C21.923,4.228,22.016,4.32,22.016,4.433"/>
		<path class="st12" d="M19.295,6.089c0,0.092-0.073,0.167-0.165,0.167s-0.169-0.075-0.169-0.167c0-0.091,0.077-0.166,0.169-0.166
			S19.295,5.998,19.295,6.089"/>
		<path class="st12" d="M19.783,6.425c0,0.091-0.075,0.167-0.167,0.167S19.45,6.516,19.45,6.425c0-0.092,0.074-0.168,0.166-0.168
			S19.783,6.333,19.783,6.425"/>
		<path class="st12" d="M20.271,6.758c0,0.092-0.076,0.168-0.168,0.168s-0.165-0.076-0.165-0.168c0-0.091,0.073-0.167,0.165-0.167
			S20.271,6.667,20.271,6.758"/>
		<path class="st12" d="M19.526,7.401c0,0.091-0.076,0.167-0.166,0.167c-0.092,0-0.168-0.075-0.168-0.167s0.076-0.167,0.168-0.167
			C19.45,7.234,19.526,7.31,19.526,7.401"/>
		<path class="st12" d="M15.649,10.124c0,0.092-0.076,0.166-0.168,0.166s-0.166-0.074-0.166-0.166s0.074-0.167,0.166-0.167
			S15.649,10.032,15.649,10.124"/>
		<path class="st12" d="M16.368,10.996c0,0.092-0.075,0.167-0.166,0.167c-0.093,0-0.168-0.075-0.168-0.167
			c0-0.091,0.075-0.167,0.168-0.167C16.293,10.829,16.368,10.905,16.368,10.996"/>
		<path class="st12" d="M15.804,25.101c0,0.091-0.076,0.167-0.168,0.167c-0.09,0-0.168-0.076-0.168-0.167
			c0-0.093,0.078-0.167,0.168-0.167C15.728,24.934,15.804,25.008,15.804,25.101"/>
		<path class="st12" d="M15.905,28.991c0,0.113-0.094,0.207-0.205,0.207s-0.205-0.093-0.205-0.207c0-0.112,0.094-0.204,0.205-0.204
			S15.905,28.879,15.905,28.991"/>
		<path class="st12" d="M13.699,30.983c0,0.091-0.079,0.167-0.171,0.167c-0.088,0-0.164-0.076-0.164-0.167
			c0-0.093,0.076-0.167,0.164-0.167C13.62,30.816,13.699,30.891,13.699,30.983"/>
		<path class="st12" d="M11.052,31.792c0,0.112-0.092,0.205-0.203,0.205c-0.115,0-0.207-0.093-0.207-0.205
			c0-0.113,0.092-0.205,0.207-0.205C10.96,31.587,11.052,31.679,11.052,31.792"/>
		<path class="st12" d="M10.514,29.994c0,0.113-0.093,0.205-0.205,0.205c-0.114,0-0.205-0.092-0.205-0.205s0.091-0.206,0.205-0.206
			C10.421,29.788,10.514,29.881,10.514,29.994"/>
		<path class="st12" d="M10.206,31.137c0,0.091-0.076,0.167-0.168,0.167s-0.166-0.076-0.166-0.167c0-0.092,0.074-0.167,0.166-0.167
			S10.206,31.045,10.206,31.137"/>
		<path class="st12" d="M8.229,30.187c0,0.091-0.076,0.167-0.168,0.167c-0.093,0-0.168-0.076-0.168-0.167
			c0-0.092,0.075-0.167,0.168-0.167C8.153,30.02,8.229,30.095,8.229,30.187"/>
		<path class="st12" d="M15.136,33.397c0,0.092-0.076,0.167-0.166,0.167c-0.091,0-0.168-0.075-0.168-0.167
			c0-0.091,0.077-0.167,0.168-0.167C15.06,33.23,15.136,33.306,15.136,33.397"/>
		<path class="st12" d="M17.214,31.868c0,0.113-0.091,0.206-0.205,0.206c-0.111,0-0.204-0.093-0.204-0.206
			c0-0.112,0.093-0.205,0.204-0.205C17.123,31.663,17.214,31.756,17.214,31.868"/>
		<path class="st12" d="M17.445,33.834c0,0.091-0.075,0.167-0.166,0.167c-0.093,0-0.168-0.076-0.168-0.167s0.075-0.167,0.168-0.167
			C17.37,33.668,17.445,33.743,17.445,33.834"/>
		<path class="st12" d="M25.997,31.958c0,0.094-0.076,0.168-0.166,0.168c-0.092,0-0.168-0.074-0.168-0.168
			c0-0.092,0.076-0.166,0.168-0.166C25.921,31.792,25.997,31.866,25.997,31.958"/>
		<path class="st12" d="M22.016,33.372c0,0.091-0.077,0.167-0.167,0.167c-0.092,0-0.166-0.075-0.166-0.167
			c0-0.092,0.074-0.167,0.166-0.167C21.938,33.205,22.016,33.28,22.016,33.372"/>
		<path class="st12" d="M32.723,35.401c0,0.091-0.073,0.166-0.167,0.166c-0.092,0-0.166-0.075-0.166-0.166
			c0-0.092,0.074-0.167,0.166-0.167C32.649,35.234,32.723,35.31,32.723,35.401"/>
		<path class="st12" d="M33.599,27.502c0,0.112-0.096,0.206-0.208,0.206s-0.206-0.094-0.206-0.206s0.094-0.205,0.206-0.205
			S33.599,27.39,33.599,27.502"/>
		<path class="st12" d="M31.953,28.619c0,0.092-0.073,0.168-0.165,0.168s-0.168-0.076-0.168-0.168c0-0.091,0.076-0.167,0.168-0.167
			S31.953,28.528,31.953,28.619"/>
		<path class="st12" d="M33.57,28.941c0,0.111-0.092,0.204-0.206,0.204c-0.111,0-0.203-0.093-0.203-0.204
			c0-0.114,0.092-0.206,0.203-0.206C33.479,28.735,33.57,28.828,33.57,28.941"/>
		<path class="st12" d="M31.953,30.932c0,0.09-0.073,0.167-0.165,0.167s-0.168-0.076-0.168-0.167c0-0.092,0.076-0.166,0.168-0.166
			S31.953,30.84,31.953,30.932"/>
		<path class="st12" d="M36.138,26.385c0,0.09-0.074,0.167-0.166,0.167s-0.168-0.076-0.168-0.167c0-0.092,0.076-0.167,0.168-0.167
			S36.138,26.293,36.138,26.385"/>
		<path class="st12" d="M36.55,27.399c0,0.112-0.093,0.207-0.207,0.207c-0.111,0-0.203-0.094-0.203-0.207
			c0-0.112,0.092-0.205,0.203-0.205C36.457,27.194,36.55,27.287,36.55,27.399"/>
		<path class="st12" d="M39.425,28.606c0,0.113-0.092,0.205-0.207,0.205c-0.111,0-0.203-0.092-0.203-0.205
			c0-0.112,0.092-0.206,0.203-0.206C39.333,28.401,39.425,28.494,39.425,28.606"/>
		<path class="st12" d="M36.498,30.752c0,0.092-0.076,0.167-0.167,0.167c-0.092,0-0.168-0.075-0.168-0.167
			c0-0.091,0.076-0.167,0.168-0.167C36.422,30.585,36.498,30.661,36.498,30.752"/>
		<path class="st12" d="M38.347,29.005c0,0.092-0.077,0.167-0.166,0.167c-0.093,0-0.166-0.075-0.166-0.167
			c0-0.093,0.073-0.167,0.166-0.167C38.27,28.838,38.347,28.912,38.347,29.005"/>
		<path class="st12" d="M38.015,31.702c0,0.091-0.077,0.167-0.167,0.167c-0.094,0-0.169-0.075-0.169-0.167s0.075-0.167,0.169-0.167
			C37.938,31.535,38.015,31.61,38.015,31.702"/>
		<path class="st12" d="M26.821,4.24c0.026-0.105,0.111-0.187,0.217-0.21l0.059-0.439l0.086,0.443
			c0.104,0.029,0.183,0.114,0.209,0.218l0.443,0.064l-0.448,0.079c-0.028,0.102-0.113,0.181-0.214,0.206l-0.076,0.452l-0.074-0.456
			c-0.101-0.029-0.181-0.109-0.205-0.212l-0.43-0.069L26.821,4.24z"/>
		<path class="st12" d="M15.306,35.753c0.029-0.104,0.115-0.187,0.223-0.211l0.058-0.439l0.087,0.445
			c0.103,0.027,0.182,0.113,0.203,0.217l0.447,0.064l-0.449,0.079c-0.029,0.102-0.109,0.181-0.211,0.207l-0.077,0.453l-0.075-0.456
			c-0.102-0.03-0.181-0.111-0.205-0.213l-0.427-0.069L15.306,35.753z"/>
		<path class="st12" d="M36.479,31.689c0.028-0.104,0.114-0.187,0.22-0.21l0.057-0.439l0.086,0.443
			c0.104,0.029,0.183,0.114,0.209,0.22l0.443,0.063l-0.449,0.078c-0.029,0.102-0.112,0.182-0.213,0.207l-0.076,0.452l-0.076-0.457
			c-0.1-0.029-0.176-0.11-0.203-0.211l-0.43-0.069L36.479,31.689z"/>
		<path class="st12" d="M38.157,27.159c0.025-0.105,0.111-0.186,0.216-0.211l0.061-0.439l0.085,0.444
			c0.104,0.029,0.182,0.113,0.204,0.22l0.448,0.062l-0.451,0.079c-0.029,0.101-0.109,0.181-0.211,0.207l-0.075,0.453l-0.079-0.456
			c-0.099-0.029-0.178-0.11-0.201-0.211l-0.43-0.07L38.157,27.159z"/>
		<path class="st12" d="M17.362,10.424c0.027-0.105,0.113-0.188,0.217-0.21l0.059-0.44l0.088,0.443
			c0.104,0.03,0.182,0.113,0.205,0.22l0.446,0.063l-0.448,0.08c-0.03,0.101-0.111,0.18-0.217,0.206l-0.074,0.452l-0.074-0.457
			c-0.1-0.028-0.18-0.109-0.203-0.211l-0.43-0.07L17.362,10.424z"/>
		<path class="st12" d="M36.651,21.777l-1.059-2.687l-0.777,2.687H36.651z M34.022,17.127h3.802l2.624,6.616l0.875,0.879h-4.768
			l0.877-0.879l-0.311-0.807H34.49l-0.272,0.923l0.625,0.764h-2.486l0.875-0.879l1.688-5.851L34.022,17.127z"/>
		<path class="st8" d="M33.917,13.425c-1.086,0.482-2.195,0.946-3.324,1.394C20.081,18.997,7.315,22.099,0,26.905l0.53,0.184
			c8.02-4.888,22.199-5.615,33.803-10.929C40.597,13.293,46.11,9.092,49.5,2.18C46.222,6.89,40.521,10.492,33.917,13.425z"/>
		<path class="st12" d="M19.497,21.777l-1.059-2.687l-0.777,2.687H19.497z M17.005,17.127h3.662l2.625,6.616l0.878,0.879H19.4
			l0.876-0.879l-0.312-0.807h-2.631l-0.272,0.923l0.628,0.764h-2.486l0.872-0.879l1.69-5.851L17.005,17.127z"/>
		<polygon class="st12" points="12.036,21.794 12.036,17.892 11.272,17.127 13.81,17.127 13.047,17.892 13.047,23.743 
			13.921,24.621 10.595,24.621 7.727,19.768 7.727,23.743 8.464,24.621 5.813,24.621 6.689,23.743 6.689,17.892 5.931,17.127 
			9.244,17.127 		"/>
		<path class="st12" d="M31.22,19.048l-0.078-2.333l-0.783,0.542c-1.108-0.387-2.395-0.373-3.297,0.055
			c-0.842,0.398-1.75,1.239-1.637,2.433c0.107,1.194,1.034,1.657,1.867,2.034c1.074,0.486,2.242,0.652,2.225,1.294
			c-0.012,0.409-0.689,0.703-1.218,0.685c-0.481-0.014-2.046-0.132-2.864-1.105l0.155,2.456l0.872-0.642
			c1.062,0.375,2.35,0.532,3.543,0.145c1.182-0.386,2.424-1.376,1.735-3.108c-0.298-0.747-1.116-1.206-1.604-1.405
			c-0.446-0.184-1.81-0.721-2.19-0.917c-0.447-0.233-0.397-0.969,0.674-1.118C29.591,17.929,30.933,18.706,31.22,19.048"/>
		<path class="st12" d="M15.616,20.097c-0.174-0.294-0.348-0.598-0.52-0.907c-3.913-7.049-3.351-14.241,3.736-11.108
			c6.014,2.66,11.76,10.122,14.068,15.419c1.071,2.456,3.941,12.093-5.302,8.188l-0.017-0.057c8.73,3.597,7.221-5.516,2.546-12.504
			c-2.644-3.954-6.091-7.248-8.267-8.837c-7.238-5.293-11.656-2.055-6.572,8.324c0.23,0.469,0.469,0.917,0.716,1.346L15.616,20.097z
			"/>
		<path class="st8" d="M5.663,38.411l-0.039,0.705C21.735,23.756,45.131,16.085,49.5,2.179
			C42.248,16.483,20.354,23.413,5.663,38.411"/>
		<g>
			<path class="st12" d="M16.008,19.965c-0.001-0.001-0.002-0.003-0.002-0.004l-0.39,0.136c0,0.001,0.002,0.002,0.002,0.002
				C15.748,20.054,15.878,20.01,16.008,19.965z"/>
			<path class="st12" d="M20.703,26.383c-1.118-1.446-2.447-2.955-3.7-4.82c-0.145,0.035-0.287,0.069-0.43,0.104
				c1.205,1.892,2.404,3.464,3.646,4.962c0,0,2.361,3.853,3.338,2.979C24.421,28.833,21.965,28.016,20.703,26.383z"/>
		</g>
	</g>
</g>
</svg>
